<svg xmlns="http://www.w3.org/2000/svg" xmlns:xlink="http://www.w3.org/1999/xlink" height="800" width="1140"><g/><g id="#555555,894,RSPagl,Retrosplenial%20area%2C%20lateral%20agranular%20part" fill="none" stroke="#555555" stroke-width="2.6666666666666665"><path d=" M299 198 L333,204 C333,204 372.5,168 372.5,168 372.5,168 417.5,132 417.5,132 447.873,116.814 470.624,90.2529 485,61.5 492.883,45.7332 466,20.1446 466,16 466,16 428,22 428,22 428,22 438,37.5 438,37.5 438,37.5 438,57 438,57 438,87.6797 382.187,128.157 356.5,141 356.5,141 334.5,161 334.5,161 334.5,161 299,198 299,198  Z"/></g><g id="#aa0055,879,RSPd,Retrosplenial%20area%2C%20dorsal%20part" fill="none" stroke="#aa0055" stroke-width="2.6666666666666665"><path d=" M333 204 C333,211.599 318,230.716 318,247 318,247 330.5,237 330.5,237 351.398,226.551 372.819,206.681 390,189.5 390,189.5 413,166 413,166 413,158.474 445.938,134.281 452.5,131 452.5,131 473.5,117 473.5,117 506.751,100.374 549,85.4469 549,39 549,39 534.5,26 534.5,26 512.984,15.2419 492.169,16 466,16 466,20.1446 492.883,45.7332 485,61.5 470.624,90.2529 447.873,116.814 417.5,132 417.5,132 372.5,168 372.5,168 372.5,168 333,204 333,204  Z"/></g><g id="#aaaa00,533,VISpm,posteromedial%20visual%20area" fill="none" stroke="#aaaa00" stroke-width="2.6666666666666665"><path d=" M373 36 C388.556,36 404.616,34.5578 417.5,41 L438,57 C438,57 438,37.5 438,37.5 438,37.5 428,22 428,22 428,22 373,36 373,36  Z"/><path d=" M370 36 L366,37 C366,37 370,36 370,36  Z"/><path d=" M366 37 L364,38 C364,38 366,37 366,37  Z"/><path d=" M358 39 L357,40 C357,40 358,39 358,39  Z"/></g><g id="#005500,385,VISp,Primary%20visual%20area" fill="none" stroke="#005500" stroke-width="2.6666666666666665"><path d=" M212 178 L228.5,183 L260.5,184 L299,198 C299,198 334.5,161 334.5,161 334.5,161 356.5,141 356.5,141 382.187,128.157 438,87.6797 438,57 438,57 417.5,41 417.5,41 404.616,34.5578 388.556,36 373,36 373,36 370,36 370,36 370,36 366,37 366,37 366,37 364,38 364,38 364,38 358,39 358,39 358,39 357,40 357,40 335.01,40 284.679,63.9105 264.5,74 264.5,74 238,89 238,89 238,89 237,90 237,90 237,90 223,99 223,99 223,99 216,106 216,106 216,106 212,110 212,110 212,119.555 198.857,133.214 205,145.5 205,145.5 212,178 212,178  Z"/></g><g id="#005555,886,RSPv,Retrosplenial%20area%2C%20ventral%20part" fill="none" stroke="#005555" stroke-width="2.6666666666666665"><path d=" M570 202 L567,204 C567,204 566.5,178 566.5,178 566.5,178 558,191.5 558,191.5 558,191.5 536.5,218 536.5,218 536.5,218 512.5,212 512.5,212 512.5,212 494.5,211 494.5,211 494.5,211 494.5,207 494.5,207 494.5,207 483.5,206 483.5,206 483.5,206 480.5,198 480.5,198 480.5,198 465.5,198 465.5,198 465.5,198 446.5,179 446.5,179 446.5,179 428.5,167 428.5,167 428.5,167 413,166 413,166 413,158.474 445.938,134.281 452.5,131 452.5,131 473.5,117 473.5,117 506.751,100.374 549,85.4469 549,39 549,39 569,71.5 569,71.5 569,71.5 570,202 570,202  Z"/></g><g id="#00aa00,417,VISrl,Rostrolateral%20visual%20area" fill="none" stroke="#00aa00" stroke-width="2.6666666666666665"><path d=" M238 89 L237,90 C237,90 238,89 238,89  Z"/><path d=" M216 106 L210,108 C210,108 223,99 223,99 223,99 216,106 216,106  Z"/><path d=" M208 109 L207,110 C207,110 208,109 208,109  Z"/><path d=" M207 110 L205,111 C205,111 207,110 207,110  Z"/></g><g id="#555500,402,VISal,Anterolateral%20visual%20area" fill="none" stroke="#555500" stroke-width="2.6666666666666665"><path d=" M143 168 L142,174 C142,174 160,158 160,158 160,153.93 208.939,110 212,110 212,110 216,106 216,106 216,106 210,108 210,108 210,108 208,109 208,109 208,109 207,110 207,110 207,110 205,111 205,111 205,111 191.5,121 191.5,121 191.5,121 147,161 147,161 147,161 143,168 143,168  Z"/></g><g id="#aa5500,409,VISl,Lateral%20visual%20area" fill="none" stroke="#aa5500" stroke-width="2.6666666666666665"><path d=" M175 200 L168,202 C168,187.907 160,173.94 160,158 160,153.93 208.939,110 212,110 212,119.555 198.857,133.214 205,145.5 205,145.5 212,178 212,178 212,178 175,200 175,200  Z"/></g><g id="#aa00aa,312782574,VISli,Laterointermediate%20area" fill="none" stroke="#aa00aa" stroke-width="2.6666666666666665"><path d=" M168 202 C168,203.365 141,235.761 141,207 141,196.749 142,185.093 142,175 142,175 142,174 142,174 142,174 160,158 160,158 160,173.94 168,187.907 168,202  Z"/></g><g id="#aaaa55,1011,AUDd,Dorsal%20auditory%20area" fill="none" stroke="#aaaa55" stroke-width="2.6666666666666665"><path d=" M143 168 L126,184 C126,184 147,161 147,161 147,161 143,168 143,168  Z"/></g><g id="#5500aa,1027,AUDpo,Posterior%20auditory%20area" fill="none" stroke="#5500aa" stroke-width="2.6666666666666665"><path d=" M82 266 L81,274 C81,274 91,254.5 91,254.5 91,254.5 127.5,192 127.5,192 127.5,192 142,175 142,175 142,175 142,174 142,174 142,174 143,168 143,168 143,168 126,184 126,184 126,184 110,202 110,202 110,202 82,266 82,266  Z"/><path d=" M81 275 L80,276 C80,276 81,275 81,275  Z"/></g><g id="#000055,541,TEa,Temporal%20association%20areas" fill="none" stroke="#000055" stroke-width="2.6666666666666665"><path d=" M53 364 L55,407 L58,421 C58,391.923 62.9151,362.67 75,338.5 75,338.5 88,316 88,316 88,283.285 110.352,258.797 124,231.5 124,231.5 141,207 141,207 141,196.749 142,185.093 142,175 142,175 127.5,192 127.5,192 127.5,192 91,254.5 91,254.5 91,254.5 81,274 81,274 81,274 81,275 81,275 81,275 80,276 80,276 80,276 60,331.5 60,331.5 60,331.5 53,364 53,364  Z"/></g><g id="#55aa00,425,VISpl,Posterolateral%20visual%20area" fill="none" stroke="#55aa00" stroke-width="2.6666666666666665"><path d=" M318 247 C318,258.955 299.183,239.842 297.5,239 L268.5,238 L210.5,236 L183,252 C183,238.194 175,221.578 175,200 175,200 212,178 212,178 212,178 228.5,183 228.5,183 228.5,183 260.5,184 260.5,184 260.5,184 299,198 299,198 299,198 333,204 333,204 333,211.599 318,230.716 318,247  Z"/><path d=" M296 245 C296,249.123 300.123,245 296,245  Z"/></g><g id="#0055aa,312782628,VISpor,Postrhinal%20area" fill="none" stroke="#0055aa" stroke-width="2.6666666666666665"><path d=" M93 337 L98,349 C98,340.622 104.958,339.584 108,333.5 108,333.5 134,294.5 134,294.5 134,294.5 160,270.5 160,270.5 164.471,261.557 183,263.641 183,252 183,238.194 175,221.578 175,200 175,200 168,202 168,202 168,203.365 141,235.761 141,207 141,207 124,231.5 124,231.5 110.352,258.797 88,283.285 88,316 88,323.962 93,331.005 93,337  Z"/></g><g id="#55aa55,1002,AUDp,Primary%20auditory%20area" fill="none" stroke="#55aa55" stroke-width="2.6666666666666665"><path d=" M82 266 L63,297 C63,274.012 80.8117,236.688 97,220.5 97,220.5 110,202 110,202 110,202 82,266 82,266  Z"/><path d=" M63 298 L60,305 C60,305 63,298 63,298  Z"/></g><g id="#aa0000,48,ACAv,Anterior%20cingulate%20area%2C%20ventral%20part" fill="none" stroke="#aa0000" stroke-width="2.6666666666666665"><path d=" M570 202 L567,204 C567,211.868 558.444,211.612 556,216.5 556,216.5 555,328.5 555,328.5 555,328.5 557.5,359 557.5,359 557.5,359 565.5,360 565.5,360 565.5,360 568.5,366 568.5,366 568.5,366 570,202 570,202  Z"/></g><g id="#0000aa,1018,AUDv,Ventral%20auditory%20area" fill="none" stroke="#0000aa" stroke-width="2.6666666666666665"><path d=" M60 305 C60,324.448 53,342.969 53,364 53,364 60,331.5 60,331.5 60,331.5 80,276 80,276 80,276 81,275 81,275 81,275 81,274 81,274 81,274 82,266 82,266 82,266 63,297 63,297 63,297 63,298 63,298 63,298 60,305 60,305  Z"/></g><g id="#aa5555,895,ECT,Ectorhinal%20area" fill="none" stroke="#aa5555" stroke-width="2.6666666666666665"><path d=" M58 421 L63.5,450 L75,426 C75,414.238 81.5748,364.35 86,355.5 86,355.5 93,337 93,337 93,331.005 88,323.962 88,316 88,316 75,338.5 75,338.5 62.9151,362.67 58,391.923 58,421  Z"/></g><g id="#00aa55,922,PERI,Perirhinal%20area" fill="none" stroke="#00aa55" stroke-width="2.6666666666666665"><path d=" M98 349 L82,410.5 L75,426 C75,414.238 81.5748,364.35 86,355.5 86,355.5 93,337 93,337 93,337 98,349 98,349  Z"/></g><g id="#550000,44,ILA,Infralimbic%20area" fill="none" stroke="#550000" stroke-width="2.6666666666666665"><path d=" M569 435 L568,436 C568,436 567,404.5 567,404.5 567,404.5 570,410.5 570,410.5 570,410.5 569,435 569,435  Z"/></g><g id="#550055,731,ORBm,Orbital%20area%2C%20medial%20part" fill="none" stroke="#550055" stroke-width="2.6666666666666665"><path d=" M569 435 C571.362,435 568,449.891 568,436 568,436 569,435 569,435  Z"/></g><g id="area_labels" style="fill:#000; text-anchor: middle; dominant-baseline: middle; font-size:13.333333333333334px; font-family: sans-serif">
<g><text stroke-width="1.3333333333333335" stroke="#666" x="462.60611030679485" y="52.76766242583859">RSPagl</text>
<text x="462.60611030679485" y="52.76766242583859">RSPagl</text></g>
<g><text stroke-width="1.3333333333333335" stroke="#666" x="518.697265625" y="62.49325977534642">RSPd</text>
<text x="518.697265625" y="62.49325977534642">RSPd</text></g>
<g><text stroke-width="1.3333333333333335" stroke="#666" x="423.54295656145393" y="33.17399223242045">VISpm</text>
<text x="423.54295656145393" y="33.17399223242045">VISpm</text></g>
<g><text stroke-width="1.3333333333333335" stroke="#666" x="283.2866566850262" y="129.82718744553938">VISp</text>
<text x="283.2866566850262" y="129.82718744553938">VISp</text></g>
<g><text stroke-width="1.3333333333333335" stroke="#666" x="515.6366241385193" y="157.2941841379028">RSPv</text>
<text x="515.6366241385193" y="157.2941841379028">RSPv</text></g>
<g><text stroke-width="1.3333333333333335" stroke="#666" x="215.09363256890353" y="105.28041450411415">VISrl</text>
<text x="215.09363256890353" y="105.28041450411415">VISrl</text></g>
<g><text stroke-width="1.3333333333333335" stroke="#666" x="149.79860692840015" y="162.54446635660653">VISal</text>
<text x="149.79860692840015" y="162.54446635660653">VISal</text></g>
<g><text stroke-width="1.3333333333333335" stroke="#666" x="184.546875" y="165.546875">VISl</text>
<text x="184.546875" y="165.546875">VISl</text></g>
<g><text stroke-width="1.3333333333333335" stroke="#666" x="154.5" y="196.88141050674258">VISli</text>
<text x="154.5" y="196.88141050674258">VISli</text></g>
<g><text stroke-width="1.3333333333333335" stroke="#666" x="141.82823165195313" y="168.11128701142312">AUDd</text>
<text x="141.82823165195313" y="168.11128701142312">AUDd</text></g>
<g><text stroke-width="1.3333333333333335" stroke="#666" x="113.12423310415353" y="206.87671631261003">AUDpo</text>
<text x="113.12423310415353" y="206.87671631261003">AUDpo</text></g>
<g><text stroke-width="1.3333333333333335" stroke="#666" x="77.39339917762067" y="313.8540104140741">TEa</text>
<text x="77.39339917762067" y="313.8540104140741">TEa</text></g>
<g><text stroke-width="1.3333333333333335" stroke="#666" x="216.89825267596322" y="208.5297246282074">VISpl</text>
<text x="216.89825267596322" y="208.5297246282074">VISpl</text></g>
<g><text stroke-width="1.3333333333333335" stroke="#666" x="141.65234375" y="252.01218542744493">VISpor</text>
<text x="141.65234375" y="252.01218542744493">VISpor</text></g>
<g><text stroke-width="1.3333333333333335" stroke="#666" x="78.92931238695705" y="256.226736362675">AUDp</text>
<text x="78.92931238695705" y="256.226736362675">AUDp</text></g>
<g><text stroke-width="1.3333333333333335" stroke="#666" x="562.4999950803848" y="259.49900545878006">ACAv</text>
<text x="562.4999950803848" y="259.49900545878006">ACAv</text></g>
<g><text stroke-width="1.3333333333333335" stroke="#666" x="66.28037336188913" y="301.22213209033043">AUDv</text>
<text x="66.28037336188913" y="301.22213209033043">AUDv</text></g>
<g><text stroke-width="1.3333333333333335" stroke="#666" x="67.765625" y="393.26658365668567">ECT</text>
<text x="67.765625" y="393.26658365668567">ECT</text></g>
<g><text stroke-width="1.3333333333333335" stroke="#666" x="87.53050051184454" y="366.03047827553803">PERI</text>
<text x="87.53050051184454" y="366.03047827553803">PERI</text></g>
<g><text stroke-width="1.3333333333333335" stroke="#666" x="568.499178944513" y="418.9945268678107">ILA</text>
<text x="568.499178944513" y="418.9945268678107">ILA</text></g>
<g><text stroke-width="1.3333333333333335" stroke="#666" x="569.6803476193111" y="436.6803476193111">ORBm</text>
<text x="569.6803476193111" y="436.6803476193111">ORBm</text></g>
</g></svg>