<svg xmlns="http://www.w3.org/2000/svg" xmlns:xlink="http://www.w3.org/1999/xlink" height="1360" width="2720"><g/><g id="#008040,723,ORBl,Orbital%20area%2C%20lateral%20part" fill="none" stroke="#008040" stroke-width="5"><path d=" M821 250 C843.782,250 866.115,244.308 887.5,255 L926,260 C926,255.716 890.708,212.917 886,203.5 864.112,159.724 854,128.825 854,81 854,81 817.5,70 817.5,70 817.5,70 706.5,116 706.5,116 706.5,116 664,132 664,132 664,132 667,142.5 667,142.5 662.462,151.577 661.186,157.871 666,167.5 669.087,173.674 698,171.447 698,182 709.215,182 759.484,206.984 767.5,215 767.5,215 786,228 786,228 786,228 821,250 821,250  Z"/><path d=" M1899 250 C1876.22,250 1853.88,244.308 1832.5,255 L1794,260 C1794,255.716 1829.29,212.917 1834,203.5 1855.89,159.724 1866,128.825 1866,81 1866,81 1902.5,70 1902.5,70 1902.5,70 2013.5,116 2013.5,116 2013.5,116 2056,132 2056,132 2056,132 2053,142.5 2053,142.5 2057.54,151.577 2058.81,157.871 2054,167.5 2050.91,173.674 2022,171.447 2022,182 2010.79,182 1960.52,206.984 1952.5,215 1952.5,215 1934,228 1934,228 1934,228 1899,250 1899,250  Z"/></g><g id="#808040,746,ORBvl,Orbital%20area%2C%20ventrolateral%20part" fill="none" stroke="#808040" stroke-width="5"><path d=" M987 244 C968.962,244 948.446,260 926,260 926,255.716 890.708,212.917 886,203.5 864.112,159.724 854,128.825 854,81 854,81 874.5,78 874.5,78 874.5,78 895.5,70 895.5,70 895.5,70 1014,194 1014,194 1014,194 997,201.5 997,201.5 997,201.5 989,243 989,243 989,243 988,243 988,243 988,243 987,244 987,244  Z"/><path d=" M1733 244 C1751.04,244 1771.55,260 1794,260 1794,255.716 1829.29,212.917 1834,203.5 1855.89,159.724 1866,128.825 1866,81 1866,81 1845.5,78 1845.5,78 1845.5,78 1824.5,70 1824.5,70 1824.5,70 1706,194 1706,194 1706,194 1723,201.5 1723,201.5 1723,201.5 1731,243 1731,243 1731,243 1732,243 1732,243 1732,243 1733,244 1733,244  Z"/></g><g id="#804000,119,AIv,Agranular%20insular%20area%2C%20ventral%20part" fill="none" stroke="#804000" stroke-width="5"><path d=" M338 350 L358,377 C358,377 403.5,337 403.5,337 403.5,337 432.5,313 432.5,313 465.1,296.7 494.581,257.459 529.5,240 529.5,240 589.5,214 589.5,214 589.5,214 655.5,195 655.5,195 655.5,195 698,182 698,182 698,171.447 669.087,173.674 666,167.5 661.186,157.871 662.462,151.577 667,142.5 667,142.5 664,132 664,132 664,132 600.5,161 600.5,161 600.5,161 567.5,172 567.5,172 567.5,172 505.5,206 505.5,206 484.143,216.678 459.87,238.815 441.5,248 441.5,248 401,285.5 401,285.5 401,285.5 338,350 338,350  Z"/><path d=" M2382 350 L2362,377 C2362,377 2316.5,337 2316.5,337 2316.5,337 2287.5,313 2287.5,313 2254.9,296.7 2225.42,257.459 2190.5,240 2190.5,240 2130.5,214 2130.5,214 2130.5,214 2064.5,195 2064.5,195 2064.5,195 2022,182 2022,182 2022,171.447 2050.91,173.674 2054,167.5 2058.81,157.871 2057.54,151.577 2053,142.5 2053,142.5 2056,132 2056,132 2056,132 2119.5,161 2119.5,161 2119.5,161 2152.5,172 2152.5,172 2152.5,172 2214.5,206 2214.5,206 2235.86,216.678 2260.13,238.815 2278.5,248 2278.5,248 2319,285.5 2319,285.5 2319,285.5 2382,350 2382,350  Z"/></g><g id="#004000,104,AId,Agranular%20insular%20area%2C%20dorsal%20part" fill="none" stroke="#004000" stroke-width="5"><path d=" M358 377 L375,404 C399.754,404 464.304,364.098 490.5,351 490.5,351 512,340 512,340 512,340 547.5,319 547.5,319 547.5,319 636,286 636,286 636,286 646.5,283 646.5,283 646.5,283 680.5,278 680.5,278 708.585,263.957 753.054,281.391 773,241.5 773,241.5 786,228 786,228 786,228 767.5,215 767.5,215 759.484,206.984 709.215,182 698,182 698,182 655.5,195 655.5,195 655.5,195 589.5,214 589.5,214 589.5,214 529.5,240 529.5,240 494.581,257.459 465.1,296.7 432.5,313 432.5,313 403.5,337 403.5,337 403.5,337 358,377 358,377  Z"/><path d=" M2362 377 L2345,404 C2320.25,404 2255.7,364.098 2229.5,351 2229.5,351 2208,340 2208,340 2208,340 2172.5,319 2172.5,319 2172.5,319 2084,286 2084,286 2084,286 2073.5,283 2073.5,283 2073.5,283 2039.5,278 2039.5,278 2011.41,263.957 1966.95,281.391 1947,241.5 1947,241.5 1934,228 1934,228 1934,228 1952.5,215 1952.5,215 1960.52,206.984 2010.79,182 2022,182 2022,182 2064.5,195 2064.5,195 2064.5,195 2130.5,214 2130.5,214 2130.5,214 2190.5,240 2190.5,240 2225.42,257.459 2254.9,296.7 2287.5,313 2287.5,313 2316.5,337 2316.5,337 2316.5,337 2362,377 2362,377  Z"/></g><g id="#408040,731,ORBm,Orbital%20area%2C%20medial%20part" fill="none" stroke="#408040" stroke-width="5"><path d=" M1042 293 C1059.42,293 1111.62,339.561 1130.5,349 L1164,373 C1164,373 1140,345.5 1140,345.5 1128.62,322.744 1098,301.712 1098,276 1098,276 1014,194 1014,194 1014,194 997,201.5 997,201.5 997,201.5 989,243 989,243 989,243 1011.5,237 1011.5,237 1028.64,245.572 1042,274.518 1042,293  Z"/><path d=" M1678 293 C1660.58,293 1608.38,339.561 1589.5,349 L1556,373 C1556,373 1580,345.5 1580,345.5 1591.38,322.744 1622,301.712 1622,276 1622,276 1706,194 1706,194 1706,194 1723,201.5 1723,201.5 1723,201.5 1731,243 1731,243 1731,243 1708.5,237 1708.5,237 1691.36,245.572 1678,274.518 1678,293  Z"/><path d=" M988 243 L987,244 C987,244 988,243 988,243  Z"/><path d=" M1732 243 L1733,244 C1733,244 1732,243 1732,243  Z"/></g><g id="#800080,993,MOs,Secondary%20motor%20area" fill="none" stroke="#800080" stroke-width="5"><path d=" M926 826 L953,829 C953,829 1013,821 1013,821 1013,781.819 1029,744.28 1029,707.5 1029,707.5 1035,666.5 1035,666.5 1035,666.5 1034,605.5 1034,605.5 1034,605.5 1034,555.5 1034,555.5 1034,555.5 1033,524.5 1033,524.5 1042.33,505.837 1025,430.404 1025,411 1025,411 1017.5,409 1017.5,409 1017.5,409 1002,393.5 1002,393.5 1002,393.5 970,338 970,338 918.968,338 845.078,330.655 820,280.5 815.115,270.731 821,259.714 821,250 821,250 786,228 786,228 786,228 773,241.5 773,241.5 753.054,281.391 708.585,263.957 680.5,278 680.5,278 646.5,283 646.5,283 646.5,283 636,286 636,286 636,298.192 650.88,310.26 656,320.5 672.957,354.414 706.343,381.186 722,412.5 722,412.5 756,451.5 756,451.5 756,451.5 879,620.5 879,620.5 893.634,649.768 902.555,681.611 917,710.5 917,710.5 929,765.5 929,765.5 929,765.5 926,826 926,826  Z"/><path d=" M1794 826 L1767,829 C1767,829 1707,821 1707,821 1707,781.819 1691,744.28 1691,707.5 1691,707.5 1685,666.5 1685,666.5 1685,666.5 1686,605.5 1686,605.5 1686,605.5 1686,555.5 1686,555.5 1686,555.5 1687,524.5 1687,524.5 1677.67,505.837 1695,430.404 1695,411 1695,411 1702.5,409 1702.5,409 1702.5,409 1718,393.5 1718,393.5 1718,393.5 1750,338 1750,338 1801.03,338 1874.92,330.655 1900,280.5 1904.88,270.731 1899,259.714 1899,250 1899,250 1934,228 1934,228 1934,228 1947,241.5 1947,241.5 1966.95,281.391 2011.41,263.957 2039.5,278 2039.5,278 2073.5,283 2073.5,283 2073.5,283 2084,286 2084,286 2084,298.192 2069.12,310.26 2064,320.5 2047.04,354.414 2013.66,381.186 1998,412.5 1998,412.5 1964,451.5 1964,451.5 1964,451.5 1841,620.5 1841,620.5 1826.37,649.768 1817.44,681.611 1803,710.5 1803,710.5 1791,765.5 1791,765.5 1791,765.5 1794,826 1794,826  Z"/></g><g id="#c04000,184,FRP,Frontal%20pole%2C%20cerebral%20cortex" fill="none" stroke="#c04000" stroke-width="5"><path d=" M1042 293 L1021.5,310 C1006.3,317.601 988.365,338 970,338 918.968,338 845.078,330.655 820,280.5 815.115,270.731 821,259.714 821,250 843.782,250 866.115,244.308 887.5,255 887.5,255 926,260 926,260 948.446,260 968.962,244 987,244 987,244 988,243 988,243 988,243 989,243 989,243 989,243 1011.5,237 1011.5,237 1028.64,245.572 1042,274.518 1042,293  Z"/><path d=" M1678 293 L1698.5,310 C1713.7,317.601 1731.64,338 1750,338 1801.03,338 1874.92,330.655 1900,280.5 1904.88,270.731 1899,259.714 1899,250 1876.22,250 1853.88,244.308 1832.5,255 1832.5,255 1794,260 1794,260 1771.55,260 1751.04,244 1733,244 1733,244 1732,243 1732,243 1732,243 1731,243 1731,243 1731,243 1708.5,237 1708.5,237 1691.36,245.572 1678,274.518 1678,293  Z"/></g><g id="#800000,44,ILA,Infralimbic%20area" fill="none" stroke="#800000" stroke-width="5"><path d=" M1226 427 L1238,446.5 L1207,487 C1207,487 1205,452.5 1205,452.5 1195.35,433.2 1189.78,411.055 1180,391.5 1180,391.5 1164,373 1164,373 1164,373 1140,345.5 1140,345.5 1128.62,322.744 1098,301.712 1098,276 1098,276 1226,427 1226,427  Z"/><path d=" M1494 427 L1482,446.5 L1513,487 C1513,487 1515,452.5 1515,452.5 1524.65,433.2 1530.22,411.055 1540,391.5 1540,391.5 1556,373 1556,373 1556,373 1580,345.5 1580,345.5 1591.38,322.744 1622,301.712 1622,276 1622,276 1494,427 1494,427  Z"/></g><g id="#400080,985,MOp,Primary%20motor%20area" fill="none" stroke="#400080" stroke-width="5"><path d=" M889 823 L926,826 C926,826 929,765.5 929,765.5 929,765.5 917,710.5 917,710.5 902.555,681.611 893.634,649.768 879,620.5 879,620.5 756,451.5 756,451.5 756,451.5 722,412.5 722,412.5 706.343,381.186 672.957,354.414 656,320.5 650.88,310.26 636,298.192 636,286 636,286 547.5,319 547.5,319 547.5,319 512,340 512,340 512,340 537,376 537,376 537,386.44 574.35,409.2 579,418.5 579,418.5 604,444.5 604,444.5 604,444.5 671,526.5 671,526.5 671,526.5 693,552 693,552 693,552 715.5,575 715.5,575 729.46,581.98 767.211,632.921 775,648.5 775,648.5 790,670 790,670 790,670 817,706.5 817,706.5 834.297,741.093 883,772.706 883,814 883,814 889,823 889,823  Z"/><path d=" M1831 823 L1794,826 C1794,826 1791,765.5 1791,765.5 1791,765.5 1803,710.5 1803,710.5 1817.44,681.611 1826.37,649.768 1841,620.5 1841,620.5 1964,451.5 1964,451.5 1964,451.5 1998,412.5 1998,412.5 2013.66,381.186 2047.04,354.414 2064,320.5 2069.12,310.26 2084,298.192 2084,286 2084,286 2172.5,319 2172.5,319 2172.5,319 2208,340 2208,340 2208,340 2183,376 2183,376 2183,386.44 2145.65,409.2 2141,418.5 2141,418.5 2116,444.5 2116,444.5 2116,444.5 2049,526.5 2049,526.5 2049,526.5 2027,552 2027,552 2027,552 2004.5,575 2004.5,575 1990.54,581.98 1952.79,632.921 1945,648.5 1945,648.5 1930,670 1930,670 1930,670 1903,706.5 1903,706.5 1885.7,741.093 1837,772.706 1837,814 1837,814 1831,823 1831,823  Z"/></g><g id="#000080,972,PL,Prelimbic%20area" fill="none" stroke="#000080" stroke-width="5"><path d=" M1207 487 L1187,511.5 C1176.76,531.987 1148.95,553 1127,553 1127,552.401 1107.26,517.02 1105,512.5 1087.42,477.336 1081.68,438.09 1043.5,419 1043.5,419 1025,411 1025,411 1025,411 1017.5,409 1017.5,409 1017.5,409 1002,393.5 1002,393.5 1002,393.5 970,338 970,338 988.365,338 1006.3,317.601 1021.5,310 1021.5,310 1042,293 1042,293 1059.42,293 1111.62,339.561 1130.5,349 1130.5,349 1164,373 1164,373 1164,373 1180,391.5 1180,391.5 1189.78,411.055 1195.35,433.2 1205,452.5 1205,452.5 1207,487 1207,487  Z"/><path d=" M1513 487 L1533,511.5 C1543.24,531.987 1571.05,553 1593,553 1593,552.401 1612.74,517.02 1615,512.5 1632.58,477.336 1638.32,438.09 1676.5,419 1676.5,419 1695,411 1695,411 1695,411 1702.5,409 1702.5,409 1702.5,409 1718,393.5 1718,393.5 1718,393.5 1750,338 1750,338 1731.64,338 1713.7,317.601 1698.5,310 1698.5,310 1678,293 1678,293 1660.58,293 1608.38,339.561 1589.5,349 1589.5,349 1556,373 1556,373 1556,373 1540,391.5 1540,391.5 1530.22,411.055 1524.65,433.2 1515,452.5 1515,452.5 1513,487 1513,487  Z"/></g><g id="#c04080,1057,GU,Gustatory%20areas" fill="none" stroke="#c04080" stroke-width="5"><path d=" M397 459 L361.5,477 C333.603,490.949 310.523,511 277,511 277,490.941 337.555,446.391 347,427.5 347,427.5 375,404 375,404 399.754,404 464.304,364.098 490.5,351 490.5,351 512,340 512,340 512,340 537,376 537,376 537,376 473.5,414 473.5,414 473.5,414 456,427 456,427 439.978,427 405.516,459 397,459  Z"/><path d=" M2323 459 L2358.5,477 C2386.4,490.949 2409.48,511 2443,511 2443,490.941 2382.45,446.391 2373,427.5 2373,427.5 2345,404 2345,404 2320.25,404 2255.7,364.098 2229.5,351 2229.5,351 2208,340 2208,340 2208,340 2183,376 2183,376 2183,376 2246.5,414 2246.5,414 2246.5,414 2264,427 2264,427 2280.02,427 2314.48,459 2323,459  Z"/></g><g id="#404000,111,AIp,Agranular%20insular%20area%2C%20posterior%20part" fill="none" stroke="#404000" stroke-width="5"><path d=" M200 643 L213,651 C213,651 218,636.5 218,636.5 218,636.5 231,588.5 231,588.5 231,588.5 257,541.5 257,541.5 257,541.5 277,511 277,511 277,490.941 337.555,446.391 347,427.5 347,427.5 375,404 375,404 375,404 358,377 358,377 358,377 338,350 338,350 338,350 282.5,401 282.5,401 266.421,409.039 244.791,432.918 237,448.5 229.102,464.297 194.723,482.053 185,501.5 167.068,537.365 158,568.578 158,608 158,608 200,643 200,643  Z"/><path d=" M2520 643 L2507,651 C2507,651 2502,636.5 2502,636.5 2502,636.5 2489,588.5 2489,588.5 2489,588.5 2463,541.5 2463,541.5 2463,541.5 2443,511 2443,511 2443,490.941 2382.45,446.391 2373,427.5 2373,427.5 2345,404 2345,404 2345,404 2362,377 2362,377 2362,377 2382,350 2382,350 2382,350 2437.5,401 2437.5,401 2453.58,409.039 2475.21,432.918 2483,448.5 2490.9,464.297 2525.28,482.053 2535,501.5 2552.93,537.365 2562,568.578 2562,608 2562,608 2520,643 2520,643  Z"/></g><g id="#808000,345,SSp-m,Primary%20somatosensory%20area%2C%20mouth" fill="none" stroke="#808000" stroke-width="5"><path d=" M679 621 L667.5,640 C658.379,644.561 651.537,639 643,639 643,639 622.5,627 622.5,627 617.811,624.655 608.575,625.038 602.5,622 602.5,622 473,597 473,597 467.136,597 471.458,568.416 470,565.5 461.833,549.166 483.792,490.916 492,474.5 501.379,455.742 456,435.317 456,427 456,427 473.5,414 473.5,414 473.5,414 537,376 537,376 537,386.44 574.35,409.2 579,418.5 579,418.5 604,444.5 604,444.5 604,444.5 671,526.5 671,526.5 671,526.5 693,552 693,552 693,552 679,621 679,621  Z"/><path d=" M2041 621 L2052.5,640 C2061.62,644.561 2068.46,639 2077,639 2077,639 2097.5,627 2097.5,627 2102.19,624.655 2111.42,625.038 2117.5,622 2117.5,622 2247,597 2247,597 2252.86,597 2248.54,568.416 2250,565.5 2258.17,549.166 2236.21,490.916 2228,474.5 2218.62,455.742 2264,435.317 2264,427 2264,427 2246.5,414 2246.5,414 2246.5,414 2183,376 2183,376 2183,386.44 2145.65,409.2 2141,418.5 2141,418.5 2116,444.5 2116,444.5 2116,444.5 2049,526.5 2049,526.5 2049,526.5 2027,552 2027,552 2027,552 2041,621 2041,621  Z"/></g><g id="#400000,39,ACAd,Anterior%20cingulate%20area%2C%20dorsal%20part" fill="none" stroke="#400000" stroke-width="5"><path d=" M1057 814 L1013,821 C1013,781.819 1029,744.28 1029,707.5 1029,707.5 1035,666.5 1035,666.5 1035,666.5 1034,605.5 1034,605.5 1034,605.5 1034,555.5 1034,555.5 1034,555.5 1033,524.5 1033,524.5 1042.33,505.837 1025,430.404 1025,411 1025,411 1043.5,419 1043.5,419 1081.68,438.09 1087.42,477.336 1105,512.5 1107.26,517.02 1127,552.401 1127,553 1127,553 1071,810 1071,810 1071,810 1057,814 1057,814  Z"/><path d=" M1663 814 L1707,821 C1707,781.819 1691,744.28 1691,707.5 1691,707.5 1685,666.5 1685,666.5 1685,666.5 1686,605.5 1686,605.5 1686,605.5 1686,555.5 1686,555.5 1686,555.5 1687,524.5 1687,524.5 1677.67,505.837 1695,430.404 1695,411 1695,411 1676.5,419 1676.5,419 1638.32,438.09 1632.58,477.336 1615,512.5 1612.74,517.02 1593,552.401 1593,553 1593,553 1649,810 1649,810 1649,810 1663,814 1663,814  Z"/></g><g id="#80c000,378,SSs,Supplemental%20somatosensory%20area" fill="none" stroke="#80c000" stroke-width="5"><path d=" M517 913 L501,915 C493.41,915 478.065,875.63 475,869.5 464.568,848.635 432.295,783.397 411.5,773 401.514,768.007 392.718,749 379,749 379,749 306,716 306,716 306,716 305,713 305,713 305,713 305,670 305,670 305,649.893 303.573,603.354 313,584.5 313,584.5 330,543.5 330,543.5 330,543.5 368,490.5 368,490.5 368,490.5 397,459 397,459 405.516,459 439.978,427 456,427 456,435.317 501.379,455.742 492,474.5 483.792,490.916 461.833,549.166 470,565.5 471.458,568.416 467.136,597 473,597 473,633.678 478,668.949 478,707 478,707 480,725.5 480,725.5 480,725.5 495,780.5 495,780.5 495,780.5 525,865.5 525,865.5 530.649,876.798 517,901.071 517,913  Z"/><path d=" M2203 913 L2219,915 C2226.59,915 2241.94,875.63 2245,869.5 2255.43,848.635 2287.71,783.397 2308.5,773 2318.49,768.007 2327.28,749 2341,749 2341,749 2414,716 2414,716 2414,716 2415,713 2415,713 2415,713 2415,670 2415,670 2415,649.893 2416.43,603.354 2407,584.5 2407,584.5 2390,543.5 2390,543.5 2390,543.5 2352,490.5 2352,490.5 2352,490.5 2323,459 2323,459 2314.48,459 2280.02,427 2264,427 2264,435.317 2218.62,455.742 2228,474.5 2236.21,490.916 2258.17,549.166 2250,565.5 2248.54,568.416 2252.86,597 2247,597 2247,633.678 2242,668.949 2242,707 2242,707 2240,725.5 2240,725.5 2240,725.5 2225,780.5 2225,780.5 2225,780.5 2195,865.5 2195,865.5 2189.35,876.798 2203,901.071 2203,913  Z"/></g><g id="#c00000,48,ACAv,Anterior%20cingulate%20area%2C%20ventral%20part" fill="none" stroke="#c00000" stroke-width="5"><path d=" M1071 810 L1134.5,799 L1139,825 C1139,825 1147,808.5 1147,808.5 1158.73,785.033 1158.9,752.709 1168,734.5 1168,734.5 1184,672.5 1184,672.5 1184,672.5 1204,603.5 1204,603.5 1204,603.5 1209,574.5 1209,574.5 1209,574.5 1221,538.5 1221,538.5 1221,538.5 1245,491.5 1245,491.5 1246.36,488.776 1246.16,448.827 1246,448.5 1246,448.5 1226,427 1226,427 1226,427 1238,446.5 1238,446.5 1238,446.5 1207,487 1207,487 1207,487 1187,511.5 1187,511.5 1176.76,531.987 1148.95,553 1127,553 1127,553 1071,810 1071,810  Z"/><path d=" M1649 810 L1585.5,799 L1581,825 C1581,825 1573,808.5 1573,808.5 1561.27,785.033 1561.1,752.709 1552,734.5 1552,734.5 1536,672.5 1536,672.5 1536,672.5 1516,603.5 1516,603.5 1516,603.5 1511,574.5 1511,574.5 1511,574.5 1499,538.5 1499,538.5 1499,538.5 1475,491.5 1475,491.5 1473.64,488.776 1473.84,448.827 1474,448.5 1474,448.5 1494,427 1494,427 1494,427 1482,446.5 1482,446.5 1482,446.5 1513,487 1513,487 1513,487 1533,511.5 1533,511.5 1543.24,531.987 1571.05,553 1593,553 1593,553 1649,810 1649,810  Z"/></g><g id="#c04040,677,VISC,Visceral%20area" fill="none" stroke="#c04040" stroke-width="5"><path d=" M240 671 L305,713 C305,713 305,670 305,670 305,649.893 303.573,603.354 313,584.5 313,584.5 330,543.5 330,543.5 330,543.5 368,490.5 368,490.5 368,490.5 397,459 397,459 397,459 361.5,477 361.5,477 333.603,490.949 310.523,511 277,511 277,511 257,541.5 257,541.5 257,541.5 231,588.5 231,588.5 231,588.5 218,636.5 218,636.5 218,636.5 213,651 213,651 213,651 240,671 240,671  Z"/><path d=" M2480 671 L2415,713 C2415,713 2415,670 2415,670 2415,649.893 2416.43,603.354 2407,584.5 2407,584.5 2390,543.5 2390,543.5 2390,543.5 2352,490.5 2352,490.5 2352,490.5 2323,459 2323,459 2323,459 2358.5,477 2358.5,477 2386.4,490.949 2409.48,511 2443,511 2443,511 2463,541.5 2463,541.5 2463,541.5 2489,588.5 2489,588.5 2489,588.5 2502,636.5 2502,636.5 2502,636.5 2507,651 2507,651 2507,651 2480,671 2480,671  Z"/></g><g id="#40c000,369,SSp-ul,Primary%20somatosensory%20area%2C%20upper%20limb" fill="none" stroke="#40c000" stroke-width="5"><path d=" M767 840 L732,843 C732,843 702,751.5 702,751.5 685.948,719.396 679,659.759 679,621 679,621 693,552 693,552 693,552 715.5,575 715.5,575 729.46,581.98 767.211,632.921 775,648.5 775,648.5 790,670 790,670 790,670 788,718.5 788,718.5 788,718.5 753,767.5 753,767.5 744.933,783.633 767,821.195 767,840  Z"/><path d=" M1953 840 L1988,843 C1988,843 2018,751.5 2018,751.5 2034.05,719.396 2041,659.759 2041,621 2041,621 2027,552 2027,552 2027,552 2004.5,575 2004.5,575 1990.54,581.98 1952.79,632.921 1945,648.5 1945,648.5 1930,670 1930,670 1930,670 1932,718.5 1932,718.5 1932,718.5 1967,767.5 1967,767.5 1975.07,783.633 1953,821.195 1953,840  Z"/></g><g id="#c08000,353,SSp-n,Primary%20somatosensory%20area%2C%20nose" fill="none" stroke="#c08000" stroke-width="5"><path d=" M478 707 L560.5,716 L598.5,718 L627.5,715 L636,712 C636,712 650,683.5 650,683.5 650,683.5 643,639 643,639 643,639 622.5,627 622.5,627 617.811,624.655 608.575,625.038 602.5,622 602.5,622 473,597 473,597 473,633.678 478,668.949 478,707  Z"/><path d=" M2242 707 L2159.5,716 L2121.5,718 L2092.5,715 L2084,712 C2084,712 2070,683.5 2070,683.5 2070,683.5 2077,639 2077,639 2077,639 2097.5,627 2097.5,627 2102.19,624.655 2111.42,625.038 2117.5,622 2117.5,622 2247,597 2247,597 2247,633.678 2242,668.949 2242,707  Z"/></g><g id="#c0c040,922,PERI,Perirhinal%20area" fill="none" stroke="#c0c040" stroke-width="5"><path d=" M207 1001 L232,1002 C232,1002 200,958.5 200,958.5 194.929,948.357 185.011,935.523 179,923.5 179,923.5 165,874.5 165,874.5 165,874.5 163,831.5 163,831.5 163,831.5 165,795 165,795 165,772.626 177.943,695.614 187,677.5 187,677.5 200,643 200,643 200,643 158,608 158,608 158,608 161,619.5 161,619.5 161,635.54 153.289,701.922 148,712.5 148,712.5 141,758.5 141,758.5 137.272,765.957 125.031,819.562 129,827.5 129,827.5 133,867.5 133,867.5 138.775,879.05 160,907.292 160,919.5 160,931.251 183.74,974.24 193.5,984 193.5,984 207,1001 207,1001  Z"/><path d=" M2513 1001 L2488,1002 C2488,1002 2520,958.5 2520,958.5 2525.07,948.357 2534.99,935.523 2541,923.5 2541,923.5 2555,874.5 2555,874.5 2555,874.5 2557,831.5 2557,831.5 2557,831.5 2555,795 2555,795 2555,772.626 2542.06,695.614 2533,677.5 2533,677.5 2520,643 2520,643 2520,643 2562,608 2562,608 2562,608 2559,619.5 2559,619.5 2559,635.54 2566.71,701.922 2572,712.5 2572,712.5 2579,758.5 2579,758.5 2582.74,765.982 2594.99,819.517 2591,827.5 2591,827.5 2587,867.5 2587,867.5 2581.23,879.05 2560,907.292 2560,919.5 2560,931.251 2536.26,974.24 2526.5,984 2526.5,984 2513,1001 2513,1001  Z"/></g><g id="#008080,182305689,SSp-un,Primary%20somatosensory%20area%2C%20unassigned" fill="none" stroke="#008080" stroke-width="5"><path d=" M732 843 L704,847 C704,847 699,805.5 699,805.5 687.409,782.317 672.213,712 636,712 636,712 650,683.5 650,683.5 650,683.5 643,639 643,639 651.537,639 658.379,644.561 667.5,640 667.5,640 679,621 679,621 679,659.759 685.948,719.396 702,751.5 702,751.5 732,843 732,843  Z"/><path d=" M1988 843 L2016,847 C2016,847 2021,805.5 2021,805.5 2032.59,782.317 2047.79,712 2084,712 2084,712 2070,683.5 2070,683.5 2070,683.5 2077,639 2077,639 2068.46,639 2061.62,644.561 2052.5,640 2052.5,640 2041,621 2041,621 2041,659.759 2034.05,719.396 2018,751.5 2018,751.5 1988,843 1988,843  Z"/></g><g id="#80c040,895,ECT,Ectorhinal%20area" fill="none" stroke="#80c040" stroke-width="5"><path d=" M258 999 L232,1002 C232,1002 200,958.5 200,958.5 194.929,948.357 185.011,935.523 179,923.5 179,923.5 165,874.5 165,874.5 165,874.5 163,831.5 163,831.5 163,831.5 165,795 165,795 165,772.626 177.943,695.614 187,677.5 187,677.5 200,643 200,643 200,643 213,651 213,651 213,651 240,671 240,671 240,671 230,687.5 230,687.5 230,687.5 214,722.5 214,722.5 214,722.5 209,751.5 209,751.5 191.276,786.948 202.423,898.346 219,931.5 219,931.5 258,999 258,999  Z"/><path d=" M2462 999 L2488,1002 C2488,1002 2520,958.5 2520,958.5 2525.07,948.357 2534.99,935.523 2541,923.5 2541,923.5 2555,874.5 2555,874.5 2555,874.5 2557,831.5 2557,831.5 2557,831.5 2555,795 2555,795 2555,772.626 2542.06,695.614 2533,677.5 2533,677.5 2520,643 2520,643 2520,643 2507,651 2507,651 2507,651 2480,671 2480,671 2480,671 2490,687.5 2490,687.5 2490,687.5 2506,722.5 2506,722.5 2506,722.5 2511,751.5 2511,751.5 2528.72,786.948 2517.58,898.346 2501,931.5 2501,931.5 2462,999 2462,999  Z"/></g><g id="#408000,337,SSp-ll,Primary%20somatosensory%20area%2C%20lower%20limb" fill="none" stroke="#408000" stroke-width="5"><path d=" M883 814 L847.5,828 C826.878,838.311 789.954,840 767,840 767,821.195 744.933,783.633 753,767.5 753,767.5 788,718.5 788,718.5 788,718.5 790,670 790,670 790,670 817,706.5 817,706.5 834.297,741.093 883,772.706 883,814  Z"/><path d=" M1837 814 L1872.5,828 C1893.12,838.311 1930.05,840 1953,840 1953,821.195 1975.07,783.633 1967,767.5 1967,767.5 1932,718.5 1932,718.5 1932,718.5 1930,670 1930,670 1930,670 1903,706.5 1903,706.5 1885.7,741.093 1837,772.706 1837,814  Z"/></g><g id="#804040,541,TEa,Temporal%20association%20areas" fill="none" stroke="#804040" stroke-width="5"><path d=" M258 999 L400,1025 C404.592,1025 436.472,974 448,974 448,974 451,966 451,966 451,966 436,962 436,962 436,962 390.5,963 390.5,963 390.5,963 341.5,959 341.5,959 341.5,959 308,946 308,946 282.237,946 267.284,916.068 258,897.5 238.761,859.023 246.489,803.523 265,766.5 265,766.5 290,731.5 290,731.5 290,731.5 306,716 306,716 306,716 305,713 305,713 305,713 240,671 240,671 240,671 230,687.5 230,687.5 230,687.5 214,722.5 214,722.5 214,722.5 209,751.5 209,751.5 191.276,786.948 202.423,898.346 219,931.5 219,931.5 258,999 258,999  Z"/><path d=" M2462 999 L2320,1025 C2315.41,1025 2283.53,974 2272,974 2272,974 2269,966 2269,966 2269,966 2284,962 2284,962 2284,962 2329.5,963 2329.5,963 2329.5,963 2378.5,959 2378.5,959 2378.5,959 2412,946 2412,946 2437.76,946 2452.72,916.068 2462,897.5 2481.24,859.023 2473.51,803.523 2455,766.5 2455,766.5 2430,731.5 2430,731.5 2430,731.5 2414,716 2414,716 2414,716 2415,713 2415,713 2415,713 2480,671 2480,671 2480,671 2490,687.5 2490,687.5 2490,687.5 2506,722.5 2506,722.5 2506,722.5 2511,751.5 2511,751.5 2528.72,786.948 2517.58,898.346 2501,931.5 2501,931.5 2462,999 2462,999  Z"/></g><g id="#008000,329,SSp-bfd,Primary%20somatosensory%20area%2C%20barrel%20field" fill="none" stroke="#008000" stroke-width="5"><path d=" M517 913 L536,922 C559.052,922 614.338,922.581 633.5,913 633.5,913 687,892 687,892 687,892 693,883 693,883 693,870.637 704,857.927 704,847 704,847 699,805.5 699,805.5 687.409,782.317 672.213,712 636,712 636,712 627.5,715 627.5,715 627.5,715 598.5,718 598.5,718 598.5,718 560.5,716 560.5,716 560.5,716 478,707 478,707 478,707 480,725.5 480,725.5 480,725.5 495,780.5 495,780.5 495,780.5 525,865.5 525,865.5 530.649,876.798 517,901.071 517,913  Z"/><path d=" M2203 913 L2184,922 C2160.95,922 2105.66,922.581 2086.5,913 2086.5,913 2033,892 2033,892 2033,892 2027,883 2027,883 2027,870.637 2016,857.927 2016,847 2016,847 2021,805.5 2021,805.5 2032.59,782.317 2047.79,712 2084,712 2084,712 2092.5,715 2092.5,715 2092.5,715 2121.5,718 2121.5,718 2121.5,718 2159.5,716 2159.5,716 2159.5,716 2242,707 2242,707 2242,707 2240,725.5 2240,725.5 2240,725.5 2225,780.5 2225,780.5 2225,780.5 2195,865.5 2195,865.5 2189.35,876.798 2203,901.071 2203,913  Z"/></g><g id="#404080,1018,AUDv,Ventral%20auditory%20area" fill="none" stroke="#404080" stroke-width="5"><path d=" M330 936 C330,943.293 308,942.17 308,946 282.237,946 267.284,916.068 258,897.5 238.761,859.023 246.489,803.523 265,766.5 265,766.5 290,731.5 290,731.5 290,731.5 306,716 306,716 306,716 379,749 379,749 379,749 366,780 366,780 356.987,780 345.894,769.803 335.5,775 286.717,799.391 289.381,863.262 312,908.5 312,908.5 330,936 330,936  Z"/><path d=" M2390 936 C2390,943.293 2412,942.17 2412,946 2437.76,946 2452.72,916.068 2462,897.5 2481.24,859.023 2473.51,803.523 2455,766.5 2455,766.5 2430,731.5 2430,731.5 2430,731.5 2414,716 2414,716 2414,716 2341,749 2341,749 2341,749 2354,780 2354,780 2363.01,780 2374.11,769.803 2384.5,775 2433.28,799.391 2430.62,863.262 2408,908.5 2408,908.5 2390,936 2390,936  Z"/></g><g id="#004080,1011,AUDd,Dorsal%20auditory%20area" fill="none" stroke="#004080" stroke-width="5"><path d=" M501 915 L475,935 C475,935 425,890 425,890 425,870.342 409.336,831.172 401,814.5 401,814.5 366,780 366,780 366,780 379,749 379,749 392.718,749 401.514,768.007 411.5,773 432.295,783.397 464.568,848.635 475,869.5 478.065,875.63 493.41,915 501,915  Z"/><path d=" M2219 915 L2245,935 C2245,935 2295,890 2295,890 2295,870.342 2310.66,831.172 2319,814.5 2319,814.5 2354,780 2354,780 2354,780 2341,749 2341,749 2327.28,749 2318.49,768.007 2308.5,773 2287.71,783.397 2255.43,848.635 2245,869.5 2241.94,875.63 2226.59,915 2219,915  Z"/></g><g id="#c00080,1002,AUDp,Primary%20auditory%20area" fill="none" stroke="#c00080" stroke-width="5"><path d=" M425 890 C425,938.927 368.856,936 330,936 330,936 312,908.5 312,908.5 289.381,863.262 286.717,799.391 335.5,775 345.894,769.803 356.987,780 366,780 366,780 401,814.5 401,814.5 409.336,831.172 425,870.342 425,890  Z"/><path d=" M2295 890 C2295,938.927 2351.14,936 2390,936 2390,936 2408,908.5 2408,908.5 2430.62,863.262 2433.28,799.391 2384.5,775 2374.11,769.803 2363.01,780 2354,780 2354,780 2319,814.5 2319,814.5 2310.66,831.172 2295,870.342 2295,890  Z"/></g><g id="#00c040,886,RSPv,Retrosplenial%20area%2C%20ventral%20part" fill="none" stroke="#00c040" stroke-width="5"><path d=" M1139 825 C1139,851.092 1122.27,891.958 1111,914.5 1106.41,923.676 1096.74,943.972 1103,956.5 L1111,982.5 L1142,1009.5 L1163,1034.5 L1179,1064.5 L1052.5,1184 L881,1342.5 C872.863,1350.64 845.527,1357.01 835.5,1352 L822,1348 C850.062,1348 896.709,1289.08 909,1264.5 909,1264.5 932,1216.5 932,1216.5 932,1216.5 934,1192.5 934,1192.5 934,1192.5 952,1114.5 952,1114.5 952,1114.5 954,1068.5 954,1068.5 954,1068.5 958,1038.5 958,1038.5 970.716,1013.07 969.101,958.298 984,928.5 998.793,898.915 1018.8,872.897 1034,842.5 1034,842.5 1057,814 1057,814 1057,814 1071,810 1071,810 1071,810 1134.5,799 1134.5,799 1134.5,799 1139,825 1139,825  Z"/><path d=" M1581 825 C1581,851.092 1597.73,891.958 1609,914.5 1613.59,923.676 1623.26,943.972 1617,956.5 L1609,982.5 L1578,1009.5 L1557,1034.5 L1541,1064.5 L1667.5,1184 L1839,1342.5 C1847.14,1350.64 1874.47,1357.01 1884.5,1352 L1898,1348 C1869.94,1348 1823.29,1289.08 1811,1264.5 1811,1264.5 1788,1216.5 1788,1216.5 1788,1216.5 1786,1192.5 1786,1192.5 1786,1192.5 1768,1114.5 1768,1114.5 1768,1114.5 1766,1068.5 1766,1068.5 1766,1068.5 1762,1038.5 1762,1038.5 1749.28,1013.07 1750.9,958.298 1736,928.5 1721.21,898.915 1701.2,872.897 1686,842.5 1686,842.5 1663,814 1663,814 1663,814 1649,810 1649,810 1649,810 1585.5,799 1585.5,799 1585.5,799 1581,825 1581,825  Z"/></g><g id="#00c000,361,SSp-tr,Primary%20somatosensory%20area%2C%20trunk" fill="none" stroke="#00c000" stroke-width="5"><path d=" M860 882 L833.5,888 L693,883 C693,870.637 704,857.927 704,847 704,847 732,843 732,843 732,843 767,840 767,840 789.954,840 826.878,838.311 847.5,828 847.5,828 883,814 883,814 883,814 889,823 889,823 889,840.652 860,871.747 860,882  Z"/><path d=" M1860 882 L1886.5,888 L2027,883 C2027,870.637 2016,857.927 2016,847 2016,847 1988,843 1988,843 1988,843 1953,840 1953,840 1930.05,840 1893.12,838.311 1872.5,828 1872.5,828 1837,814 1837,814 1837,814 1831,823 1831,823 1831,840.652 1860,871.747 1860,882  Z"/></g><g id="#c08040,879,RSPd,Retrosplenial%20area%2C%20dorsal%20part" fill="none" stroke="#c08040" stroke-width="5"><path d=" M565 1297 L595.5,1311 L647.5,1328 L691.5,1329 C711.478,1338.99 743.742,1331.12 761.5,1340 L776.5,1338 L822,1348 C850.062,1348 896.709,1289.08 909,1264.5 909,1264.5 932,1216.5 932,1216.5 932,1216.5 934,1192.5 934,1192.5 934,1192.5 952,1114.5 952,1114.5 952,1114.5 954,1068.5 954,1068.5 954,1068.5 958,1038.5 958,1038.5 970.716,1013.07 969.101,958.298 984,928.5 998.793,898.915 1018.8,872.897 1034,842.5 1034,842.5 1057,814 1057,814 1057,814 1013,821 1013,821 1013,821 953,829 953,829 953,829.968 918.315,859.871 915,866.5 915,866.5 893,897.5 893,897.5 893,897.5 867,963.5 867,963.5 867,963.5 858,1006.5 858,1006.5 858,1006.5 852,1038.5 852,1038.5 852,1038.5 848,1067.5 848,1067.5 840.394,1082.71 851.588,1100.32 844,1115.5 844,1115.5 840,1177.5 840,1177.5 840,1177.5 838,1189.5 838,1189.5 823.151,1219.2 812.037,1240.73 781.5,1256 772.062,1260.72 714.099,1287.8 706.5,1284 706.5,1284 677.5,1287 677.5,1287 654.862,1287 626.398,1286 604,1286 597.232,1286 565,1288.25 565,1297  Z"/><path d=" M2155 1297 L2124.5,1311 L2072.5,1328 L2028.5,1329 C2008.52,1338.99 1976.26,1331.12 1958.5,1340 L1943.5,1338 L1898,1348 C1869.94,1348 1823.29,1289.08 1811,1264.5 1811,1264.5 1788,1216.5 1788,1216.5 1788,1216.5 1786,1192.5 1786,1192.5 1786,1192.5 1768,1114.5 1768,1114.5 1768,1114.5 1766,1068.5 1766,1068.5 1766,1068.5 1762,1038.5 1762,1038.5 1749.28,1013.07 1750.9,958.298 1736,928.5 1721.21,898.915 1701.2,872.897 1686,842.5 1686,842.5 1663,814 1663,814 1663,814 1707,821 1707,821 1707,821 1767,829 1767,829 1767,829.968 1801.69,859.871 1805,866.5 1805,866.5 1827,897.5 1827,897.5 1827,897.5 1853,963.5 1853,963.5 1853,963.5 1862,1006.5 1862,1006.5 1862,1006.5 1868,1038.5 1868,1038.5 1868,1038.5 1872,1067.5 1872,1067.5 1879.61,1082.71 1868.41,1100.32 1876,1115.5 1876,1115.5 1880,1177.5 1880,1177.5 1880,1177.5 1882,1189.5 1882,1189.5 1896.85,1219.2 1907.96,1240.73 1938.5,1256 1947.94,1260.72 2005.9,1287.8 2013.5,1284 2013.5,1284 2042.5,1287 2042.5,1287 2065.14,1287 2093.6,1286 2116,1286 2122.77,1286 2155,1288.25 2155,1297  Z"/></g><g id="#40c040,894,RSPagl,Retrosplenial%20area%2C%20lateral%20agranular%20part" fill="none" stroke="#40c040" stroke-width="5"><path d=" M535 1247 L604,1286 C626.398,1286 654.862,1287 677.5,1287 677.5,1287 706.5,1284 706.5,1284 714.099,1287.8 772.062,1260.72 781.5,1256 812.037,1240.73 823.151,1219.2 838,1189.5 838,1189.5 840,1177.5 840,1177.5 840,1177.5 844,1115.5 844,1115.5 851.588,1100.32 840.394,1082.71 848,1067.5 848,1067.5 852,1038.5 852,1038.5 852,1038.5 858,1006.5 858,1006.5 858,1006.5 867,963.5 867,963.5 867,963.5 893,897.5 893,897.5 893,897.5 915,866.5 915,866.5 918.315,859.871 953,829.968 953,829 953,829 926,826 926,826 926,826 889,823 889,823 889,840.652 860,871.747 860,882 860,882 842,924 842,924 842,924 810,1028 810,1028 810,1028 786,1148.5 786,1148.5 786,1148.5 771,1184 771,1184 771,1194.43 743.781,1222.36 734.5,1227 728.337,1230.08 721.899,1237.3 714.5,1241 704.672,1245.91 669.887,1243.81 663.5,1247 639.264,1259.12 563.85,1247 535,1247  Z"/><path d=" M2183 1248 L2116,1286 C2093.6,1286 2065.14,1287 2042.5,1287 2042.5,1287 2013.5,1284 2013.5,1284 2005.9,1287.8 1947.94,1260.72 1938.5,1256 1907.96,1240.73 1896.85,1219.2 1882,1189.5 1882,1189.5 1880,1177.5 1880,1177.5 1880,1177.5 1876,1115.5 1876,1115.5 1868.41,1100.32 1879.61,1082.71 1872,1067.5 1872,1067.5 1868,1038.5 1868,1038.5 1868,1038.5 1862,1006.5 1862,1006.5 1862,1006.5 1853,963.5 1853,963.5 1853,963.5 1827,897.5 1827,897.5 1827,897.5 1805,866.5 1805,866.5 1801.69,859.871 1767,829.968 1767,829 1767,829 1794,826 1794,826 1794,826 1831,823 1831,823 1831,840.652 1860,871.747 1860,882 1860,882 1878,924 1878,924 1878,924 1910,1028 1910,1028 1910,1028 1934,1148.5 1934,1148.5 1934,1148.5 1949,1184 1949,1184 1949,1194.43 1976.22,1222.36 1985.5,1227 1991.66,1230.08 1998.1,1237.3 2005.5,1241 2015.33,1245.91 2050.11,1243.81 2056.5,1247 2079.05,1258.28 2154.89,1248 2183,1248  Z"/><path d=" M2185 1247 L2183,1248 C2183,1248 2185,1247 2185,1247  Z"/></g><g id="#408080,312782546,VISa,Anterior%20area" fill="none" stroke="#408080" stroke-width="5"><path d=" M685 951 L714,965 C739.486,965 778.496,951.502 801.5,940 801.5,940 842,924 842,924 842,924 860,882 860,882 860,882 833.5,888 833.5,888 833.5,888 693,883 693,883 693,883 687,892 687,892 687,912.48 685,931.634 685,951  Z"/><path d=" M2035 951 L2006,965 C1980.51,965 1941.5,951.502 1918.5,940 1918.5,940 1878,924 1878,924 1878,924 1860,882 1860,882 1860,882 1886.5,888 1886.5,888 1886.5,888 2027,883 2027,883 2027,883 2033,892 2033,892 2033,912.48 2035,931.634 2035,951  Z"/></g><g id="#804080,1027,AUDpo,Posterior%20auditory%20area" fill="none" stroke="#804080" stroke-width="5"><path d=" M308 946 L341.5,959 L390.5,963 L436,962 L451,966 C451,966 475,935 475,935 475,935 425,890 425,890 425,938.927 368.856,936 330,936 330,943.293 308,942.17 308,946  Z"/><path d=" M2412 946 L2378.5,959 L2329.5,963 L2284,962 L2269,966 C2269,966 2245,935 2245,935 2245,935 2295,890 2295,890 2295,938.927 2351.14,936 2390,936 2390,943.293 2412,942.17 2412,946  Z"/></g><g id="#c00040,417,VISrl,Rostrolateral%20visual%20area" fill="none" stroke="#c00040" stroke-width="5"><path d=" M685 951 C661.781,951 624.571,963.965 602.5,975 L567,992 C567,992 536,922 536,922 559.052,922 614.338,922.581 633.5,913 633.5,913 687,892 687,892 687,912.48 685,931.634 685,951  Z"/><path d=" M2035 951 C2058.22,951 2095.43,963.965 2117.5,975 L2153,992 C2153,992 2184,922 2184,922 2160.95,922 2105.66,922.581 2086.5,913 2086.5,913 2033,892 2033,892 2033,912.48 2035,931.634 2035,951  Z"/></g><g id="#400040,402,VISal,Anterolateral%20visual%20area" fill="none" stroke="#400040" stroke-width="5"><path d=" M567 992 L556,1002 C556,1002 475,984 475,984 475,984 448,974 448,974 448,974 451,966 451,966 451,966 475,935 475,935 475,935 501,915 501,915 501,915 517,913 517,913 517,913 536,922 536,922 536,922 567,992 567,992  Z"/><path d=" M2153 992 L2164,1002 C2164,1002 2245,984 2245,984 2245,984 2272,974 2272,974 2272,974 2269,966 2269,966 2269,966 2245,935 2245,935 2245,935 2219,915 2219,915 2219,915 2203,913 2203,913 2203,913 2184,922 2184,922 2184,922 2153,992 2153,992  Z"/></g><g id="#000040,394,VISam,Anteromedial%20visual%20area" fill="none" stroke="#000040" stroke-width="5"><path d=" M714 967 C735.537,967 769.162,1001.83 789.5,1012 L810,1028 C810,1028 842,924 842,924 842,924 801.5,940 801.5,940 778.496,951.502 739.486,965 714,965 714,965 714,967 714,967  Z"/><path d=" M2006 967 C1984.46,967 1950.84,1001.83 1930.5,1012 L1910,1028 C1910,1028 1878,924 1878,924 1878,924 1918.5,940 1918.5,940 1941.5,951.502 1980.51,965 2006,965 2006,965 2006,967 2006,967  Z"/></g><g id="#c0c000,385,VISp,Primary%20visual%20area" fill="none" stroke="#c0c000" stroke-width="5"><path d=" M771 1184 C771,1194.43 743.781,1222.36 734.5,1227 728.337,1230.08 721.899,1237.3 714.5,1241 704.672,1245.91 669.887,1243.81 663.5,1247 639.264,1259.12 563.85,1247 535,1247 535,1247 510.5,1233 510.5,1233 510.5,1233 480,1214.5 480,1214.5 480,1214.5 476,1197.5 476,1197.5 464.933,1175.37 454,1165.13 454,1139 454,1139 478,1107.5 478,1107.5 492.073,1079.35 517.281,1058.94 531,1031.5 531,1031.5 556,1002 556,1002 556,1002 567,992 567,992 567,992 602.5,975 602.5,975 624.571,963.965 661.781,951 685,951 685,951 714,965 714,965 714,965 714,967 714,967 714,967 737,1028.5 737,1028.5 737,1028.5 757,1108.5 757,1108.5 757,1108.5 771,1184 771,1184  Z"/><path d=" M2185 1247 L2183,1248 C2154.89,1248 2079.05,1258.28 2056.5,1247 2050.11,1243.81 2015.33,1245.91 2005.5,1241 1998.1,1237.3 1991.66,1230.08 1985.5,1227 1976.22,1222.36 1949,1194.43 1949,1184 1949,1184 1963,1108.5 1963,1108.5 1963,1108.5 1983,1028.5 1983,1028.5 1983,1028.5 2006,967 2006,967 2006,967 2006,965 2006,965 2006,965 2035,951 2035,951 2058.22,951 2095.43,963.965 2117.5,975 2117.5,975 2153,992 2153,992 2153,992 2164,1002 2164,1002 2164,1002 2189,1031.5 2189,1031.5 2202.72,1058.94 2227.93,1079.35 2242,1107.5 2242,1107.5 2266,1139 2266,1139 2266,1165.13 2255.07,1175.37 2244,1197.5 2244,1197.5 2240,1214.5 2240,1214.5 2240,1214.5 2209.5,1233 2209.5,1233 2209.5,1233 2185,1247 2185,1247  Z"/></g><g id="#404040,533,VISpm,posteromedial%20visual%20area" fill="none" stroke="#404040" stroke-width="5"><path d=" M810 1028 L786,1148.5 L771,1184 C771,1184 757,1108.5 757,1108.5 757,1108.5 737,1028.5 737,1028.5 737,1028.5 714,967 714,967 735.537,967 769.162,1001.83 789.5,1012 789.5,1012 810,1028 810,1028  Z"/><path d=" M1910 1028 L1934,1148.5 L1949,1184 C1949,1184 1963,1108.5 1963,1108.5 1963,1108.5 1983,1028.5 1983,1028.5 1983,1028.5 2006,967 2006,967 1984.46,967 1950.84,1001.83 1930.5,1012 1930.5,1012 1910,1028 1910,1028  Z"/></g><g id="#808080,312782574,VISli,Laterointermediate%20area" fill="none" stroke="#808080" stroke-width="5"><path d=" M400 1025 C400,1035.07 373.728,1049.96 379,1060.5 L395,1075.5 L407,1085 C407,1085 475,984 475,984 475,984 448,974 448,974 436.472,974 404.592,1025 400,1025  Z"/><path d=" M2320 1025 C2320,1035.07 2346.27,1049.96 2341,1060.5 L2325,1075.5 L2313,1085 C2313,1085 2245,984 2245,984 2245,984 2272,974 2272,974 2283.53,974 2315.41,1025 2320,1025  Z"/></g><g id="#800040,409,VISl,Lateral%20visual%20area" fill="none" stroke="#800040" stroke-width="5"><path d=" M413 1096 C422.336,1096 440.31,1139 454,1139 454,1139 478,1107.5 478,1107.5 492.073,1079.35 517.281,1058.94 531,1031.5 531,1031.5 556,1002 556,1002 556,1002 475,984 475,984 475,984 407,1085 407,1085 407,1085 413,1096 413,1096  Z"/><path d=" M2307 1096 C2297.66,1096 2279.69,1139 2266,1139 2266,1139 2242,1107.5 2242,1107.5 2227.93,1079.35 2202.72,1058.94 2189,1031.5 2189,1031.5 2164,1002 2164,1002 2164,1002 2245,984 2245,984 2245,984 2313,1085 2313,1085 2313,1085 2307,1096 2307,1096  Z"/></g><g id="#c08080,312782628,VISpor,Postrhinal%20area" fill="none" stroke="#c08080" stroke-width="5"><path d=" M413 1096 L404.5,1104 C393.642,1109.43 356.33,1151 353,1151 318.345,1151 295.002,1114.5 282,1088.5 282,1088.5 244,1044.5 244,1044.5 244,1044.5 207,1001 207,1001 207,1001 232,1002 232,1002 232,1002 258,999 258,999 258,999 400,1025 400,1025 400,1035.07 373.728,1049.96 379,1060.5 379,1060.5 395,1075.5 395,1075.5 395,1075.5 407,1085 407,1085 407,1085 413,1096 413,1096  Z"/><path d=" M2307 1096 L2315.5,1104 C2326.36,1109.43 2363.67,1151 2367,1151 2401.65,1151 2425,1114.5 2438,1088.5 2438,1088.5 2476,1044.5 2476,1044.5 2476,1044.5 2513,1001 2513,1001 2513,1001 2488,1002 2488,1002 2488,1002 2462,999 2462,999 2462,999 2320,1025 2320,1025 2320,1035.07 2346.27,1049.96 2341,1060.5 2341,1060.5 2325,1075.5 2325,1075.5 2325,1075.5 2313,1085 2313,1085 2313,1085 2307,1096 2307,1096  Z"/></g><g id="#004040,425,VISpl,Posterolateral%20visual%20area" fill="none" stroke="#004040" stroke-width="5"><path d=" M604 1286 C597.232,1286 565,1288.25 565,1297 546.84,1297 531.15,1269.82 515.5,1262 515.5,1262 419.5,1207 419.5,1207 404.021,1199.26 385.247,1191.99 377,1175.5 377,1175.5 353,1151 353,1151 356.33,1151 393.642,1109.43 404.5,1104 404.5,1104 413,1096 413,1096 422.336,1096 440.31,1139 454,1139 454,1165.13 464.933,1175.37 476,1197.5 476,1197.5 480,1214.5 480,1214.5 480,1214.5 510.5,1233 510.5,1233 510.5,1233 535,1247 535,1247 535,1247 604,1286 604,1286  Z"/><path d=" M2116 1286 C2122.77,1286 2155,1288.25 2155,1297 2173.16,1297 2188.85,1269.82 2204.5,1262 2204.5,1262 2300.5,1207 2300.5,1207 2315.98,1199.26 2334.75,1191.99 2343,1175.5 2343,1175.5 2367,1151 2367,1151 2363.67,1151 2326.36,1109.43 2315.5,1104 2315.5,1104 2307,1096 2307,1096 2297.66,1096 2279.69,1139 2266,1139 2266,1165.13 2255.07,1175.37 2244,1197.5 2244,1197.5 2240,1214.5 2240,1214.5 2240,1214.5 2209.5,1233 2209.5,1233 2209.5,1233 2185,1247 2185,1247 2185,1247 2183,1248 2183,1248 2183,1248 2116,1286 2116,1286  Z"/></g><g id="area_labels" style="fill:#000; text-anchor: middle; dominant-baseline: middle; font-size:22.666666666666668px; font-family: sans-serif">
<g><text stroke-width="2.2666666666666666" stroke="#666" x="792.1223252086037" y="150.93658899062982">ORBl</text>
<text x="792.1223252086037" y="150.93658899062982">ORBl</text></g>
<g><text stroke-width="2.2666666666666666" stroke="#666" x="943.9609093629689" y="195.8220566033986">ORBvl</text>
<text x="943.9609093629689" y="195.8220566033986">ORBvl</text></g>
<g><text stroke-width="2.2666666666666666" stroke="#666" x="637.7962876651718" y="172.823931742059">AIv</text>
<text x="637.7962876651718" y="172.823931742059">AIv</text></g>
<g><text stroke-width="2.2666666666666666" stroke="#666" x="667.0202537041056" y="236.359375">AId</text>
<text x="667.0202537041056" y="236.359375">AId</text></g>
<g><text stroke-width="2.2666666666666666" stroke="#666" x="1063.1292775292475" y="271.743397442749">ORBm</text>
<text x="1063.1292775292475" y="271.743397442749">ORBm</text></g>
<g><text stroke-width="2.2666666666666666" stroke="#666" x="914.37945302117" y="470.60271473447915">MOs</text>
<text x="914.37945302117" y="470.60271473447915">MOs</text></g>
<g><text stroke-width="2.2666666666666666" stroke="#666" x="970.1026008354501" y="295.7409238209098">FRP</text>
<text x="970.1026008354501" y="295.7409238209098">FRP</text></g>
<g><text stroke-width="2.2666666666666666" stroke="#666" x="1218.9714005900641" y="445.0165665020286">ILA</text>
<text x="1218.9714005900641" y="445.0165665020286">ILA</text></g>
<g><text stroke-width="2.2666666666666666" stroke="#666" x="609.1635714284319" y="360.64652582176836">MOp</text>
<text x="609.1635714284319" y="360.64652582176836">MOp</text></g>
<g><text stroke-width="2.2666666666666666" stroke="#666" x="1145.9063731506278" y="464.0807437354581">PL</text>
<text x="1145.9063731506278" y="464.0807437354581">PL</text></g>
<g><text stroke-width="2.2666666666666666" stroke="#666" x="386.5390055758008" y="432.57035396330565">GU</text>
<text x="386.5390055758008" y="432.57035396330565">GU</text></g>
<g><text stroke-width="2.2666666666666666" stroke="#666" x="225.26746600109422" y="513.9248875349845">AIp</text>
<text x="225.26746600109422" y="513.9248875349845">AIp</text></g>
<g><text stroke-width="2.2666666666666666" stroke="#666" x="560.9921805875222" y="527.3080750857171">SSp-m</text>
<text x="560.9921805875222" y="527.3080750857171">SSp-m</text></g>
<g><text stroke-width="2.2666666666666666" stroke="#666" x="1079.203125" y="559.5472569202283">ACAd</text>
<text x="1079.203125" y="559.5472569202283">ACAd</text></g>
<g><text stroke-width="2.2666666666666666" stroke="#666" x="390.2556040221515" y="659.9982382798783">SSs</text>
<text x="390.2556040221515" y="659.9982382798783">SSs</text></g>
<g><text stroke-width="2.2666666666666666" stroke="#666" x="1161.938677730881" y="593.9672848674423">ACAv</text>
<text x="1161.938677730881" y="593.9672848674423">ACAv</text></g>
<g><text stroke-width="2.2666666666666666" stroke="#666" x="262.1848732311773" y="634.73111129156">VISC</text>
<text x="262.1848732311773" y="634.73111129156">VISC</text></g>
<g><text stroke-width="2.2666666666666666" stroke="#666" x="735.9157960768559" y="686.4288769009027">SSp-ul</text>
<text x="735.9157960768559" y="686.4288769009027">SSp-ul</text></g>
<g><text stroke-width="2.2666666666666666" stroke="#666" x="532.9874593802477" y="661.081220561408">SSp-n</text>
<text x="532.9874593802477" y="661.081220561408">SSp-n</text></g>
<g><text stroke-width="2.2666666666666666" stroke="#666" x="145.16131778597492" y="815.4496199938186">PERI</text>
<text x="145.16131778597492" y="815.4496199938186">PERI</text></g>
<g><text stroke-width="2.2666666666666666" stroke="#666" x="664.9537473586265" y="693.0150685500453">SSp-un</text>
<text x="664.9537473586265" y="693.0150685500453">SSp-un</text></g>
<g><text stroke-width="2.2666666666666666" stroke="#666" x="199.428223387191" y="701.5728676918457">ECT</text>
<text x="199.428223387191" y="701.5728676918457">ECT</text></g>
<g><text stroke-width="2.2666666666666666" stroke="#666" x="808.1841673612251" y="786.4644085737642">SSp-ll</text>
<text x="808.1841673612251" y="786.4644085737642">SSp-ll</text></g>
<g><text stroke-width="2.2666666666666666" stroke="#666" x="253.17954563048704" y="722.3691962302256">TEa</text>
<text x="253.17954563048704" y="722.3691962302256">TEa</text></g>
<g><text stroke-width="2.2666666666666666" stroke="#666" x="606.0574270807388" y="822.7210364315525">SSp-bfd</text>
<text x="606.0574270807388" y="822.7210364315525">SSp-bfd</text></g>
<g><text stroke-width="2.2666666666666666" stroke="#666" x="312.4032827681254" y="752.0816618643499">AUDv</text>
<text x="312.4032827681254" y="752.0816618643499">AUDv</text></g>
<g><text stroke-width="2.2666666666666666" stroke="#666" x="450.49155957424415" y="878.8037406102312">AUDd</text>
<text x="450.49155957424415" y="878.8037406102312">AUDd</text></g>
<g><text stroke-width="2.2666666666666666" stroke="#666" x="351.80617720998106" y="852.2680922582406">AUDp</text>
<text x="351.80617720998106" y="852.2680922582406">AUDp</text></g>
<g><text stroke-width="2.2666666666666666" stroke="#666" x="1053.1843686905315" y="1055.273745376671">RSPv</text>
<text x="1053.1843686905315" y="1055.273745376671">RSPv</text></g>
<g><text stroke-width="2.2666666666666666" stroke="#666" x="834.3375604938745" y="862.154391398885">SSp-tr</text>
<text x="834.3375604938745" y="862.154391398885">SSp-tr</text></g>
<g><text stroke-width="2.2666666666666666" stroke="#666" x="915.41987962626" y="1000.6846515556412">RSPd</text>
<text x="915.41987962626" y="1000.6846515556412">RSPd</text></g>
<g><text stroke-width="2.2666666666666666" stroke="#666" x="806.2775167500055" y="1182.0510266729573">RSPagl</text>
<text x="806.2775167500055" y="1182.0510266729573">RSPagl</text></g>
<g><text stroke-width="2.2666666666666666" stroke="#666" x="727.9524542745169" y="924.9537550754537">VISa</text>
<text x="727.9524542745169" y="924.9537550754537">VISa</text></g>
<g><text stroke-width="2.2666666666666666" stroke="#666" x="446.100784473914" y="938.0774533887412">AUDpo</text>
<text x="446.100784473914" y="938.0774533887412">AUDpo</text></g>
<g><text stroke-width="2.2666666666666666" stroke="#666" x="582.1309806259432" y="951.8798559440398">VISrl</text>
<text x="582.1309806259432" y="951.8798559440398">VISrl</text></g>
<g><text stroke-width="2.2666666666666666" stroke="#666" x="509.9026202582621" y="954.0198566206394">VISal</text>
<text x="509.9026202582621" y="954.0198566206394">VISal</text></g>
<g><text stroke-width="2.2666666666666666" stroke="#666" x="792.2726792609382" y="979.1171503389807">VISam</text>
<text x="792.2726792609382" y="979.1171503389807">VISam</text></g>
<g><text stroke-width="2.2666666666666666" stroke="#666" x="628.5605316076542" y="1121.8326312974605">VISp</text>
<text x="628.5605316076542" y="1121.8326312974605">VISp</text></g>
<g><text stroke-width="2.2666666666666666" stroke="#666" x="774.0085349291398" y="1041.9125660723419">VISpm</text>
<text x="774.0085349291398" y="1041.9125660723419">VISpm</text></g>
<g><text stroke-width="2.2666666666666666" stroke="#666" x="403.06888687252115" y="1055.492872769841">VISli</text>
<text x="403.06888687252115" y="1055.492872769841">VISli</text></g>
<g><text stroke-width="2.2666666666666666" stroke="#666" x="487.0894224501581" y="1034.2779752663769">VISl</text>
<text x="487.0894224501581" y="1034.2779752663769">VISl</text></g>
<g><text stroke-width="2.2666666666666666" stroke="#666" x="325.400103646522" y="1062.9769401760543">VISpor</text>
<text x="325.400103646522" y="1062.9769401760543">VISpor</text></g>
<g><text stroke-width="2.2666666666666666" stroke="#666" x="411.0528524564133" y="1160.646484375">VISpl</text>
<text x="411.0528524564133" y="1160.646484375">VISpl</text></g>
</g></svg>