<svg xmlns="http://www.w3.org/2000/svg" xmlns:xlink="http://www.w3.org/1999/xlink" height="800" width="1320"><g/><g id="#804040,879,RSPd,Retrosplenial%20area%2C%20dorsal%20part" fill="none" stroke="#804040" stroke-width="2.6666666666666665"><path d=" M782 16 L748,18 C748,18 782,16 782,16  Z"/><path d=" M825 16 L832,18 C832,18 825,16 825,16  Z"/><path d=" M747 18 C743.648,18 728,16.4964 728,21 731.353,21 747,22.3663 747,18  Z"/><path d=" M853 19 L854,20 C854,20 853,19 853,19  Z"/><path d=" M724 21 C719.433,21 693,21.4503 693,26 693,26 724,21 724,21  Z"/><path d=" M689 26 L681,28 C681,28 689,26 689,26  Z"/><path d=" M678 28 L670,31 C670,31 678,28 678,28  Z"/></g><g id="#c04040,894,RSPagl,Retrosplenial%20area%2C%20lateral%20agranular%20part" fill="none" stroke="#c04040" stroke-width="2.6666666666666665"><path d=" M668 36 L631,41 C631,41 640.5,37 640.5,37 640.5,37 670,31 670,31 670,31 678,28 678,28 678,28 681,28 681,28 681,28 689,26 689,26 689,26 693,26 693,26 693,26 724,21 724,21 724,21 728,21 728,21 731.353,21 747,22.3663 747,18 747,18 748,18 748,18 748,18 782,16 782,16 782,16 825,16 825,16 825,16 832,18 832,18 832,18 853,19 853,19 853,19 854,20 854,20 854,20 889.5,27 889.5,27 889.5,27 901,32 901,32 901,32 875.5,26 875.5,26 875.5,26 812,22 812,22 812,22 739,27 739,27 739,27 715,31 715,31 715,31 679,33 679,33 679,33 668,36 668,36  Z"/><path d=" M903 32 L905,33 C905,33 903,32 903,32  Z"/><path d=" M906 33 L911,36 C911,36 906,33 906,33  Z"/><path d=" M629 41 L621,43 C621,43 629,41 629,41  Z"/><path d=" M615 45 L616,45 C616,45 616,44 616,44 616,44 615,45 615,45  Z"/><path d=" M615 45 L613,46 C613,46 615,45 615,45  Z"/></g><g id="#40c000,394,VISam,Anteromedial%20visual%20area" fill="none" stroke="#40c000" stroke-width="2.6666666666666665"><path d=" M774 50 L776,50 C776,38.4348 812,23.491 812,22 812,22 739,27 739,27 739,27 715,31 715,31 723.792,31 774,43.9524 774,50  Z"/></g><g id="#800040,533,VISpm,posteromedial%20visual%20area" fill="none" stroke="#800040" stroke-width="2.6666666666666665"><path d=" M921 39 C900.757,39 852.159,28.6707 833.5,38 L776,50 C776,38.4348 812,23.491 812,22 812,22 875.5,26 875.5,26 875.5,26 901,32 901,32 901,32 903,32 903,32 903,32 905,33 905,33 905,33 906,33 906,33 906,33 911,36 911,36 911,36 921,39 921,39  Z"/><path d=" M922 39 L924,40 C924,40 922,39 922,39  Z"/></g><g id="#800080,312782546,VISa,Anterior%20area" fill="none" stroke="#800080" stroke-width="2.6666666666666665"><path d=" M701 71 L713,71 C713,71 768,60 768,60 768,60 774,50 774,50 774,43.9524 723.792,31 715,31 715,31 679,33 679,33 679,33 668,36 668,36 680.067,36 701,59.3481 701,71  Z"/></g><g id="#408000,361,SSp-tr,Primary%20somatosensory%20area%2C%20trunk" fill="none" stroke="#408000" stroke-width="2.6666666666666665"><path d=" M701 71 L665,76 C665,76 654,68 654,68 654,68 642,58 642,58 642,50.1771 616,48.5803 616,45 616,45 616,44 616,44 616,44 621,43 621,43 621,43 629,41 629,41 629,41 631,41 631,41 631,41 668,36 668,36 680.067,36 701,59.3481 701,71  Z"/></g><g id="#00c000,385,VISp,Primary%20visual%20area" fill="none" stroke="#00c000" stroke-width="2.6666666666666665"><path d=" M1003 178 L1038,185 C1038,170.158 1034.14,156.785 1028,144.5 1028,144.5 1026,132.5 1026,132.5 1006.05,92.6018 994.425,72.9627 952.5,52 952.5,52 924,40 924,40 924,40 922,39 922,39 922,39 921,39 921,39 900.757,39 852.159,28.6707 833.5,38 833.5,38 776,50 776,50 776,50 774,50 774,50 774,50 768,60 768,60 768,60 840,104 840,104 840,104 853,109 853,109 880.598,109 942.533,145.016 968.5,158 968.5,158 1003,178 1003,178  Z"/></g><g id="#804000,337,SSp-ll,Primary%20somatosensory%20area%2C%20lower%20limb" fill="none" stroke="#804000" stroke-width="2.6666666666666665"><path d=" M642 58 L609.5,72 L570.5,87 L530.5,93 L492,111 C492,111 506,98.5 506,98.5 506,98.5 555.5,66 555.5,66 555.5,66 574,56 574,56 574,56 580,55 580,55 580,55 581,54 581,54 581,54 613,46 613,46 613,46 615,45 615,45 615,45 616,45 616,45 616,48.5803 642,50.1771 642,58  Z"/><path d=" M492 111 L491,112 C491,112 492,111 492,111  Z"/></g><g id="#808040,985,MOp,Primary%20motor%20area" fill="none" stroke="#808040" stroke-width="2.6666666666666665"><path d=" M581 54 L580,55 C580,55 581,54 581,54  Z"/><path d=" M352 393 L350,434 C338.061,434 294.61,407.11 285.5,398 285.5,398 268,386 268,386 268,329.009 276.159,283.182 300,235.5 300,235.5 325,199.5 325,199.5 325,199.5 369.5,153 369.5,153 369.5,153 394.5,133 394.5,133 394.5,133 448.5,101 448.5,101 448.5,101 496,82 496,82 496,82 498,81 498,81 498,81 574,56 574,56 574,56 555.5,66 555.5,66 555.5,66 506,98.5 506,98.5 506,98.5 492,111 492,111 492,111 491,112 491,112 491,112 471.5,129 471.5,129 460.797,134.352 414,187.083 414,196 414,196 404,209.5 404,209.5 404,209.5 377,258.5 377,258.5 357.385,297.73 352,345.788 352,393  Z"/></g><g id="#808000,369,SSp-ul,Primary%20somatosensory%20area%2C%20upper%20limb" fill="none" stroke="#808000" stroke-width="2.6666666666666665"><path d=" M474 169 L414,196 C414,187.083 460.797,134.352 471.5,129 471.5,129 491,112 491,112 491,112 492,111 492,111 492,111 530.5,93 530.5,93 530.5,93 570.5,87 570.5,87 570.5,87 609.5,72 609.5,72 609.5,72 642,58 642,58 642,58 654,68 654,68 654,68 617.5,85 617.5,85 617.5,85 513.5,146 513.5,146 513.5,146 474,169 474,169  Z"/></g><g id="#000040,417,VISrl,Rostrolateral%20visual%20area" fill="none" stroke="#000040" stroke-width="2.6666666666666665"><path d=" M840 104 L785,130 C785,115.634 746.67,86.5848 735.5,81 735.5,81 713,71 713,71 713,71 768,60 768,60 768,60 840,104 840,104  Z"/></g><g id="#400080,182305689,SSp-un,Primary%20somatosensory%20area%2C%20unassigned" fill="none" stroke="#400080" stroke-width="2.6666666666666665"><path d=" M474 169 C482.748,169 499,157.88 499,176 499,176 513.5,164 513.5,164 528.89,156.305 543.503,147 562,147 562,120.593 642.352,76 665,76 665,76 654,68 654,68 654,68 617.5,85 617.5,85 617.5,85 513.5,146 513.5,146 513.5,146 474,169 474,169  Z"/></g><g id="#404000,329,SSp-bfd,Primary%20somatosensory%20area%2C%20barrel%20field" fill="none" stroke="#404000" stroke-width="2.6666666666666665"><path d=" M562 147 C568.485,147 577.316,157.133 580,162.5 L613,239 C613,239 658.5,206 658.5,206 706.564,181.968 720.074,143 783,143 783,143 785,130 785,130 785,115.634 746.67,86.5848 735.5,81 735.5,81 713,71 713,71 713,71 701,71 701,71 701,71 665,76 665,76 642.352,76 562,120.593 562,147  Z"/></g><g id="#c08040,993,MOs,Secondary%20motor%20area" fill="none" stroke="#c08040" stroke-width="2.6666666666666665"><path d=" M498 81 L496,82 C496,82 498,81 498,81  Z"/><path d=" M202 348 C202,343.228 212.564,343.628 214,346.5 L268,386 C268,329.009 276.159,283.182 300,235.5 300,235.5 325,199.5 325,199.5 325,199.5 369.5,153 369.5,153 369.5,153 394.5,133 394.5,133 394.5,133 448.5,101 448.5,101 448.5,101 496,82 496,82 496,82 416.5,106 416.5,106 416.5,106 380.5,116 380.5,116 343.489,134.506 282.163,146.337 252,176.5 241.302,187.198 194,213.737 194,232 194,232 192,309 192,309 192,309 192,313 192,313 192,313 202,348 202,348  Z"/></g><g id="#80c000,402,VISal,Anterolateral%20visual%20area" fill="none" stroke="#80c000" stroke-width="2.6666666666666665"><path d=" M854 174 L863,176 C863,176 863,157 863,157 863,157 853,109 853,109 853,109 840,104 840,104 840,104 785,130 785,130 785,130 783,143 783,143 783,143 791,151 791,151 791,151 818,164 818,164 818,164 854,174 854,174  Z"/></g><g id="#c0c000,409,VISl,Lateral%20visual%20area" fill="none" stroke="#c0c000" stroke-width="2.6666666666666665"><path d=" M980 200 L973,203 C973,203 945.5,189 945.5,189 945.5,189 863,157 863,157 863,157 853,109 853,109 880.598,109 942.533,145.016 968.5,158 968.5,158 1003,178 1003,178 1003,178 980,200 980,200  Z"/></g><g id="#c08000,378,SSs,Supplemental%20somatosensory%20area" fill="none" stroke="#c08000" stroke-width="2.6666666666666665"><path d=" M420 418 C430.847,418 454.522,439 469,439 527.001,439 566.068,444.716 617.5,419 617.5,419 694,369 694,369 694,369 695,366 695,366 695,366 689,292 689,292 689,264.401 699.736,248.028 711,225.5 711,225.5 727,206.5 727,206.5 727,206.5 745,187.5 745,187.5 748.922,179.655 791,160.315 791,151 791,151 783,143 783,143 720.074,143 706.564,181.968 658.5,206 658.5,206 613,239 613,239 613,239 526,299 526,299 526,299 504.5,318 504.5,318 504.5,318 482.5,335 482.5,335 482.5,335 426.5,362 426.5,362 416.314,367.093 420,408.2 420,418  Z"/></g><g id="#008000,353,SSp-n,Primary%20somatosensory%20area%2C%20nose" fill="none" stroke="#008000" stroke-width="2.6666666666666665"><path d=" M613 239 L526,299 C526,299 515,269.5 515,269.5 515,269.5 495,190.5 495,190.5 495,190.5 499,176 499,176 499,176 513.5,164 513.5,164 528.89,156.305 543.503,147 562,147 568.485,147 577.316,157.133 580,162.5 580,162.5 613,239 613,239  Z"/></g><g id="#40c040,1011,AUDd,Dorsal%20auditory%20area" fill="none" stroke="#40c040" stroke-width="2.6666666666666665"><path d=" M721 287 L689,292 C689,264.401 699.736,248.028 711,225.5 711,225.5 727,206.5 727,206.5 727,206.5 745,187.5 745,187.5 748.922,179.655 791,160.315 791,151 791,151 818,164 818,164 818,164 794,204 794,204 794,204 780.5,212 780.5,212 780.5,212 743,237.5 743,237.5 743,237.5 727,265.5 727,265.5 727,265.5 721,287 721,287  Z"/></g><g id="#c00080,312782574,VISli,Laterointermediate%20area" fill="none" stroke="#c00080" stroke-width="2.6666666666666665"><path d=" M973 203 L966.5,213 C948.415,231.085 943.291,207 924,207 924,207 863,176 863,176 863,176 863,157 863,157 863,157 945.5,189 945.5,189 945.5,189 973,203 973,203  Z"/></g><g id="#c0c040,1027,AUDpo,Posterior%20auditory%20area" fill="none" stroke="#c0c040" stroke-width="2.6666666666666665"><path d=" M870 265 L888,280 C888,258.085 884.067,237.634 875,219.5 868.331,206.161 854,189.591 854,174 854,174 818,164 818,164 818,164 794,204 794,204 794,204 820.5,202 820.5,202 840.695,212.098 870,240.26 870,265  Z"/></g><g id="#c04000,345,SSp-m,Primary%20somatosensory%20area%2C%20mouth" fill="none" stroke="#c04000" stroke-width="2.6666666666666665"><path d=" M352 393 L420,418 C420,408.2 416.314,367.093 426.5,362 426.5,362 482.5,335 482.5,335 482.5,335 504.5,318 504.5,318 504.5,318 526,299 526,299 526,299 515,269.5 515,269.5 515,269.5 495,190.5 495,190.5 495,190.5 499,176 499,176 499,157.88 482.748,169 474,169 474,169 414,196 414,196 414,196 404,209.5 404,209.5 404,209.5 377,258.5 377,258.5 357.385,297.73 352,345.788 352,393  Z"/></g><g id="#c00040,541,TEa,Temporal%20association%20areas" fill="none" stroke="#c00040" stroke-width="2.6666666666666665"><path d=" M694 369 L695,446 C764.549,446 818.053,414.723 875.5,386 875.5,386 932,335.5 932,335.5 932,335.5 949,315 949,315 949,315 924,207 924,207 924,207 863,176 863,176 863,176 854,174 854,174 854,189.591 868.331,206.161 875,219.5 884.067,237.634 888,258.085 888,280 888,336.383 847.343,348.579 806.5,369 806.5,369 784.5,374 784.5,374 777.383,377.559 749.051,381.275 740.5,377 740.5,377 695,366 695,366 695,366 694,369 694,369  Z"/></g><g id="#400040,425,VISpl,Posterolateral%20visual%20area" fill="none" stroke="#400040" stroke-width="2.6666666666666665"><path d=" M980 200 L1021,234.5 L1030,250 C1030,250 1035,237.5 1035,237.5 1041.76,223.972 1038,200.969 1038,185 1038,185 1003,178 1003,178 1003,178 980,200 980,200  Z"/></g><g id="#004080,312782628,VISpor,Postrhinal%20area" fill="none" stroke="#004080" stroke-width="2.6666666666666665"><path d=" M956 337 L958,349 C958,349 970.5,335 970.5,335 988.746,325.877 1030,268.723 1030,250 1030,250 1021,234.5 1021,234.5 1021,234.5 980,200 980,200 980,200 973,203 973,203 973,203 966.5,213 966.5,213 948.415,231.085 943.291,207 924,207 924,207 949,315 949,315 949,315 956,337 956,337  Z"/></g><g id="#00c040,1002,AUDp,Primary%20auditory%20area" fill="none" stroke="#00c040" stroke-width="2.6666666666666665"><path d=" M870 265 C870,275.705 844.664,292.918 836.5,297 819.37,305.565 803.949,317.275 786.5,326 759.157,339.672 721,315.795 721,287 721,287 727,265.5 727,265.5 727,265.5 743,237.5 743,237.5 743,237.5 780.5,212 780.5,212 780.5,212 794,204 794,204 794,204 820.5,202 820.5,202 840.695,212.098 870,240.26 870,265  Z"/></g><g id="#004000,184,FRP,Frontal%20pole%2C%20cerebral%20cortex" fill="none" stroke="#004000" stroke-width="2.6666666666666665"><path d=" M190 307 L192,309 C192,309 194,232 194,232 178.899,232 176.42,307 190,307  Z"/></g><g id="#80c040,1018,AUDv,Ventral%20auditory%20area" fill="none" stroke="#80c040" stroke-width="2.6666666666666665"><path d=" M689 292 L695,366 C695,366 740.5,377 740.5,377 749.051,381.275 777.383,377.559 784.5,374 784.5,374 806.5,369 806.5,369 847.343,348.579 888,336.383 888,280 888,280 870,265 870,265 870,275.705 844.664,292.918 836.5,297 819.37,305.565 803.949,317.275 786.5,326 759.157,339.672 721,315.795 721,287 721,287 689,292 689,292  Z"/></g><g id="#404040,731,ORBm,Orbital%20area%2C%20medial%20part" fill="none" stroke="#404040" stroke-width="2.6666666666666665"><path d=" M192 309 L192,313 C192,313 190,307 190,307 190,307 192,309 192,309  Z"/></g><g id="#008040,895,ECT,Ectorhinal%20area" fill="none" stroke="#008040" stroke-width="2.6666666666666665"><path d=" M697 477 L698,491 C738.369,491 826.271,445.614 863.5,427 863.5,427 896.5,406 896.5,406 917.345,395.578 928.44,370.06 943.5,355 943.5,355 956,337 956,337 956,337 949,315 949,315 949,315 932,335.5 932,335.5 932,335.5 875.5,386 875.5,386 818.053,414.723 764.549,446 695,446 695,446 697,477 697,477  Z"/></g><g id="#408040,922,PERI,Perirhinal%20area" fill="none" stroke="#408040" stroke-width="2.6666666666666665"><path d=" M698 491 L699,521 C699,521 754.5,497 754.5,497 804.826,471.837 891.162,450.176 919,394.5 926.362,379.776 958,367.999 958,349 958,349 956,337 956,337 956,337 943.5,355 943.5,355 928.44,370.06 917.345,395.578 896.5,406 896.5,406 863.5,427 863.5,427 826.271,445.614 738.369,491 698,491  Z"/></g><g id="#400000,104,AId,Agranular%20insular%20area%2C%20dorsal%20part" fill="none" stroke="#400000" stroke-width="2.6666666666666665"><path d=" M456 489 L454,519 C423.292,519 343.56,501.03 317.5,488 301.305,479.902 260.536,442 245,442 245,442 222,411.5 222,411.5 213.131,393.762 202,368.834 202,348 202,343.228 212.564,343.628 214,346.5 214,346.5 268,386 268,386 268,386 285.5,398 285.5,398 294.61,407.11 338.061,434 350,434 350,434 373.5,448 373.5,448 373.5,448 439.5,476 439.5,476 439.5,476 456,489 456,489  Z"/></g><g id="#004040,677,VISC,Visceral%20area" fill="none" stroke="#004040" stroke-width="2.6666666666666665"><path d=" M697 477 L645.5,493 C629.523,500.989 584.074,500 564,500 564,500 546.5,483 546.5,483 526.734,473.117 509.079,460.789 489.5,451 489.5,451 469,439 469,439 527.001,439 566.068,444.716 617.5,419 617.5,419 694,369 694,369 694,369 695,446 695,446 695,446 697,477 697,477  Z"/></g><g id="#000080,1057,GU,Gustatory%20areas" fill="none" stroke="#000080" stroke-width="2.6666666666666665"><path d=" M456 489 L482.5,496 C495.139,502.319 546.265,500 564,500 564,500 546.5,483 546.5,483 526.734,473.117 509.079,460.789 489.5,451 489.5,451 469,439 469,439 454.522,439 430.847,418 420,418 420,418 352,393 352,393 352,393 350,434 350,434 350,434 373.5,448 373.5,448 373.5,448 439.5,476 439.5,476 439.5,476 456,489 456,489  Z"/></g><g id="#c00000,119,AIv,Agranular%20insular%20area%2C%20ventral%20part" fill="none" stroke="#c00000" stroke-width="2.6666666666666665"><path d=" M454 519 L454,542 C427.486,542 362.513,539.507 339.5,528 339.5,528 291.5,486 291.5,486 291.5,486 245,442 245,442 260.536,442 301.305,479.902 317.5,488 343.56,501.03 423.292,519 454,519  Z"/></g><g id="#800000,111,AIp,Agranular%20insular%20area%2C%20posterior%20part" fill="none" stroke="#800000" stroke-width="2.6666666666666665"><path d=" M699 521 C699,542.312 650.041,539.229 636.5,546 622.653,552.923 595.146,545.177 585.5,550 L556.5,550 C539.564,558.468 477.261,542 454,542 454,542 454,519 454,519 454,519 456,489 456,489 456,489 482.5,496 482.5,496 495.139,502.319 546.265,500 564,500 584.074,500 629.523,500.989 645.5,493 645.5,493 697,477 697,477 697,477 698,491 698,491 698,491 699,521 699,521  Z"/></g><g id="area_labels" style="fill:#000; text-anchor: middle; dominant-baseline: middle; font-size:13.333333333333334px; font-family: sans-serif">
<g><text stroke-width="1.3333333333333335" stroke="#666" x="695.4986888923603" y="23.49868889236028">RSPd</text>
<text x="695.4986888923603" y="23.49868889236028">RSPd</text></g>
<g><text stroke-width="1.3333333333333335" stroke="#666" x="714.0399708532136" y="26.85797942424533">RSPagl</text>
<text x="714.0399708532136" y="26.85797942424533">RSPagl</text></g>
<g><text stroke-width="1.3333333333333335" stroke="#666" x="769.3726220309372" y="33.626105277544944">VISam</text>
<text x="769.3726220309372" y="33.626105277544944">VISam</text></g>
<g><text stroke-width="1.3333333333333335" stroke="#666" x="816.7152270280873" y="31.845360082374167">VISpm</text>
<text x="816.7152270280873" y="31.845360082374167">VISpm</text></g>
<g><text stroke-width="1.3333333333333335" stroke="#666" x="718.4693582698491" y="50.21875">VISa</text>
<text x="718.4693582698491" y="50.21875">VISa</text></g>
<g><text stroke-width="1.3333333333333335" stroke="#666" x="669.979134701825" y="55.60718865043025">SSp-tr</text>
<text x="669.979134701825" y="55.60718865043025">SSp-tr</text></g>
<g><text stroke-width="1.3333333333333335" stroke="#666" x="961.8198056225733" y="105.53627353680855">VISp</text>
<text x="961.8198056225733" y="105.53627353680855">VISp</text></g>
<g><text stroke-width="1.3333333333333335" stroke="#666" x="579.0298589022519" y="69.0918785807248">SSp-ll</text>
<text x="579.0298589022519" y="69.0918785807248">SSp-ll</text></g>
<g><text stroke-width="1.3333333333333335" stroke="#666" x="310.52338780956654" y="333.05553895021285">MOp</text>
<text x="310.52338780956654" y="333.05553895021285">MOp</text></g>
<g><text stroke-width="1.3333333333333335" stroke="#666" x="504.38962523665055" y="127.57743968194869">SSp-ul</text>
<text x="504.38962523665055" y="127.57743968194869">SSp-ul</text></g>
<g><text stroke-width="1.3333333333333335" stroke="#666" x="798.6207702971246" y="101.87288233847414">VISrl</text>
<text x="798.6207702971246" y="101.87288233847414">VISrl</text></g>
<g><text stroke-width="1.3333333333333335" stroke="#666" x="551.504924478289" y="136.29123781683936">SSp-un</text>
<text x="551.504924478289" y="136.29123781683936">SSp-un</text></g>
<g><text stroke-width="1.3333333333333335" stroke="#666" x="655.0377834794344" y="139.00686003787658">SSp-bfd</text>
<text x="655.0377834794344" y="139.00686003787658">SSp-bfd</text></g>
<g><text stroke-width="1.3333333333333335" stroke="#666" x="242.1948902869595" y="242.58468511635573">MOs</text>
<text x="242.1948902869595" y="242.58468511635573">MOs</text></g>
<g><text stroke-width="1.3333333333333335" stroke="#666" x="830.5314577063458" y="138.720057923995">VISal</text>
<text x="830.5314577063458" y="138.720057923995">VISal</text></g>
<g><text stroke-width="1.3333333333333335" stroke="#666" x="884.1561986644405" y="139.3435418168163">VISl</text>
<text x="884.1561986644405" y="139.3435418168163">VISl</text></g>
<g><text stroke-width="1.3333333333333335" stroke="#666" x="615.2659325067385" y="329.7754490397303">SSs</text>
<text x="615.2659325067385" y="329.7754490397303">SSs</text></g>
<g><text stroke-width="1.3333333333333335" stroke="#666" x="552.5019011928493" y="220.49708300038407">SSp-n</text>
<text x="552.5019011928493" y="220.49708300038407">SSp-n</text></g>
<g><text stroke-width="1.3333333333333335" stroke="#666" x="767.6139582405439" y="194.86787842938418">AUDd</text>
<text x="767.6139582405439" y="194.86787842938418">AUDd</text></g>
<g><text stroke-width="1.3333333333333335" stroke="#666" x="926.9752533620269" y="194.69978975534724">VISli</text>
<text x="926.9752533620269" y="194.69978975534724">VISli</text></g>
<g><text stroke-width="1.3333333333333335" stroke="#666" x="834.0964262651463" y="187.84459421863212">AUDpo</text>
<text x="834.0964262651463" y="187.84459421863212">AUDpo</text></g>
<g><text stroke-width="1.3333333333333335" stroke="#666" x="445.8254773729793" y="276.1424829892676">SSp-m</text>
<text x="445.8254773729793" y="276.1424829892676">SSp-m</text></g>
<g><text stroke-width="1.3333333333333335" stroke="#666" x="729.8888230820244" y="410.7083699379284">TEa</text>
<text x="729.8888230820244" y="410.7083699379284">TEa</text></g>
<g><text stroke-width="1.3333333333333335" stroke="#666" x="1015.9228794978189" y="202.71064248994594">VISpl</text>
<text x="1015.9228794978189" y="202.71064248994594">VISpl</text></g>
<g><text stroke-width="1.3333333333333335" stroke="#666" x="981.9852495489957" y="259.79583314257053">VISpor</text>
<text x="981.9852495489957" y="259.79583314257053">VISpor</text></g>
<g><text stroke-width="1.3333333333333335" stroke="#666" x="808.8666034547246" y="254.1069445374534">AUDp</text>
<text x="808.8666034547246" y="254.1069445374534">AUDp</text></g>
<g><text stroke-width="1.3333333333333335" stroke="#666" x="184.3487846133539" y="298.52417400027696">FRP</text>
<text x="184.3487846133539" y="298.52417400027696">FRP</text></g>
<g><text stroke-width="1.3333333333333335" stroke="#666" x="860.0917893141389" y="315.73752361226906">AUDv</text>
<text x="860.0917893141389" y="315.73752361226906">AUDv</text></g>
<g><text stroke-width="1.3333333333333335" stroke="#666" x="191.37568632605146" y="309.87420183527985">ORBm</text>
<text x="191.37568632605146" y="309.87420183527985">ORBm</text></g>
<g><text stroke-width="1.3333333333333335" stroke="#666" x="720.5181443773372" y="468.3906273457814">ECT</text>
<text x="720.5181443773372" y="468.3906273457814">ECT</text></g>
<g><text stroke-width="1.3333333333333335" stroke="#666" x="879.8013601653597" y="436.1993699230732">PERI</text>
<text x="879.8013601653597" y="436.1993699230732">PERI</text></g>
<g><text stroke-width="1.3333333333333335" stroke="#666" x="341.4059198915668" y="465.22171099891">AId</text>
<text x="341.4059198915668" y="465.22171099891">AId</text></g>
<g><text stroke-width="1.3333333333333335" stroke="#666" x="652.0241960495406" y="446.64136179496165">VISC</text>
<text x="652.0241960495406" y="446.64136179496165">VISC</text></g>
<g><text stroke-width="1.3333333333333335" stroke="#666" x="464.78138369366326" y="464.9031035933419">GU</text>
<text x="464.78138369366326" y="464.9031035933419">GU</text></g>
<g><text stroke-width="1.3333333333333335" stroke="#666" x="367.1883474365934" y="522.9375">AIv</text>
<text x="367.1883474365934" y="522.9375">AIv</text></g>
<g><text stroke-width="1.3333333333333335" stroke="#666" x="536.8887707496599" y="528.4488883391174">AIp</text>
<text x="536.8887707496599" y="528.4488883391174">AIp</text></g>
</g></svg>