<svg xmlns="http://www.w3.org/2000/svg" xmlns:xlink="http://www.w3.org/1999/xlink" height="800" width="1140"><g/><g id="#c04040,894,RSPagl,Retrosplenial%20area%2C%20lateral%20agranular%20part" fill="none" stroke="#c04040" stroke-width="2.6666666666666665"><path d=" M498 46 L522,48 C522,48 503.5,41 503.5,41 494.235,36.3677 464,27.8754 464,16 464,16 426,22 426,22 426,22 433,31 433,31 433,31 443,36 443,36 447.308,36 461,41.5897 461,46 461,46 498,46 498,46  Z"/></g><g id="#404040,879,RSPd,Retrosplenial%20area%2C%20dorsal%20part" fill="none" stroke="#404040" stroke-width="2.6666666666666665"><path d=" M566 86 L570,89 C570,89 570,80 570,80 567.029,80 551,47.2055 551,42 551,42 544,33.5 544,33.5 522.628,12.1276 494.004,16 464,16 464,27.8754 494.235,36.3677 503.5,41 503.5,41 522,48 522,48 532.608,48 566,75.121 566,86  Z"/></g><g id="#80c000,394,VISam,Anteromedial%20visual%20area" fill="none" stroke="#80c000" stroke-width="2.6666666666666665"><path d=" M433 31 C405.951,31 380.207,41 355,41 355,41 426,22 426,22 426,22 433,31 433,31  Z"/><path d=" M353 41 L352,42 C352,42 353,41 353,41  Z"/><path d=" M343 44 L342,45 C342,45 343,44 343,44  Z"/></g><g id="#800080,312782546,VISa,Anterior%20area" fill="none" stroke="#800080" stroke-width="2.6666666666666665"><path d=" M289 71 L292,71 C292,71 336.5,54 336.5,54 359.062,42.7189 414.71,36 443,36 443,36 433,31 433,31 405.951,31 380.207,41 355,41 355,41 353,41 353,41 353,41 352,42 352,42 352,42 343,44 343,44 343,44 342,45 342,45 342,45 313,53 313,53 313,53 309,56 309,56 309,56 299,59 299,59 299,59 298,60 298,60 298,60 294,61 294,61 294,61 293,62 293,62 293,62 289,71 289,71  Z"/></g><g id="#808000,361,SSp-tr,Primary%20somatosensory%20area%2C%20trunk" fill="none" stroke="#808000" stroke-width="2.6666666666666665"><path d=" M292 71 L294,76 C294,76 316,68 316,68 316,68 347,59 347,59 347,59 397.5,48 397.5,48 413.073,40.2135 437.559,49 453,49 453,49 461,46 461,46 461,41.5897 447.308,36 443,36 414.71,36 359.062,42.7189 336.5,54 336.5,54 292,71 292,71  Z"/></g><g id="#804040,886,RSPv,Retrosplenial%20area%2C%20ventral%20part" fill="none" stroke="#804040" stroke-width="2.6666666666666665"><path d=" M551 42 C552.995,42 570,73.741 570,80 567.029,80 551,47.2055 551,42  Z"/></g><g id="#c04000,337,SSp-ll,Primary%20somatosensory%20area%2C%20lower%20limb" fill="none" stroke="#c04000" stroke-width="2.6666666666666665"><path d=" M347 59 C347,67.1181 320.929,74.3584 326,84.5 L352,94.5 L350,112 C350,112 376.5,93 376.5,93 376.5,93 429.5,63 429.5,63 433.927,60.7866 453,54.8051 453,49 437.559,49 413.073,40.2135 397.5,48 397.5,48 347,59 347,59  Z"/></g><g id="#c08040,985,MOp,Primary%20motor%20area" fill="none" stroke="#c08040" stroke-width="2.6666666666666665"><path d=" M209 393 L220,434 C242.58,434 276.931,387 295,387 295,387 284,367.5 284,367.5 284,367.5 276,328.5 276,328.5 272.321,321.141 276.667,300.166 280,293.5 288.473,276.554 290.376,255.748 299,238.5 299,238.5 332,190.5 332,190.5 332,190.5 363.5,161 363.5,161 363.5,161 382.5,144 382.5,144 382.5,144 455.5,94 455.5,94 471.793,85.8536 498,67.0076 498,46 498,46 461,46 461,46 461,46 453,49 453,49 453,54.8051 433.927,60.7866 429.5,63 429.5,63 376.5,93 376.5,93 376.5,93 350,112 350,112 350,112 264,196 264,196 264,196 230,252.5 230,252.5 208.621,295.258 209,343.29 209,393  Z"/></g><g id="#00c040,993,MOs,Secondary%20motor%20area" fill="none" stroke="#00c040" stroke-width="2.6666666666666665"><path d=" M395 353 C377.078,353 358.356,337.072 340.5,346 L295,387 C295,387 284,367.5 284,367.5 284,367.5 276,328.5 276,328.5 272.321,321.141 276.667,300.166 280,293.5 288.473,276.554 290.376,255.748 299,238.5 299,238.5 332,190.5 332,190.5 332,190.5 363.5,161 363.5,161 363.5,161 382.5,144 382.5,144 382.5,144 455.5,94 455.5,94 471.793,85.8536 498,67.0076 498,46 498,46 522,48 522,48 532.608,48 566,75.121 566,86 566,86 567,136.5 567,136.5 563.969,142.562 540,202.242 540,205 521.509,205 514.238,208.262 500,222.5 500,222.5 493,230 493,230 466.972,230 412.772,236.956 401,260.5 388.544,285.412 381.25,286.999 395,314.5 395,314.5 404,324 404,324 404,324 395,353 395,353  Z"/></g><g id="#40c000,385,VISp,Primary%20visual%20area" fill="none" stroke="#40c000" stroke-width="2.6666666666666665"><path d=" M313 53 L309,56 C309,56 313,53 313,53  Z"/><path d=" M299 59 L298,60 C298,60 299,59 299,59  Z"/><path d=" M292 62 L293,62 C293,62 294,61 294,61 294,61 292,62 292,62  Z"/><path d=" M291 62 L290,63 C290,63 291,62 291,62  Z"/></g><g id="#c08000,369,SSp-ul,Primary%20somatosensory%20area%2C%20upper%20limb" fill="none" stroke="#c08000" stroke-width="2.6666666666666665"><path d=" M253 169 L264,196 C264,196 350,112 350,112 350,112 352,94.5 352,94.5 352,94.5 326,84.5 326,84.5 320.929,74.3584 347,67.1181 347,59 347,59 316,68 316,68 316,68 290,94.5 290,94.5 275.825,122.85 253,131.621 253,169  Z"/></g><g id="#c0c000,417,VISrl,Rostrolateral%20visual%20area" fill="none" stroke="#c0c000" stroke-width="2.6666666666666665"><path d=" M289 71 C267.167,71 234.623,101 220,101 220,101 234.5,91 234.5,91 234.5,91 290,63 290,63 290,63 291,62 291,62 291,62 292,62 292,62 292,62 293,62 293,62 293,62 289,71 289,71  Z"/><path d=" M216 104 L210,108 C210,108 216,104 216,104  Z"/><path d=" M208 109 L207,110 C207,110 208,109 208,109  Z"/><path d=" M207 110 L205,111 C205,111 207,110 207,110  Z"/></g><g id="#400080,182305689,SSp-un,Primary%20somatosensory%20area%2C%20unassigned" fill="none" stroke="#400080" stroke-width="2.6666666666666665"><path d=" M253 169 L241.5,165 L225,175 C225,175 231,152.5 231,152.5 231,152.5 223,147 223,147 223,147 240.5,133 240.5,133 240.5,133 294,76 294,76 294,76 316,68 316,68 316,68 290,94.5 290,94.5 275.825,122.85 253,131.621 253,169  Z"/></g><g id="#804000,329,SSp-bfd,Primary%20somatosensory%20area%2C%20barrel%20field" fill="none" stroke="#804000" stroke-width="2.6666666666666665"><path d=" M223 147 C207.045,147 153.3,191.9 146,206.5 L123,236 C123,212.258 138.989,188.521 149,168.5 149,168.5 165,144 165,144 165,144 205,111 205,111 205,111 207,110 207,110 207,110 208,109 208,109 208,109 210,108 210,108 210,108 216,104 216,104 216,104 220,101 220,101 234.623,101 267.167,71 289,71 289,71 292,71 292,71 292,71 294,76 294,76 294,76 240.5,133 240.5,133 240.5,133 223,147 223,147  Z"/></g><g id="#400000,39,ACAd,Anterior%20cingulate%20area%2C%20dorsal%20part" fill="none" stroke="#400000" stroke-width="2.6666666666666665"><path d=" M540 205 C540,207.009 566.81,227 570,227 570,227 570,89 570,89 570,89 566,86 566,86 566,86 567,136.5 567,136.5 563.969,142.562 540,202.242 540,205  Z"/></g><g id="#00c000,378,SSs,Supplemental%20somatosensory%20area" fill="none" stroke="#00c000" stroke-width="2.6666666666666665"><path d=" M164 418 C164,423.033 148.449,433.025 144.5,435 L135,440 C118.067,440 90.4142,449.328 81,430.5 81,430.5 63,374 63,374 63,374 63,367 63,367 63,340.552 80,314.079 80,291 80,273.002 110.868,213.764 120,195.5 120,195.5 136,172 136,172 136,172 165,144 165,144 165,144 149,168.5 149,168.5 138.989,188.521 123,212.258 123,236 123,236 124,282.5 124,282.5 124,282.5 126,298 126,298 126,318.864 136.413,332.327 145,349.5 145,349.5 160,362.5 160,362.5 160,362.5 164,418 164,418  Z"/></g><g id="#408000,353,SSp-n,Primary%20somatosensory%20area%2C%20nose" fill="none" stroke="#408000" stroke-width="2.6666666666666665"><path d=" M123 236 L124,282.5 L126,298 C126,298 145,262.5 145,262.5 156.575,239.349 183.426,204.037 207.5,192 207.5,192 225,175 225,175 225,175 231,152.5 231,152.5 231,152.5 223,147 223,147 207.045,147 153.3,191.9 146,206.5 146,206.5 123,236 123,236  Z"/></g><g id="#008000,345,SSp-m,Primary%20somatosensory%20area%2C%20mouth" fill="none" stroke="#008000" stroke-width="2.6666666666666665"><path d=" M209 393 L164,418 C164,418 160,362.5 160,362.5 160,362.5 145,349.5 145,349.5 136.413,332.327 126,318.864 126,298 126,298 145,262.5 145,262.5 156.575,239.349 183.426,204.037 207.5,192 207.5,192 225,175 225,175 225,175 241.5,165 241.5,165 241.5,165 253,169 253,169 253,169 264,196 264,196 264,196 230,252.5 230,252.5 208.621,295.258 209,343.29 209,393  Z"/></g><g id="#80c040,1011,AUDd,Dorsal%20auditory%20area" fill="none" stroke="#80c040" stroke-width="2.6666666666666665"><path d=" M74 288 L80,291 C80,273.002 110.868,213.764 120,195.5 120,195.5 136,172 136,172 136,172 104,208.5 104,208.5 104,208.5 97,221 97,221 97,221 74,288 74,288  Z"/></g><g id="#808040,972,PL,Prelimbic%20area" fill="none" stroke="#808040" stroke-width="2.6666666666666665"><path d=" M545 272 L570,286 C570,286 570,227 570,227 566.81,227 540,207.009 540,205 521.509,205 514.238,208.262 500,222.5 500,222.5 493,230 493,230 505.32,230 545,259.363 545,272  Z"/></g><g id="#40c040,1002,AUDp,Primary%20auditory%20area" fill="none" stroke="#40c040" stroke-width="2.6666666666666665"><path d=" M74 288 L61.5,319 L56,327 C56,297.421 71.4964,266.507 84,241.5 84,241.5 97,221 97,221 97,221 74,288 74,288  Z"/></g><g id="#404000,184,FRP,Frontal%20pole%2C%20cerebral%20cortex" fill="none" stroke="#404000" stroke-width="2.6666666666666665"><path d=" M473 292 C490.844,292 510.57,302 520,302 520,302 538.5,308 538.5,308 549.215,302.643 545,281.398 545,272 545,259.363 505.32,230 493,230 466.972,230 412.772,236.956 401,260.5 388.544,285.412 381.25,286.999 395,314.5 395,314.5 404,324 404,324 404,324 473,292 473,292  Z"/></g><g id="#c00040,731,ORBm,Orbital%20area%2C%20medial%20part" fill="none" stroke="#c00040" stroke-width="2.6666666666666665"><path d=" M520 302 L536,351.5 C548.197,375.893 554,423.579 554,452 575.286,452 570,429.003 570,412.5 570,412.5 570,286 570,286 570,286 545,272 545,272 545,281.398 549.215,302.643 538.5,308 538.5,308 520,302 520,302  Z"/></g><g id="#c0c040,1018,AUDv,Ventral%20auditory%20area" fill="none" stroke="#c0c040" stroke-width="2.6666666666666665"><path d=" M63 367 L53,377 C53,377 56,327 56,327 56,327 61.5,319 61.5,319 61.5,319 74,288 74,288 74,288 80,291 80,291 80,314.079 63,340.552 63,367  Z"/></g><g id="#800040,723,ORBl,Orbital%20area%2C%20lateral%20part" fill="none" stroke="#800040" stroke-width="2.6666666666666665"><path d=" M378 434 L374,466 C374,466 398.5,449 398.5,449 409.519,443.491 458.64,416 467,416 467,406.981 447.931,379.637 456,363.5 456,363.5 473,292 473,292 473,292 404,324 404,324 404,324 395,353 395,353 395,381.727 378,407.004 378,434  Z"/></g><g id="#004040,746,ORBvl,Orbital%20area%2C%20ventrolateral%20part" fill="none" stroke="#004040" stroke-width="2.6666666666666665"><path d=" M467 416 C489.496,416 508.851,427.176 528.5,437 L554,452 C554,423.579 548.197,375.893 536,351.5 536,351.5 520,302 520,302 510.57,302 490.844,292 473,292 473,292 456,363.5 456,363.5 447.931,379.637 467,406.981 467,416  Z"/></g><g id="#800000,104,AId,Agranular%20insular%20area%2C%20dorsal%20part" fill="none" stroke="#800000" stroke-width="2.6666666666666665"><path d=" M158 489 L169,519 C193.482,519 281.261,487.62 304.5,476 304.5,476 378,434 378,434 378,407.004 395,381.727 395,353 377.078,353 358.356,337.072 340.5,346 340.5,346 295,387 295,387 276.931,387 242.58,434 220,434 220,434 205.5,445 205.5,445 196.85,453.65 158,476.502 158,489  Z"/></g><g id="#000040,541,TEa,Temporal%20association%20areas" fill="none" stroke="#000040" stroke-width="2.6666666666666665"><path d=" M53 377 C53,390.864 52.1139,410.728 58,422.5 59.5661,425.632 56.7407,438 63,438 63,438 63,374 63,374 63,374 63,367 63,367 63,367 53,377 53,377  Z"/></g><g id="#400040,677,VISC,Visceral%20area" fill="none" stroke="#400040" stroke-width="2.6666666666666665"><path d=" M70 482 L81.5,496 L101,500 C101,474.222 111.82,472.861 121,454.5 121,454.5 135,440 135,440 118.067,440 90.4142,449.328 81,430.5 81,430.5 63,374 63,374 63,374 63,438 63,438 63,438 65,460 65,460 65,460 68,469 68,469 68,469 70,482 70,482  Z"/></g><g id="#000080,1057,GU,Gustatory%20areas" fill="none" stroke="#000080" stroke-width="2.6666666666666665"><path d=" M158 489 L130.5,499 L101,500 C101,474.222 111.82,472.861 121,454.5 121,454.5 135,440 135,440 135,440 144.5,435 144.5,435 148.449,433.025 164,423.033 164,418 164,418 209,393 209,393 209,393 220,434 220,434 220,434 205.5,445 205.5,445 196.85,453.65 158,476.502 158,489  Z"/></g><g id="#004000,119,AIv,Agranular%20insular%20area%2C%20ventral%20part" fill="none" stroke="#004000" stroke-width="2.6666666666666665"><path d=" M169 519 L179,542 C215.924,542 269.386,536.057 301.5,520 301.5,520 334.5,496 334.5,496 334.5,496 374,466 374,466 374,466 378,434 378,434 378,434 304.5,476 304.5,476 281.261,487.62 193.482,519 169,519  Z"/></g><g id="#408040,922,PERI,Perirhinal%20area" fill="none" stroke="#408040" stroke-width="2.6666666666666665"><path d=" M70 486 L83,517 C69.0953,517 65,469.009 65,460 65,460 68,469 68,469 63.6116,469 67.8974,486 70,486  Z"/></g><g id="#008040,895,ECT,Ectorhinal%20area" fill="none" stroke="#008040" stroke-width="2.6666666666666665"><path d=" M70 482 L70,486 C67.8974,486 63.6116,469 68,469 68,469 70,482 70,482  Z"/></g><g id="#c00000,111,AIp,Agranular%20insular%20area%2C%20posterior%20part" fill="none" stroke="#c00000" stroke-width="2.6666666666666665"><path d=" M169 519 L179,542 C161.903,542 140.516,559.008 122.5,550 113.61,545.555 97.3639,541.228 92,530.5 92,530.5 83,517 83,517 83,517 70,486 70,486 70,486 70,482 70,482 70,482 81.5,496 81.5,496 81.5,496 101,500 101,500 101,500 130.5,499 130.5,499 130.5,499 158,489 158,489 158,489 169,519 169,519  Z"/></g><g id="area_labels" style="fill:#000; text-anchor: middle; dominant-baseline: middle; font-size:13.333333333333334px; font-family: sans-serif">
<g><text stroke-width="1.3333333333333335" stroke="#666" x="453.8119443555662" y="28.064106127951884">RSPagl</text>
<text x="453.8119443555662" y="28.064106127951884">RSPagl</text></g>
<g><text stroke-width="1.3333333333333335" stroke="#666" x="518.0427442833372" y="29.52572527290711">RSPd</text>
<text x="518.0427442833372" y="29.52572527290711">RSPd</text></g>
<g><text stroke-width="1.3333333333333335" stroke="#666" x="423.40087033468967" y="26.970360170236837">VISam</text>
<text x="423.40087033468967" y="26.970360170236837">VISam</text></g>
<g><text stroke-width="1.3333333333333335" stroke="#666" x="315.2510424250233" y="57.25">VISa</text>
<text x="315.2510424250233" y="57.25">VISa</text></g>
<g><text stroke-width="1.3333333333333335" stroke="#666" x="360.8239902746756" y="49.358185821916045">SSp-tr</text>
<text x="360.8239902746756" y="49.358185821916045">SSp-tr</text></g>
<g><text stroke-width="1.3333333333333335" stroke="#666" x="567.296875" y="74.609375">RSPv</text>
<text x="567.296875" y="74.609375">RSPv</text></g>
<g><text stroke-width="1.3333333333333335" stroke="#666" x="363.8493739911487" y="76.74729852834255">SSp-ll</text>
<text x="363.8493739911487" y="76.74729852834255">SSp-ll</text></g>
<g><text stroke-width="1.3333333333333335" stroke="#666" x="245.72130563292524" y="363.76781656960287">MOp</text>
<text x="245.72130563292524" y="363.76781656960287">MOp</text></g>
<g><text stroke-width="1.3333333333333335" stroke="#666" x="465.48088664197627" y="165.37083496251816">MOs</text>
<text x="465.48088664197627" y="165.37083496251816">MOs</text></g>
<g><text stroke-width="1.3333333333333335" stroke="#666" x="293.0275589418485" y="61.564547849713065">VISp</text>
<text x="293.0275589418485" y="61.564547849713065">VISp</text></g>
<g><text stroke-width="1.3333333333333335" stroke="#666" x="313.9958590385035" y="108.9258398961009">SSp-ul</text>
<text x="313.9958590385035" y="108.9258398961009">SSp-ul</text></g>
<g><text stroke-width="1.3333333333333335" stroke="#666" x="234.14082960063962" y="96.046875">VISrl</text>
<text x="234.14082960063962" y="96.046875">VISrl</text></g>
<g><text stroke-width="1.3333333333333335" stroke="#666" x="240.93362545981898" y="147.89919219981442">SSp-un</text>
<text x="240.93362545981898" y="147.89919219981442">SSp-un</text></g>
<g><text stroke-width="1.3333333333333335" stroke="#666" x="217.1207310288471" y="126.8396211142579">SSp-bfd</text>
<text x="217.1207310288471" y="126.8396211142579">SSp-bfd</text></g>
<g><text stroke-width="1.3333333333333335" stroke="#666" x="555.625" y="200.37831957245243">ACAd</text>
<text x="555.625" y="200.37831957245243">ACAd</text></g>
<g><text stroke-width="1.3333333333333335" stroke="#666" x="115.31246914464238" y="385.3126202822329">SSs</text>
<text x="115.31246914464238" y="385.3126202822329">SSs</text></g>
<g><text stroke-width="1.3333333333333335" stroke="#666" x="198.66352114597274" y="176.56958514735595">SSp-n</text>
<text x="198.66352114597274" y="176.56958514735595">SSp-n</text></g>
<g><text stroke-width="1.3333333333333335" stroke="#666" x="167.82759713188676" y="306.26828882668724">SSp-m</text>
<text x="167.82759713188676" y="306.26828882668724">SSp-m</text></g>
<g><text stroke-width="1.3333333333333335" stroke="#666" x="101.06487939751149" y="222.68520725263937">AUDd</text>
<text x="101.06487939751149" y="222.68520725263937">AUDd</text></g>
<g><text stroke-width="1.3333333333333335" stroke="#666" x="538.97710909316" y="230.58547341146792">PL</text>
<text x="538.97710909316" y="230.58547341146792">PL</text></g>
<g><text stroke-width="1.3333333333333335" stroke="#666" x="62.95218918587863" y="298.07504873443895">AUDp</text>
<text x="62.95218918587863" y="298.07504873443895">AUDp</text></g>
<g><text stroke-width="1.3333333333333335" stroke="#666" x="437.1850924780333" y="269.68530167873473">FRP</text>
<text x="437.1850924780333" y="269.68530167873473">FRP</text></g>
<g><text stroke-width="1.3333333333333335" stroke="#666" x="549.1724382829905" y="325.6540143905138">ORBm</text>
<text x="549.1724382829905" y="325.6540143905138">ORBm</text></g>
<g><text stroke-width="1.3333333333333335" stroke="#666" x="72.28240841028867" y="311.90482583953974">AUDv</text>
<text x="72.28240841028867" y="311.90482583953974">AUDv</text></g>
<g><text stroke-width="1.3333333333333335" stroke="#666" x="421.3700532398515" y="399.8316641409783">ORBl</text>
<text x="421.3700532398515" y="399.8316641409783">ORBl</text></g>
<g><text stroke-width="1.3333333333333335" stroke="#666" x="498.2458795376431" y="373.14390214811806">ORBvl</text>
<text x="498.2458795376431" y="373.14390214811806">ORBvl</text></g>
<g><text stroke-width="1.3333333333333335" stroke="#666" x="334.8055153842977" y="408.9189830454034">AId</text>
<text x="334.8055153842977" y="408.9189830454034">AId</text></g>
<g><text stroke-width="1.3333333333333335" stroke="#666" x="57.559433673538436" y="402.5">TEa</text>
<text x="57.559433673538436" y="402.5">TEa</text></g>
<g><text stroke-width="1.3333333333333335" stroke="#666" x="86.82800479673284" y="465.7341185498653">VISC</text>
<text x="86.82800479673284" y="465.7341185498653">VISC</text></g>
<g><text stroke-width="1.3333333333333335" stroke="#666" x="184.2048534307833" y="433.2449950795698">GU</text>
<text x="184.2048534307833" y="433.2449950795698">GU</text></g>
<g><text stroke-width="1.3333333333333335" stroke="#666" x="266.32551742139003" y="514.7353504473094">AIv</text>
<text x="266.32551742139003" y="514.7353504473094">AIv</text></g>
<g><text stroke-width="1.3333333333333335" stroke="#666" x="74.43748417025887" y="511.4380022138019">PERI</text>
<text x="74.43748417025887" y="511.4380022138019">PERI</text></g>
<g><text stroke-width="1.3333333333333335" stroke="#666" x="66.29579300134469" y="471.6801826458723">ECT</text>
<text x="66.29579300134469" y="471.6801826458723">ECT</text></g>
<g><text stroke-width="1.3333333333333335" stroke="#666" x="135.69381762377049" y="525.9418739449288">AIp</text>
<text x="135.69381762377049" y="525.9418739449288">AIp</text></g>
</g></svg>