<svg xmlns="http://www.w3.org/2000/svg" xmlns:xlink="http://www.w3.org/1999/xlink" height="132" width="114"><g/><g id="#800000,184,FRP,Frontal%20pole%2C%20cerebral%20cortex" fill="none" stroke="#800000" stroke-width="0.44"><path d=" M52 20 L54,20 C54,17.7976 49,17.0208 49,19 49,20.4729 50.9521,20 52,20  Z"/><path d=" M68 19 C68,20.4729 66.0479,20 65,20 65,20 64,18 64,18 64,18 68,19 68,19  Z"/></g><g id="#404040,972,PL,Prelimbic%20area" fill="none" stroke="#404040" stroke-width="0.44"><path d=" M60 26 L56,28 C56,25.1123 52,23.0151 52,20 52,20 54,20 54,20 54,20 57.5,21 57.5,21 60.53,19.485 60.2339,18 64,18 64,18 65,20 65,20 65,20 60,26 60,26  Z"/></g><g id="#c04040,993,MOs,Secondary%20motor%20area" fill="none" stroke="#c04040" stroke-width="0.44"><path d=" M63 61 L65,61 C65,52.6938 69.2792,45.2208 74.5,40 76.4841,38.0159 86,30.2754 86,28 86,28 84,25.5 84,25.5 81.3386,20.1771 73.7381,19 68,19 68,20.4729 66.0479,20 65,20 65,20 60,26 60,26 60,33.0805 56,43.8094 56,28 56,25.1123 52,23.0151 52,20 50.9521,20 49,20.4729 49,19 41.9715,19 33.2915,18.9169 30,25.5 30,25.5 28,28 28,28 28,28 32.5,33 32.5,33 40.0735,36.7868 46.5806,46.6612 50,53.5 50,53.5 50,61 50,61 50,61 53,61 53,61 53,61 63,61 63,61  Z"/></g><g id="#400000,39,ACAd,Anterior%20cingulate%20area%2C%20dorsal%20part" fill="none" stroke="#400000" stroke-width="0.44"><path d=" M60 26 L56,28 C56,43.8094 60,33.0805 60,26  Z"/></g><g id="#804040,985,MOp,Primary%20motor%20area" fill="none" stroke="#804040" stroke-width="0.44"><path d=" M46 61 L50,61 C50,61 50,53.5 50,53.5 46.5806,46.6612 40.0735,36.7868 32.5,33 32.5,33 28,28 28,28 26.2182,28 21,34.4823 21,36 22.9882,36 27,41.237 27,43 29.5445,43 36,48.4352 36,51 39.3902,51 46,57.8695 46,61  Z"/><path d=" M68 61 L69,61 C69,58.1612 76.1612,51 79,51 79,47.5362 84.7921,43 88,43 88,41.3317 91.0985,37 93,37 93,34.9924 88.5069,28 86,28 86,30.2754 76.4841,38.0159 74.5,40 69.2792,45.2208 65,52.6938 65,61 65,61 68,61 68,61  Z"/></g><g id="#404000,345,SSp-m,Primary%20somatosensory%20area%2C%20mouth" fill="none" stroke="#404000" stroke-width="0.44"><path d=" M23 50 C19.1064,50 16.3947,52 13,52 13,52 13,49 13,49 13,47.6306 19.8642,36 21,36 22.9882,36 27,41.237 27,43 25.3156,43 26,47.6792 26,49 26,49 23,50 23,50  Z"/><path d=" M92 50 C95.5194,50 97.8435,52 101,52 101,52 101,49 101,49 101,46.9043 94.9355,37 93,37 91.0985,37 88,41.3317 88,43 88,44.5637 89,46.8764 89,49 89,49 92,50 92,50  Z"/></g><g id="#008000,369,SSp-ul,Primary%20somatosensory%20area%2C%20upper%20limb" fill="none" stroke="#008000" stroke-width="0.44"><path d=" M35 64 C35,65.5774 33.2383,66 32,66 32,60.0481 26,55.6504 26,49 26,47.6792 25.3156,43 27,43 29.5445,43 36,48.4352 36,51 36,54.3455 34.3449,54.8102 33,57.5 31.7224,60.0552 35,62.0163 35,64  Z"/><path d=" M80 65 L83,66 C83,60.0481 89,55.6504 89,49 89,46.8764 88,44.5637 88,43 84.7921,43 79,47.5362 79,51 79,54.3455 80.6551,54.8102 82,57.5 83.2917,60.0834 80,62.6206 80,65  Z"/></g><g id="#408000,378,SSs,Supplemental%20somatosensory%20area" fill="none" stroke="#408000" stroke-width="0.44"><path d=" M16 79 L17,79 C17,72.3132 13,68.0537 13,61 10.7137,61 13,53.5171 13,52 13,52 13,49 13,49 9.72347,49 7,65.6032 7,69 7,69 8,70 8,70 12.2023,70 12.9544,79 16,79  Z"/><path d=" M98 79 L99,79 C101.485,79 102.355,70 106,70 106,70 107,70 107,70 107,66.3478 104.526,49 101,49 101,49 101,52 101,52 101,52.8918 103.819,61 101,61 101,61 102,64.5 102,64.5 99.7077,69.0846 98,73.4081 98,79  Z"/></g><g id="#00c040,182305689,SSp-un,Primary%20somatosensory%20area%2C%20unassigned" fill="none" stroke="#00c040" stroke-width="0.44"><path d=" M30 66 L32,66 C32,60.0481 26,55.6504 26,49 26,49 23,50 23,50 23,50 23,56 23,56 23,56.2489 30,62.4209 30,66  Z"/><path d=" M83 66 L85,66 C85,63.006 88.4586,57 92,57 92,57 91,54.5 91,54.5 91,54.5 92,50 92,50 92,50 89,49 89,49 89,55.6504 83,60.0481 83,66  Z"/></g><g id="#804000,353,SSp-n,Primary%20somatosensory%20area%2C%20nose" fill="none" stroke="#804000" stroke-width="0.44"><path d=" M23 56 C20.7867,56 16.3841,61 13,61 10.7137,61 13,53.5171 13,52 16.3947,52 19.1064,50 23,50 23,50 23,56 23,56  Z"/><path d=" M92 57 L101,61 C103.819,61 101,52.8918 101,52 97.8435,52 95.5194,50 92,50 92,50 91,54.5 91,54.5 91,54.5 92,57 92,57  Z"/></g><g id="#004000,337,SSp-ll,Primary%20somatosensory%20area%2C%20lower%20limb" fill="none" stroke="#004000" stroke-width="0.44"><path d=" M46 61 C42.1824,61 39.3224,64 35,64 35,62.0163 31.7224,60.0552 33,57.5 34.3449,54.8102 36,54.3455 36,51 39.3902,51 46,57.8695 46,61  Z"/><path d=" M69 61 L80,65 C80,62.6206 83.2917,60.0834 82,57.5 80.6551,54.8102 79,54.3455 79,51 76.1612,51 69,58.1612 69,61  Z"/></g><g id="#c00000,329,SSp-bfd,Primary%20somatosensory%20area%2C%20barrel%20field" fill="none" stroke="#c00000" stroke-width="0.44"><path d=" M17 79 L19,79 C19,79 29,72 29,72 29,72 30,70 30,70 30,70 30,66 30,66 30,62.4209 23,56.2489 23,56 20.7867,56 16.3841,61 13,61 13,68.0537 17,72.3132 17,79  Z"/><path d=" M96 79 L98,79 C98,73.4081 99.7077,69.0846 102,64.5 102,64.5 101,61 101,61 101,61 92,57 92,57 88.4586,57 85,63.006 85,66 85,66 85,70 85,70 85,70 86,73 86,73 89.803,73 92.2788,79 96,79  Z"/></g><g id="#c04000,361,SSp-tr,Primary%20somatosensory%20area%2C%20trunk" fill="none" stroke="#c04000" stroke-width="0.44"><path d=" M45 67 C39.8259,67 35.5063,70 30,70 30,70 30,66 30,66 30,66 32,66 32,66 33.2383,66 35,65.5774 35,64 39.3224,64 42.1824,61 46,61 46,63.1236 45,65.4363 45,67  Z"/><path d=" M71 68 L85,70 C85,70 85,66 85,66 85,66 83,66 83,66 83,66 80,65 80,65 80,65 69,61 69,61 69,61 68,61 68,61 68,62.3451 69.5705,68 71,68  Z"/></g><g id="#004040,894,RSPagl,Retrosplenial%20area%2C%20lateral%20agranular%20part" fill="none" stroke="#004040" stroke-width="0.44"><path d=" M49 94 L46,97 C44.5271,97 45,95.0479 45,94 45,94 43,81 43,81 43,81 44,72 44,72 44,72 45,67 45,67 45,65.4363 46,63.1236 46,61 46,61 50,61 50,61 50,61 53,61 53,61 53,62.4456 48.0056,69.4888 47,71.5 44.5561,76.3878 49,88.6317 49,94  Z"/><path d=" M71 94 L71,99 C69.3317,99 65,95.9015 65,94 67.3569,94 66.2644,87.9712 67,86.5 68.6064,83.2873 68.5707,70.6415 67,67.5 67,67.5 63,61 63,61 63,61 65,61 65,61 65,61 68,61 68,61 68,62.3451 69.5705,68 71,68 71,68 71,72 71,72 71,72 72,81 72,81 72,85.0765 71,89.431 71,94  Z"/></g><g id="#800040,879,RSPd,Retrosplenial%20area%2C%20dorsal%20part" fill="none" stroke="#800040" stroke-width="0.44"><path d=" M59 86 C59,88.9552 61.6171,94 65,94 67.3569,94 66.2644,87.9712 67,86.5 68.6064,83.2873 68.5707,70.6415 67,67.5 67,67.5 63,61 63,61 63,61 53,61 53,61 53,62.4456 48.0056,69.4888 47,71.5 44.5561,76.3878 49,88.6317 49,94 52.3829,94 55,88.9552 55,86 55,86 56.5,70 56.5,70 57.6193,69.4403 58.6274,71.7549 59,72.5 59,72.5 59,86 59,86  Z"/></g><g id="#40c040,312782546,VISa,Anterior%20area" fill="none" stroke="#40c040" stroke-width="0.44"><path d=" M34 78 L35,78 C35,75.5736 42.0451,72 44,72 44,72 45,67 45,67 39.8259,67 35.5063,70 30,70 30,70 29,72 29,72 29,73.3437 30,75.1446 30,77 30,77 34,78 34,78  Z"/><path d=" M80 78 L81,78 C81,78 85,77 85,77 85,75.8548 84.4209,73 86,73 86,73 85,70 85,70 85,70 71,68 71,68 71,68 71,72 71,72 72.9549,72 80,75.5736 80,78  Z"/></g><g id="#808040,1018,AUDv,Ventral%20auditory%20area" fill="none" stroke="#808040" stroke-width="0.44"><path d=" M8 72 L6,73 C6,73 7,69 7,69 7,69 8,70 8,70 8,70 8,72 8,72  Z"/><path d=" M106 72 L108,73 C108,73 107,70 107,70 107,70 106,70 106,70 106,70 106,72 106,72  Z"/><path d=" M9 88 L7,89 C7,89 6,85 6,85 6,85 9,87 9,87 9,87 9,88 9,88  Z"/><path d=" M106 89 L107,89 C107,89 108,85 108,85 108,85 106,87 106,87 106,87 106,89 106,89  Z"/></g><g id="#408040,1011,AUDd,Dorsal%20auditory%20area" fill="none" stroke="#408040" stroke-width="0.44"><path d=" M12 81 C12.9272,81 14,80.7384 14,82 15.5774,82 16,80.2383 16,79 12.9544,79 12.2023,70 8,70 8,70 8,72 8,72 8,72 12,81 12,81  Z"/><path d=" M103 81 L100,82 C100,82 99,79 99,79 101.485,79 102.355,70 106,70 106,70 106,72 106,72 106,72 103,81 103,81  Z"/></g><g id="#c00040,886,RSPv,Retrosplenial%20area%2C%20ventral%20part" fill="none" stroke="#c00040" stroke-width="0.44"><path d=" M55 86 L59,86 C59,86 59,72.5 59,72.5 58.6274,71.7549 57.6193,69.4403 56.5,70 56.5,70 55,86 55,86  Z"/></g><g id="#008040,1002,AUDp,Primary%20auditory%20area" fill="none" stroke="#008040" stroke-width="0.44"><path d=" M6 85 L9,87 C10.0484,87 12,82.0331 12,81 12,81 8,72 8,72 8,72 6,73 6,73 6,73 6,85 6,85  Z"/><path d=" M108 85 L106,87 C103.686,87 103,82.7376 103,81 103,81 106,72 106,72 106,72 108,73 108,73 108,73 108,85 108,85  Z"/></g><g id="#80c000,417,VISrl,Rostrolateral%20visual%20area" fill="none" stroke="#80c000" stroke-width="0.44"><path d=" M19 79 C19,81.3644 22,82.0533 22,84 22,84 30,77 30,77 30,75.1446 29,73.3437 29,72 29,72 19,79 19,79  Z"/><path d=" M96 79 L93,84 C93,84 85,77 85,77 85,75.8548 84.4209,73 86,73 89.803,73 92.2788,79 96,79  Z"/></g><g id="#c08000,394,VISam,Anteromedial%20visual%20area" fill="none" stroke="#c08000" stroke-width="0.44"><path d=" M35 78 C35,79.2907 41.457,81 43,81 43,81 44,72 44,72 42.0451,72 35,75.5736 35,78  Z"/><path d=" M80 78 C80,79.2907 73.543,81 72,81 72,81 71,72 71,72 72.9549,72 80,75.5736 80,78  Z"/></g><g id="#808000,385,VISp,Primary%20visual%20area" fill="none" stroke="#808000" stroke-width="0.44"><path d=" M21 100 L25,104 C28.7572,104 46,100.921 46,97 44.5271,97 45,95.0479 45,94 42.2727,94 34,80.5861 34,78 34,78 30,77 30,77 30,77 22,84 22,84 22,84.9272 22.2616,86 21,86 21,86 21,100 21,100  Z"/><path d=" M93 100 L90,104 C86.7559,104 71,101.928 71,99 71,99 71,94 71,94 72.7031,94 81,79.7192 81,78 81,78 85,77 85,77 85,77 93,84 93,84 93,84 93,86 93,86 93,86 94,95.5 94,95.5 93.1408,97.2185 93,97.8871 93,100  Z"/></g><g id="#000040,533,VISpm,posteromedial%20visual%20area" fill="none" stroke="#000040" stroke-width="0.44"><path d=" M43 81 L45,94 C42.2727,94 34,80.5861 34,78 34,78 35,78 35,78 35,79.2907 41.457,81 43,81  Z"/><path d=" M72 81 C72,85.0765 71,89.431 71,94 72.7031,94 81,79.7192 81,78 81,78 80,78 80,78 80,79.2907 73.543,81 72,81  Z"/></g><g id="#00c000,402,VISal,Anterolateral%20visual%20area" fill="none" stroke="#00c000" stroke-width="0.44"><path d=" M15 87 L16,87 C16,87 21,86 21,86 22.2616,86 22,84.9272 22,84 22,82.0533 19,81.3644 19,79 19,79 17,79 17,79 17,79 16,79 16,79 16,80.2383 15.5774,82 14,82 14,82 14,86 14,86 14,86 15,87 15,87  Z"/><path d=" M98 87 L100,87 C100,87 100,86 100,86 100,86 100,82 100,82 100,82 99,79 99,79 99,79 98,79 98,79 98,79 96,79 96,79 96,79 93,84 93,84 93,84 93,86 93,86 94.2345,86 98,85.3574 98,87  Z"/></g><g id="#c08040,1027,AUDpo,Posterior%20auditory%20area" fill="none" stroke="#c08040" stroke-width="0.44"><path d=" M9 87 L9,88 C10.4242,88 14,87.6384 14,86 14,86 14,82 14,82 14,80.7384 12.9272,81 12,81 12,82.0331 10.0484,87 9,87  Z"/><path d=" M106 87 L106,89 C103.725,89 102.486,86 100,86 100,86 100,82 100,82 100,82 103,81 103,81 103,82.7376 103.686,87 106,87  Z"/></g><g id="#400040,541,TEa,Temporal%20association%20areas" fill="none" stroke="#400040" stroke-width="0.44"><path d=" M15 93 L10,95 C7.68638,95 7,90.7376 7,89 7,89 9,88 9,88 10.4242,88 14,87.6384 14,86 14,86 15,87 15,87 15,87 15,93 15,93  Z"/><path d=" M100 93 C101.137,93 104,93.7996 104,95 106.314,95 107,90.7376 107,89 107,89 106,89 106,89 103.725,89 102.486,86 100,86 100,86 100,87 100,87 100,87 100,93 100,93  Z"/></g><g id="#40c000,409,VISl,Lateral%20visual%20area" fill="none" stroke="#40c000" stroke-width="0.44"><path d=" M18 100 L21,100 C21,100 21,86 21,86 21,86 16,87 16,87 16,89.9784 17,93.4897 17,97 17,97 18,100 18,100  Z"/><path d=" M96 99 L93,100 C93,97.8871 93.1408,97.2185 94,95.5 94,95.5 93,86 93,86 94.2345,86 98,85.3574 98,87 98,90.5103 97,94.0216 97,97 97,97.9272 97.2616,99 96,99  Z"/></g><g id="#80c040,312782574,VISli,Laterointermediate%20area" fill="none" stroke="#80c040" stroke-width="0.44"><path d=" M15 93 C15,94.4655 14.891,97 17,97 17,93.4897 16,89.9784 16,87 16,87 15,87 15,87 15,87 15,93 15,93  Z"/><path d=" M100 93 C100,94.4289 98.7116,97 97,97 97,94.0216 98,90.5103 98,87 98,87 100,87 100,87 100,87 100,93 100,93  Z"/></g><g id="#c0c040,312782628,VISpor,Postrhinal%20area" fill="none" stroke="#c0c040" stroke-width="0.44"><path d=" M18 100 L18,102 C14.9084,102 10,98.364 10,95 10,95 15,93 15,93 15,94.4655 14.891,97 17,97 17,97 18,100 18,100  Z"/><path d=" M96 99 L97,100.5 L96,102 C99.0916,102 104,98.364 104,95 104,93.7996 101.137,93 100,93 100,94.4289 98.7116,97 97,97 97,97.9272 97.2616,99 96,99  Z"/></g><g id="#c0c000,425,VISpl,Posterolateral%20visual%20area" fill="none" stroke="#c0c000" stroke-width="0.44"><path d=" M96 102 C96,103.353 91.3565,104 90,104 90,104 93,100 93,100 93,100 96,99 96,99 96,99 97,100.5 97,100.5 97,100.5 96,102 96,102  Z"/><path d=" M18 102 C20.1595,102 22.1672,104 25,104 25,104 21,100 21,100 21,100 18,100 18,100 18,100 18,102 18,102  Z"/></g><g id="area_labels" style="fill:#000; text-anchor: middle; dominant-baseline: middle; font-size:2.2px; font-family: sans-serif">
<g><text stroke-width="0.22000000000000003" stroke="#666" x="50.72260317124328" y="18.7469240862459">FRP</text>
<text x="50.72260317124328" y="18.7469240862459">FRP</text></g>
<g><text stroke-width="0.22000000000000003" stroke="#666" x="58.49954813751195" y="22.9994621375173">PL</text>
<text x="58.49954813751195" y="22.9994621375173">PL</text></g>
<g><text stroke-width="0.22000000000000003" stroke="#666" x="57.5883891722379" y="38.73787227644307">MOs</text>
<text x="57.5883891722379" y="38.73787227644307">MOs</text></g>
<g><text stroke-width="0.22000000000000003" stroke="#666" x="57.57154519939403" y="34.31871817296041">ACAd</text>
<text x="57.57154519939403" y="34.31871817296041">ACAd</text></g>
<g><text stroke-width="0.22000000000000003" stroke="#666" x="36.71875" y="41.28125">MOp</text>
<text x="36.71875" y="41.28125">MOp</text></g>
<g><text stroke-width="0.22000000000000003" stroke="#666" x="20.375" y="44.875">SSp-m</text>
<text x="20.375" y="44.875">SSp-m</text></g>
<g><text stroke-width="0.22000000000000003" stroke="#666" x="31.30648603407058" y="51.570919552301184">SSp-ul</text>
<text x="31.30648603407058" y="51.570919552301184">SSp-ul</text></g>
<g><text stroke-width="0.22000000000000003" stroke="#666" x="10.125" y="67.125">SSs</text>
<text x="10.125" y="67.125">SSs</text></g>
<g><text stroke-width="0.22000000000000003" stroke="#666" x="24.53125" y="54.09506410232667">SSp-un</text>
<text x="24.53125" y="54.09506410232667">SSp-un</text></g>
<g><text stroke-width="0.22000000000000003" stroke="#666" x="16.213707121100406" y="55.5">SSp-n</text>
<text x="16.213707121100406" y="55.5">SSp-n</text></g>
<g><text stroke-width="0.22000000000000003" stroke="#666" x="38.86271096358727" y="57.5">SSp-ll</text>
<text x="38.86271096358727" y="57.5">SSp-ll</text></g>
<g><text stroke-width="0.22000000000000003" stroke="#666" x="22.34375" y="67.03125">SSp-bfd</text>
<text x="22.34375" y="67.03125">SSp-bfd</text></g>
<g><text stroke-width="0.22000000000000003" stroke="#666" x="42.8125" y="64.3125">SSp-tr</text>
<text x="42.8125" y="64.3125">SSp-tr</text></g>
<g><text stroke-width="0.22000000000000003" stroke="#666" x="48.625613892192966" y="64.12446796009944">RSPagl</text>
<text x="48.625613892192966" y="64.12446796009944">RSPagl</text></g>
<g><text stroke-width="0.22000000000000003" stroke="#666" x="57.11559141025464" y="76.74647606308613">RSPd</text>
<text x="57.11559141025464" y="76.74647606308613">RSPd</text></g>
<g><text stroke-width="0.22000000000000003" stroke="#666" x="33.1875" y="73.8125">VISa</text>
<text x="33.1875" y="73.8125">VISa</text></g>
<g><text stroke-width="0.22000000000000003" stroke="#666" x="7.502493161397049" y="86.9988128613268">AUDv</text>
<text x="7.502493161397049" y="86.9988128613268">AUDv</text></g>
<g><text stroke-width="0.22000000000000003" stroke="#666" x="10.3125" y="72.3125">AUDd</text>
<text x="10.3125" y="72.3125">AUDd</text></g>
<g><text stroke-width="0.22000000000000003" stroke="#666" x="57.271136220055304" y="78.42043001716428">RSPv</text>
<text x="57.271136220055304" y="78.42043001716428">RSPv</text></g>
<g><text stroke-width="0.22000000000000003" stroke="#666" x="8.5" y="81.50428863859737">AUDp</text>
<text x="8.5" y="81.50428863859737">AUDp</text></g>
<g><text stroke-width="0.22000000000000003" stroke="#666" x="24.69435425718507" y="78.04009059615545">VISrl</text>
<text x="24.69435425718507" y="78.04009059615545">VISrl</text></g>
<g><text stroke-width="0.22000000000000003" stroke="#666" x="40.09356669437104" y="77.09356669437103">VISam</text>
<text x="40.09356669437104" y="77.09356669437103">VISam</text></g>
<g><text stroke-width="0.22000000000000003" stroke="#666" x="30.765625" y="93.33300034053651">VISp</text>
<text x="30.765625" y="93.33300034053651">VISp</text></g>
<g><text stroke-width="0.22000000000000003" stroke="#666" x="40.15424623681195" y="84.15424623681196">VISpm</text>
<text x="40.15424623681195" y="84.15424623681196">VISpm</text></g>
<g><text stroke-width="0.22000000000000003" stroke="#666" x="17.92247650564337" y="83.29111022646077">VISal</text>
<text x="17.92247650564337" y="83.29111022646077">VISal</text></g>
<g><text stroke-width="0.22000000000000003" stroke="#666" x="12.4375" y="86.05452318047931">AUDpo</text>
<text x="12.4375" y="86.05452318047931">AUDpo</text></g>
<g><text stroke-width="0.22000000000000003" stroke="#666" x="10.4375" y="91.6875">TEa</text>
<text x="10.4375" y="91.6875">TEa</text></g>
<g><text stroke-width="0.22000000000000003" stroke="#666" x="18.94393299795077" y="92.84909854669489">VISl</text>
<text x="18.94393299795077" y="92.84909854669489">VISl</text></g>
<g><text stroke-width="0.22000000000000003" stroke="#666" x="15.769764019307289" y="92.25559180714059">VISli</text>
<text x="15.769764019307289" y="92.25559180714059">VISli</text></g>
<g><text stroke-width="0.22000000000000003" stroke="#666" x="14.157567880373215" y="97.78903166970044">VISpor</text>
<text x="14.157567880373215" y="97.78903166970044">VISpor</text></g>
<g><text stroke-width="0.22000000000000003" stroke="#666" x="21.5" y="102.0">VISpl</text>
<text x="21.5" y="102.0">VISpl</text></g>
</g></svg>