<svg xmlns="http://www.w3.org/2000/svg" xmlns:xlink="http://www.w3.org/1999/xlink" height="1320" width="1140"><g/><g id="#800000,104,AId,Agranular%20insular%20area%2C%20dorsal%20part" fill="none" stroke="#800000" stroke-width="4.4"><path d=" M212 312 L221,328 C247.475,328 306.571,264 335,264 335,264 363.5,249 363.5,249 363.5,249 446,216 446,216 446,216 559,175 559,175 559,175 524.5,163 524.5,163 509.27,155.385 485.589,167 470,167 470,173.294 411.848,190.826 403.5,195 403.5,195 359.5,208 359.5,208 359.5,208 317.5,229 317.5,229 317.5,229 259.5,273 259.5,273 245.999,279.75 233.673,300.913 225.5,305 225.5,305 212,312 212,312  Z"/></g><g id="#004000,119,AIv,Agranular%20insular%20area%2C%20ventral%20part" fill="none" stroke="#004000" stroke-width="4.4"><path d=" M205 302 L212,312 C212,312 225.5,305 225.5,305 233.673,300.913 245.999,279.75 259.5,273 259.5,273 317.5,229 317.5,229 317.5,229 359.5,208 359.5,208 359.5,208 403.5,195 403.5,195 411.848,190.826 470,173.294 470,167 470,167 427.5,180 427.5,180 427.5,180 382.5,190 382.5,190 359.549,201.476 331.813,203.343 308.5,215 308.5,215 256.5,257 256.5,257 242.923,263.788 225.967,289.766 221.5,292 221.5,292 205,302 205,302  Z"/></g><g id="#c0c040,993,MOs,Secondary%20motor%20area" fill="none" stroke="#c0c040" stroke-width="4.4"><path d=" M699 679 L681,680 C681,680 687,628.5 687,628.5 687,628.5 683,602.5 683,602.5 683,602.5 681,580.5 681,580.5 681,580.5 664,515.5 664,515.5 646.73,480.96 621.219,450.938 604,416.5 604,416.5 565,363.5 565,363.5 565,363.5 474,254.5 474,254.5 467.86,242.22 446,230.834 446,216 446,216 559,175 559,175 559,175 580,180 580,180 580,180 583,182 583,182 583,182 586,182 586,182 586,182 586,185 586,185 586,197.873 606.411,206.456 615.5,211 642.588,224.544 676.622,231 708,231 708,231 740,288 740,288 740,288 742,293 742,293 742,319.37 748.648,403.203 739,422.5 739,422.5 735,465.5 735,465.5 735,465.5 729,532.5 729,532.5 729,532.5 709,674 709,674 709,674 699,679 699,679  Z"/></g><g id="#c04040,731,ORBm,Orbital%20area%2C%20medial%20part" fill="none" stroke="#c04040" stroke-width="4.4"><path d=" M698 185 L685,191 C685,191 655.5,184 655.5,184 655.5,184 634,184 634,184 634,184 675.5,179 675.5,179 675.5,179 698,185 698,185  Z"/></g><g id="#804040,723,ORBl,Orbital%20area%2C%20lateral%20part" fill="none" stroke="#804040" stroke-width="4.4"><path d=" M580 180 L583,182 C583,182 580,180 580,180  Z"/><path d=" M589 183 L586,185 C586,185 586,182 586,182 586,182 589,183 589,183  Z"/></g><g id="#404000,184,FRP,Frontal%20pole%2C%20cerebral%20cortex" fill="none" stroke="#404000" stroke-width="4.4"><path d=" M724 205 C724,213.9 720.929,231 708,231 676.622,231 642.588,224.544 615.5,211 606.411,206.456 586,197.873 586,185 586,185 589,183 589,183 589,183 614,188 614,188 614,188 630.5,192 630.5,192 630.5,192 671,195 671,195 671,195 685,191 685,191 685,191 698,185 698,185 708.327,185 724,193.044 724,205  Z"/></g><g id="#008040,746,ORBvl,Orbital%20area%2C%20ventrolateral%20part" fill="none" stroke="#008040" stroke-width="4.4"><path d=" M614 188 L630.5,192 L671,195 L685,191 C685,191 655.5,184 655.5,184 655.5,184 634,184 634,184 634,184 614,188 614,188  Z"/></g><g id="#40c040,972,PL,Prelimbic%20area" fill="none" stroke="#40c040" stroke-width="4.4"><path d=" M740 288 L741,288 C741,288 739,255.5 739,255.5 735.307,248.114 735.325,205 724,205 724,213.9 720.929,231 708,231 708,231 740,288 740,288  Z"/></g><g id="#80c040,985,MOp,Primary%20motor%20area" fill="none" stroke="#80c040" stroke-width="4.4"><path d=" M654 680 L681,680 C681,680 687,628.5 687,628.5 687,628.5 683,602.5 683,602.5 683,602.5 681,580.5 681,580.5 681,580.5 664,515.5 664,515.5 646.73,480.96 621.219,450.938 604,416.5 604,416.5 565,363.5 565,363.5 565,363.5 474,254.5 474,254.5 467.86,242.22 446,230.834 446,216 446,216 363.5,249 363.5,249 363.5,249 335,264 335,264 335,264 351,287 351,287 351,287 381.5,316 381.5,316 396.327,323.414 458.786,396.072 467,412.5 467,412.5 488,437 488,437 488,437 518.5,467 518.5,467 518.5,467 574,544 574,544 574,544 596,575.5 596,575.5 612.275,608.051 649,634.122 649,673 649,673 654,680 654,680  Z"/></g><g id="#004080,1057,GU,Gustatory%20areas" fill="none" stroke="#004080" stroke-width="4.4"><path d=" M227 366 C206.291,366 161.21,417 138,417 138,398.479 194.407,360.686 203,343.5 203,343.5 221,328 221,328 247.475,328 306.571,264 335,264 335,264 351,287 351,287 351,287 280,333 280,333 280,333 228,365 228,365 228,365 227,366 227,366  Z"/></g><g id="#008000,345,SSp-m,Primary%20somatosensory%20area%2C%20mouth" fill="none" stroke="#008000" stroke-width="4.4"><path d=" M476 502 C468.667,502 471.563,517.468 464.5,521 456.695,524.903 450.165,522 442,522 442,512.585 414.517,510.509 409.5,508 409.5,508 287,484 287,484 287,457.532 283.531,420.438 295,397.5 295,397.5 308,363.5 308,363.5 308,363.5 290.5,341 290.5,341 290.5,341 280,333 280,333 280,333 351,287 351,287 351,287 381.5,316 381.5,316 396.327,323.414 458.786,396.072 467,412.5 467,412.5 488,437 488,437 488,437 485,454.5 485,454.5 479.179,466.142 476,487.041 476,502  Z"/></g><g id="#400000,39,ACAd,Anterior%20cingulate%20area%2C%20dorsal%20part" fill="none" stroke="#400000" stroke-width="4.4"><path d=" M741 288 L742,293 C742,293 740,288 740,288 740,288 741,288 741,288  Z"/></g><g id="#c00000,111,AIp,Agranular%20insular%20area%2C%20posterior%20part" fill="none" stroke="#c00000" stroke-width="4.4"><path d=" M74 538 L83,543 C83,507.006 103.899,474.701 119,444.5 119,444.5 138,417 138,417 138,398.479 194.407,360.686 203,343.5 203,343.5 221,328 221,328 221,328 212,312 212,312 212,312 205,302 205,302 199.111,302 163.667,344.167 160,351.5 160,351.5 136,382.5 136,382.5 136,382.5 95,457.5 95,457.5 84.4417,478.617 66,500.061 66,524 66,524 74,538 74,538  Z"/></g><g id="#00c000,378,SSs,Supplemental%20somatosensory%20area" fill="none" stroke="#00c000" stroke-width="4.4"><path d=" M322 784 L307,787 C307,787 289,756.5 289,756.5 277.927,734.355 253.147,664.823 233.5,655 223.483,649.992 217.157,629 203,629 203,629 144,598 144,598 144,598 143,594 143,594 143,538.232 147.515,479.47 172,430.5 172,430.5 208.5,384 208.5,384 208.5,384 227,366 227,366 227,366 228,365 228,365 228,365 280,333 280,333 280,333 290.5,341 290.5,341 290.5,341 308,363.5 308,363.5 308,363.5 295,397.5 295,397.5 283.531,420.438 287,457.532 287,484 287,484 291,589 291,589 291,617.761 318.192,713.884 331,739.5 336.301,750.103 325,761.599 325,771.5 325,771.5 322,784 322,784  Z"/></g><g id="#404040,677,VISC,Visceral%20area" fill="none" stroke="#404040" stroke-width="4.4"><path d=" M228 365 L227,366 C227,366 228,365 228,365  Z"/><path d=" M96 558 L143,594 C143,538.232 147.515,479.47 172,430.5 172,430.5 208.5,384 208.5,384 208.5,384 227,366 227,366 206.291,366 161.21,417 138,417 138,417 119,444.5 119,444.5 103.899,474.701 83,507.006 83,543 83,543 96,558 96,558  Z"/></g><g id="#c08000,369,SSp-ul,Primary%20somatosensory%20area%2C%20upper%20limb" fill="none" stroke="#c08000" stroke-width="4.4"><path d=" M553 705 L521,710 C521,686.087 501.656,632.812 491,611.5 477.849,585.198 476,534.022 476,502 476,487.041 479.179,466.142 485,454.5 485,454.5 488,437 488,437 488,437 518.5,467 518.5,467 518.5,467 574,544 574,544 574,601.884 563.877,595.746 541,641.5 541,641.5 553,705 553,705  Z"/></g><g id="#408000,353,SSp-n,Primary%20somatosensory%20area%2C%20nose" fill="none" stroke="#408000" stroke-width="4.4"><path d=" M291 589 L362.5,598 C376.858,605.179 424.143,591 437,591 437,579.956 455.079,567.658 449,555.5 449,555.5 442,522 442,522 442,512.585 414.517,510.509 409.5,508 409.5,508 287,484 287,484 287,484 291,589 291,589  Z"/></g><g id="#404080,182305689,SSp-un,Primary%20somatosensory%20area%2C%20unassigned" fill="none" stroke="#404080" stroke-width="4.4"><path d=" M521 710 L495,715 C495,682.882 488.471,636.971 463.5,612 455.552,604.052 449.539,591 437,591 437,579.956 455.079,567.658 449,555.5 449,555.5 442,522 442,522 450.165,522 456.695,524.903 464.5,521 471.563,517.468 468.667,502 476,502 476,534.022 477.849,585.198 491,611.5 501.656,632.812 521,686.087 521,710  Z"/></g><g id="#00c040,922,PERI,Perirhinal%20area" fill="none" stroke="#00c040" stroke-width="4.4"><path d=" M74 538 L60,602.5 L60,645.5 C51.6925,662.115 63,742.435 63,766 63,766 58,752.5 58,752.5 58,752.5 48,729.5 48,729.5 48,729.5 47,706.5 47,706.5 36.8612,686.222 40.8898,591.72 53,567.5 53,567.5 66,524 66,524 66,524 74,538 74,538  Z"/><path d=" M81 820 L82,821 C82,821 81,820 81,820  Z"/><path d=" M82 822 L84,824 C84,824 82,822 82,822  Z"/><path d=" M84 825 L91,836 C91,836 84,825 84,825  Z"/><path d=" M91 837 L92,838 C92,838 91,837 91,837  Z"/></g><g id="#c08040,895,ECT,Ectorhinal%20area" fill="none" stroke="#c08040" stroke-width="4.4"><path d=" M92 838 L105,843 C105,843 85,806.5 85,806.5 73.7119,783.924 67,748.04 67,721.5 67,701.369 66.4769,643.546 76,624.5 76,624.5 96,558 96,558 96,558 83,543 83,543 83,543 74,538 74,538 74,538 60,602.5 60,602.5 60,602.5 60,645.5 60,645.5 51.6925,662.115 63,742.435 63,766 63,766 81,820 81,820 81,820 82,821 82,821 82,821 82,822 82,822 82,822 84,824 84,824 84,824 84,825 84,825 84,825 91,836 91,836 91,836 91,837 91,837 91,837 92,838 92,838  Z"/></g><g id="#c04000,337,SSp-ll,Primary%20somatosensory%20area%2C%20lower%20limb" fill="none" stroke="#c04000" stroke-width="4.4"><path d=" M649 673 L626.5,687 C606.609,696.945 576.147,705 553,705 553,705 541,641.5 541,641.5 563.877,595.746 574,601.884 574,544 574,544 596,575.5 596,575.5 612.275,608.051 649,634.122 649,673  Z"/></g><g id="#004040,541,TEa,Temporal%20association%20areas" fill="none" stroke="#004040" stroke-width="4.4"><path d=" M105 843 L126.5,852 L217,875 C217,875 258,837 258,837 258,837 261,831 261,831 261,825.187 240.071,829.785 236.5,828 221.153,820.327 183.414,827.457 160.5,816 160.5,816 142,807 142,807 125.013,807 111.996,784.492 106,772.5 88.394,737.288 95.2644,675.971 112,642.5 115.381,635.739 135.256,598 144,598 144,598 143,594 143,594 143,594 96,558 96,558 96,558 76,624.5 76,624.5 66.4769,643.546 67,701.369 67,721.5 67,748.04 73.7119,783.924 85,806.5 85,806.5 105,843 105,843  Z"/></g><g id="#804000,329,SSp-bfd,Primary%20somatosensory%20area%2C%20barrel%20field" fill="none" stroke="#804000" stroke-width="4.4"><path d=" M322 784 L339,793 C368.564,793 408.67,790.915 434.5,778 434.5,778 478,758 478,758 478,758 485,749 485,749 485,736.53 495,726.452 495,715 495,682.882 488.471,636.971 463.5,612 455.552,604.052 449.539,591 437,591 424.143,591 376.858,605.179 362.5,598 362.5,598 291,589 291,589 291,617.761 318.192,713.884 331,739.5 336.301,750.103 325,761.599 325,771.5 325,771.5 322,784 322,784  Z"/></g><g id="#800080,1018,AUDv,Ventral%20auditory%20area" fill="none" stroke="#800080" stroke-width="4.4"><path d=" M159 800 L142,807 C125.013,807 111.996,784.492 106,772.5 88.394,737.288 95.2644,675.971 112,642.5 115.381,635.739 135.256,598 144,598 144,598 203,629 203,629 203,629 191,659 191,659 184.333,659 174.095,648.702 165.5,653 124.112,673.694 124.238,736.976 143,774.5 143,774.5 159,800 159,800  Z"/></g><g id="#400080,1011,AUDd,Dorsal%20auditory%20area" fill="none" stroke="#400080" stroke-width="4.4"><path d=" M307 787 L283,805 C283,805 240,764 240,764 240,748.512 226.003,704.506 219,690.5 219,690.5 191,659 191,659 191,659 203,629 203,629 217.157,629 223.483,649.992 233.5,655 253.147,664.823 277.927,734.355 289,756.5 289,756.5 307,787 307,787  Z"/></g><g id="#000080,1002,AUDp,Primary%20auditory%20area" fill="none" stroke="#000080" stroke-width="4.4"><path d=" M240 764 C240,810.165 188.914,800 159,800 159,800 143,774.5 143,774.5 124.238,736.976 124.112,673.694 165.5,653 174.095,648.702 184.333,659 191,659 191,659 219,690.5 219,690.5 226.003,704.506 240,748.512 240,764  Z"/></g><g id="#808000,361,SSp-tr,Primary%20somatosensory%20area%2C%20trunk" fill="none" stroke="#808000" stroke-width="4.4"><path d=" M626 737 L590.5,746 L485,749 C485,736.53 495,726.452 495,715 495,715 521,710 521,710 521,710 553,705 553,705 576.147,705 606.609,696.945 626.5,687 626.5,687 649,673 649,673 649,673 654,680 654,680 654,695.255 626,728.408 626,737  Z"/></g><g id="#408040,879,RSPd,Retrosplenial%20area%2C%20dorsal%20part" fill="none" stroke="#408040" stroke-width="4.4"><path d=" M699 679 L679,702.5 C671.41,717.681 659.911,730.678 652,746.5 624.153,802.193 612.983,866.534 586,920.5 L563,958.5 L554,967 C573.442,967 607.339,921.58 620.5,915 636.182,907.159 645.858,875.783 653,861.5 667.259,832.982 671.909,800.682 686,772.5 686,772.5 695,732.5 695,732.5 702.619,717.261 709,691.768 709,674 709,674 699,679 699,679  Z"/></g><g id="#808040,894,RSPagl,Retrosplenial%20area%2C%20lateral%20agranular%20part" fill="none" stroke="#808040" stroke-width="4.4"><path d=" M510 981 L502,989 C502,989 554,967 554,967 554,967 563,958.5 563,958.5 563,958.5 586,920.5 586,920.5 612.983,866.534 624.153,802.193 652,746.5 659.911,730.678 671.41,717.681 679,702.5 679,702.5 699,679 699,679 699,679 681,680 681,680 681,680 654,680 654,680 654,695.255 626,728.408 626,737 626,737 608,776 608,776 608,776 572,870 572,870 572,883.586 541.763,948.737 531.5,959 531.5,959 510,981 510,981  Z"/></g><g id="#804080,312782546,VISa,Anterior%20area" fill="none" stroke="#804080" stroke-width="4.4"><path d=" M472 812 L496,823 C520.129,823 550.96,804.77 572.5,794 572.5,794 608,776 608,776 608,776 626,737 626,737 626,737 590.5,746 590.5,746 590.5,746 485,749 485,749 485,749 478,758 478,758 478,758 472,812 472,812  Z"/></g><g id="#400040,417,VISrl,Rostrolateral%20visual%20area" fill="none" stroke="#400040" stroke-width="4.4"><path d=" M472 812 C442.36,812 382.976,853 364,853 364,853 339,793 339,793 368.564,793 408.67,790.915 434.5,778 434.5,778 478,758 478,758 478,758 472,812 472,812  Z"/></g><g id="#c00080,1027,AUDpo,Posterior%20auditory%20area" fill="none" stroke="#c00080" stroke-width="4.4"><path d=" M142 807 L160.5,816 C183.414,827.457 221.153,820.327 236.5,828 240.071,829.785 261,825.187 261,831 261,831 283,805 283,805 283,805 240,764 240,764 240,810.165 188.914,800 159,800 159,800 142,807 142,807  Z"/></g><g id="#80c000,394,VISam,Anteromedial%20visual%20area" fill="none" stroke="#80c000" stroke-width="4.4"><path d=" M496 825 C518.626,825 561.102,870 572,870 572,870 608,776 608,776 608,776 572.5,794 572.5,794 550.96,804.77 520.129,823 496,823 496,823 496,825 496,825  Z"/></g><g id="#c0c000,402,VISal,Anterolateral%20visual%20area" fill="none" stroke="#c0c000" stroke-width="4.4"><path d=" M364 853 L352,863 C352,863 281,847 281,847 281,847 258,837 258,837 258,837 261,831 261,831 261,831 283,805 283,805 283,805 307,787 307,787 307,787 322,784 322,784 322,784 339,793 339,793 339,793 364,853 364,853  Z"/></g><g id="#40c000,385,VISp,Primary%20visual%20area" fill="none" stroke="#40c000" stroke-width="4.4"><path d=" M280 986 C281.993,986 356.085,1001.79 358.5,1003 L407.5,1006 C424.635,1014.57 488.568,989 502,989 502,989 510,981 510,981 510,981 515,964.5 515,964.5 515,964.5 516,922.5 516,922.5 516,890.117 496,854.896 496,825 496,825 496,823 496,823 496,823 472,812 472,812 442.36,812 382.976,853 364,853 364,853 352,863 352,863 352,863 259,959 259,959 259,976.079 280,981.097 280,986  Z"/></g><g id="#c00040,533,VISpm,posteromedial%20visual%20area" fill="none" stroke="#c00040" stroke-width="4.4"><path d=" M572 870 C572,883.586 541.763,948.737 531.5,959 L510,981 C510,981 515,964.5 515,964.5 515,964.5 516,922.5 516,922.5 516,890.117 496,854.896 496,825 518.626,825 561.102,870 572,870  Z"/></g><g id="#c04080,312782574,VISli,Laterointermediate%20area" fill="none" stroke="#c04080" stroke-width="4.4"><path d=" M217 875 L200,894.5 C197.129,900.243 215.883,919 223,919 223,919 281,847 281,847 281,847 258,837 258,837 258,837 217,875 217,875  Z"/></g><g id="#008080,312782628,VISpor,Postrhinal%20area" fill="none" stroke="#008080" stroke-width="4.4"><path d=" M227 927 C216.858,927 200.549,946 185,946 185,946 176.5,943 176.5,943 176.5,943 149.5,923 149.5,923 135.5,916 92,853.474 92,838 92,838 105,843 105,843 105,843 126.5,852 126.5,852 126.5,852 217,875 217,875 217,875 200,894.5 200,894.5 197.129,900.243 215.883,919 223,919 223,919 227,927 227,927  Z"/></g><g id="#000040,409,VISl,Lateral%20visual%20area" fill="none" stroke="#000040" stroke-width="4.4"><path d=" M227 927 L259,959 C259,959 352,863 352,863 352,863 281,847 281,847 281,847 223,919 223,919 223,919 227,927 227,927  Z"/></g><g id="#800040,425,VISpl,Posterolateral%20visual%20area" fill="none" stroke="#800040" stroke-width="4.4"><path d=" M259 959 C259,976.079 280,981.097 280,986 280,986 205.5,957 205.5,957 205.5,957 185,946 185,946 200.549,946 216.858,927 227,927 227,927 259,959 259,959  Z"/></g><g id="area_labels" style="fill:#000; text-anchor: middle; dominant-baseline: middle; font-size:22.0px; font-family: sans-serif">
<g><text stroke-width="2.2" stroke="#666" x="366.07021628427117" y="226.7156137213658">AId</text>
<text x="366.07021628427117" y="226.7156137213658">AId</text></g>
<g><text stroke-width="2.2" stroke="#666" x="313.22538274875564" y="221.94141088715725">AIv</text>
<text x="313.22538274875564" y="221.94141088715725">AIv</text></g>
<g><text stroke-width="2.2" stroke="#666" x="649.228239561996" y="320.8320409903918">MOs</text>
<text x="649.228239561996" y="320.8320409903918">MOs</text></g>
<g><text stroke-width="2.2" stroke="#666" x="677.7992172284016" y="184.31116206856183">ORBm</text>
<text x="677.7992172284016" y="184.31116206856183">ORBm</text></g>
<g><text stroke-width="2.2" stroke="#666" x="587.0537023130294" y="183.37487782040716">ORBl</text>
<text x="587.0537023130294" y="183.37487782040716">ORBl</text></g>
<g><text stroke-width="2.2" stroke="#666" x="701.0781193368897" y="208.35937630358387">FRP</text>
<text x="701.0781193368897" y="208.35937630358387">FRP</text></g>
<g><text stroke-width="2.2" stroke="#666" x="654.2811972730933" y="188.8435163409426">ORBvl</text>
<text x="654.2811972730933" y="188.8435163409426">ORBvl</text></g>
<g><text stroke-width="2.2" stroke="#666" x="725.1706367080867" y="239.63730122699445">PL</text>
<text x="725.1706367080867" y="239.63730122699445">PL</text></g>
<g><text stroke-width="2.2" stroke="#666" x="511.70627563448824" y="382.8078865465183">MOp</text>
<text x="511.70627563448824" y="382.8078865465183">MOp</text></g>
<g><text stroke-width="2.2" stroke="#666" x="315.73828125" y="285.10546875">GU</text>
<text x="315.73828125" y="285.10546875">GU</text></g>
<g><text stroke-width="2.2" stroke="#666" x="372.9309596305768" y="419.09828341431216">SSp-m</text>
<text x="372.9309596305768" y="419.09828341431216">SSp-m</text></g>
<g><text stroke-width="2.2" stroke="#666" x="741.164918670203" y="290.3119410578778">ACAd</text>
<text x="741.164918670203" y="290.3119410578778">ACAd</text></g>
<g><text stroke-width="2.2" stroke="#666" x="181.5264364045185" y="349.20663822869517">AIp</text>
<text x="181.5264364045185" y="349.20663822869517">AIp</text></g>
<g><text stroke-width="2.2" stroke="#666" x="216.2230613334424" y="552.3515048440566">SSs</text>
<text x="216.2230613334424" y="552.3515048440566">SSs</text></g>
<g><text stroke-width="2.2" stroke="#666" x="113.49213945297831" y="522.8200934381554">VISC</text>
<text x="113.49213945297831" y="522.8200934381554">VISC</text></g>
<g><text stroke-width="2.2" stroke="#666" x="525.421875" y="559.8286816073377">SSp-ul</text>
<text x="525.421875" y="559.8286816073377">SSp-ul</text></g>
<g><text stroke-width="2.2" stroke="#666" x="339.9067292818995" y="545.1018901946045">SSp-n</text>
<text x="339.9067292818995" y="545.1018901946045">SSp-n</text></g>
<g><text stroke-width="2.2" stroke="#666" x="461.7421875" y="581.8203125">SSp-un</text>
<text x="461.7421875" y="581.8203125">SSp-un</text></g>
<g><text stroke-width="2.2" stroke="#666" x="49.541067980905126" y="642.7280563092362">PERI</text>
<text x="49.541067980905126" y="642.7280563092362">PERI</text></g>
<g><text stroke-width="2.2" stroke="#666" x="81.80984645128824" y="561.190386670814">ECT</text>
<text x="81.80984645128824" y="561.190386670814">ECT</text></g>
<g><text stroke-width="2.2" stroke="#666" x="590.851563679935" y="651.0082126013858">SSp-ll</text>
<text x="590.851563679935" y="651.0082126013858">SSp-ll</text></g>
<g><text stroke-width="2.2" stroke="#666" x="209.67631200586072" y="847.4024050352341">TEa</text>
<text x="209.67631200586072" y="847.4024050352341">TEa</text></g>
<g><text stroke-width="2.2" stroke="#666" x="405.9561236176013" y="689.7469128328964">SSp-bfd</text>
<text x="405.9561236176013" y="689.7469128328964">SSp-bfd</text></g>
<g><text stroke-width="2.2" stroke="#666" x="148.61759359843353" y="630.9656132335919">AUDv</text>
<text x="148.61759359843353" y="630.9656132335919">AUDv</text></g>
<g><text stroke-width="2.2" stroke="#666" x="262.28629422190096" y="753.4385449205586">AUDd</text>
<text x="262.28629422190096" y="753.4385449205586">AUDd</text></g>
<g><text stroke-width="2.2" stroke="#666" x="177.63025530395728" y="725.8250400428847">AUDp</text>
<text x="177.63025530395728" y="725.8250400428847">AUDp</text></g>
<g><text stroke-width="2.2" stroke="#666" x="605.6298591905277" y="719.7352908370556">SSp-tr</text>
<text x="605.6298591905277" y="719.7352908370556">SSp-tr</text></g>
<g><text stroke-width="2.2" stroke="#666" x="645.0355351423384" y="820.4650873282408">RSPd</text>
<text x="645.0355351423384" y="820.4650873282408">RSPd</text></g>
<g><text stroke-width="2.2" stroke="#666" x="594.4348106319632" y="862.809526280552">RSPagl</text>
<text x="594.4348106319632" y="862.809526280552">RSPagl</text></g>
<g><text stroke-width="2.2" stroke="#666" x="512.3730831359271" y="784.8773126718029">VISa</text>
<text x="512.3730831359271" y="784.8773126718029">VISa</text></g>
<g><text stroke-width="2.2" stroke="#666" x="381.57564328352146" y="820.267598811679">VISrl</text>
<text x="381.57564328352146" y="820.267598811679">VISrl</text></g>
<g><text stroke-width="2.2" stroke="#666" x="257.9136010335154" y="806.5235356948957">AUDpo</text>
<text x="257.9136010335154" y="806.5235356948957">AUDpo</text></g>
<g><text stroke-width="2.2" stroke="#666" x="559.6560164361048" y="829.9064034058721">VISam</text>
<text x="559.6560164361048" y="829.9064034058721">VISam</text></g>
<g><text stroke-width="2.2" stroke="#666" x="314.88273915356456" y="821.4136807979908">VISal</text>
<text x="314.88273915356456" y="821.4136807979908">VISal</text></g>
<g><text stroke-width="2.2" stroke="#666" x="431.695176752236" y="921.5884784663951">VISp</text>
<text x="431.695176752236" y="921.5884784663951">VISp</text></g>
<g><text stroke-width="2.2" stroke="#666" x="541.390625" y="886.515625">VISpm</text>
<text x="541.390625" y="886.515625">VISpm</text></g>
<g><text stroke-width="2.2" stroke="#666" x="222.31671958362443" y="893.8129832066553">VISli</text>
<text x="222.31671958362443" y="893.8129832066553">VISli</text></g>
<g><text stroke-width="2.2" stroke="#666" x="165.8196161926602" y="895.2270552087024">VISpor</text>
<text x="165.8196161926602" y="895.2270552087024">VISpor</text></g>
<g><text stroke-width="2.2" stroke="#666" x="292.8200251960136" y="880.6021325168768">VISl</text>
<text x="292.8200251960136" y="880.6021325168768">VISl</text></g>
<g><text stroke-width="2.2" stroke="#666" x="222.58548400130087" y="946.2575528786202">VISpl</text>
<text x="222.58548400130087" y="946.2575528786202">VISpl</text></g>
</g></svg>