<svg xmlns="http://www.w3.org/2000/svg" xmlns:xlink="http://www.w3.org/1999/xlink" height="1320" width="1140"><g/><g id="#800000,184,FRP,Frontal%20pole%2C%20cerebral%20cortex" fill="none" stroke="#800000" stroke-width="5"><path d=" M389 193 L494,196 C494,196 518.5,189 518.5,189 518.5,189 546,189 546,189 546,178.013 523.488,181 517,181 517,181 455.5,182 455.5,182 455.5,182 424,187 424,187 424,187 389,193 389,193  Z"/><path d=" M751 193 L646,196 C646,196 621.5,189 621.5,189 621.5,189 594,189 594,189 594,178.013 616.512,181 623,181 623,181 684.5,182 684.5,182 684.5,182 716,187 716,187 716,187 751,193 751,193  Z"/></g><g id="#008040,972,PL,Prelimbic%20area" fill="none" stroke="#008040" stroke-width="5"><path d=" M540 248 C549.641,248 560.773,269.046 564,275.5 L570.5,294 C576.827,290.837 580.918,248 600,248 600,248 646,196 646,196 646,196 621.5,189 621.5,189 621.5,189 594,189 594,189 594,189 593,190 593,190 593,190 592,191 592,191 592,191 586,197 586,197 586,197 585,198 585,198 585,198 583,201 583,201 583,201 582,202 582,202 582,202 581,204 581,204 581,204 578,209 578,209 578,209 577,210 577,210 577,210 574,216 574,216 574,216 572,220 572,220 572,220 568,220 568,220 568,220 566,216 566,216 566,216 563,210 563,210 563,210 559,204 559,204 559,204 558,202 558,202 558,202 557,201 557,201 557,201 555,198 555,198 555,198 554,197 554,197 554,197 548,191 548,191 548,191 547,190 547,190 547,190 546,189 546,189 546,189 518.5,189 518.5,189 518.5,189 494,196 494,196 494,196 540,248 540,248  Z"/></g><g id="#c00040,731,ORBm,Orbital%20area%2C%20medial%20part" fill="none" stroke="#c00040" stroke-width="5"><path d=" M547 190 L548,191 C548,191 547,190 547,190  Z"/><path d=" M593 190 L592,191 C592,191 593,190 593,190  Z"/><path d=" M554 197 L555,198 C555,198 554,197 554,197  Z"/><path d=" M586 197 L585,198 C585,198 586,197 586,197  Z"/><path d=" M557 201 L558,202 C558,202 557,201 557,201  Z"/><path d=" M583 201 L582,202 C582,202 583,201 583,201  Z"/><path d=" M559 204 L563,210 C563,210 559,204 559,204  Z"/><path d=" M581 204 L578,209 C578,209 581,204 581,204  Z"/><path d=" M578 209 L577,210 C577,210 578,209 578,209  Z"/><path d=" M566 216 L568,220 C568,220 566,216 566,216  Z"/><path d=" M574 216 L572,220 C572,220 574,216 574,216  Z"/></g><g id="#808040,993,MOs,Secondary%20motor%20area" fill="none" stroke="#808040" stroke-width="5"><path d=" M498 607 L526,607 C526,607 566,605 566,605 566,605 567,488 567,488 567,488 563,434.5 563,434.5 563,434.5 559,383.5 559,383.5 559,383.5 549,293.5 549,293.5 549,293.5 540,248 540,248 540,248 494,196 494,196 494,196 389,193 389,193 354.669,193 324.477,220.023 300.5,244 300.5,244 276,271 276,271 276,271 303.5,303 303.5,303 303.5,303 386.5,384 386.5,384 386.5,384 432,433.5 432,433.5 432,433.5 461,473.5 461,473.5 482.319,516.137 498,555.089 498,607  Z"/><path d=" M614 607 L642,607 C642,555.089 657.681,516.137 679,473.5 679,473.5 708,433.5 708,433.5 708,433.5 753.5,384 753.5,384 753.5,384 836.5,303 836.5,303 836.5,303 864,271 864,271 864,271 839.5,244 839.5,244 815.523,220.023 785.331,193 751,193 751,193 646,196 646,196 646,196 600,248 600,248 600,248 591,293.5 591,293.5 591,293.5 581,383.5 581,383.5 581,383.5 577,434.5 577,434.5 577,434.5 573,488 573,488 573,488 574,605 574,605 574,605 614,607 614,607  Z"/></g><g id="#400000,39,ACAd,Anterior%20cingulate%20area%2C%20dorsal%20part" fill="none" stroke="#400000" stroke-width="5"><path d=" M566 605 L574,605 C574,605 573,488 573,488 573,488 577,434.5 577,434.5 577,434.5 581,383.5 581,383.5 581,383.5 591,293.5 591,293.5 591,293.5 600,248 600,248 580.918,248 576.827,290.837 570.5,294 570.5,294 564,275.5 564,275.5 560.773,269.046 549.641,248 540,248 540,248 549,293.5 549,293.5 549,293.5 559,383.5 559,383.5 559,383.5 563,434.5 563,434.5 563,434.5 567,488 567,488 567,488 566,605 566,605  Z"/></g><g id="#408040,985,MOp,Primary%20motor%20area" fill="none" stroke="#408040" stroke-width="5"><path d=" M462 607 L498,607 C498,555.089 482.319,516.137 461,473.5 461,473.5 432,433.5 432,433.5 432,433.5 386.5,384 386.5,384 386.5,384 303.5,303 303.5,303 303.5,303 276,271 276,271 276,271 259,288.5 259,288.5 259,288.5 207,354 207,354 207,354 264,414 264,414 275.653,414 320.702,458.202 331.5,469 331.5,469 350,489 350,489 350,489 379,515.5 379,515.5 399.097,535.597 454,574.297 454,600 454,604.327 457.949,607 462,607  Z"/><path d=" M642 607 L678,607 C682.051,607 686,604.327 686,600 686,574.297 740.903,535.597 761,515.5 761,515.5 790,489 790,489 790,489 808.5,469 808.5,469 819.298,458.202 864.347,414 876,414 876,414 933,354 933,354 933,354 881,288.5 881,288.5 881,288.5 864,271 864,271 864,271 836.5,303 836.5,303 836.5,303 753.5,384 753.5,384 753.5,384 708,433.5 708,433.5 708,433.5 679,473.5 679,473.5 657.681,516.137 642,555.089 642,607  Z"/></g><g id="#404000,345,SSp-m,Primary%20somatosensory%20area%2C%20mouth" fill="none" stroke="#404000" stroke-width="5"><path d=" M224 499 C224,492.858 202.202,497 199,497 174.866,497 134.682,525 126,525 126,499.461 138.15,468.2 149,446.5 149,446.5 161,420 161,420 161,420 207,354 207,354 207,354 264,414 264,414 264,414 253,473 253,473 247.263,473 249.418,483.664 248,486.5 243.737,495.026 232.786,499 224,499  Z"/><path d=" M916 499 C916,492.858 937.798,497 941,497 965.134,497 1005.32,525 1014,525 1014,499.461 1001.85,468.2 991,446.5 991,446.5 979,420 979,420 979,420 933,354 933,354 933,354 876,414 876,414 876,414 887,473 887,473 892.737,473 890.582,483.664 892,486.5 896.263,495.026 907.214,499 916,499  Z"/></g><g id="#008000,369,SSp-ul,Primary%20somatosensory%20area%2C%20upper%20limb" fill="none" stroke="#008000" stroke-width="5"><path d=" M349 643 L318,655 C318,655 284,587.5 284,587.5 266.238,551.977 253,515.234 253,473 253,473 264,414 264,414 275.653,414 320.702,458.202 331.5,469 331.5,469 350,489 350,489 350,489 352,531.5 352,531.5 352,531.5 326,579.5 326,579.5 318.035,595.431 349,628.611 349,643  Z"/><path d=" M791 643 L822,655 C822,655 856,587.5 856,587.5 873.762,551.977 887,515.234 887,473 887,473 876,414 876,414 864.347,414 819.298,458.202 808.5,469 808.5,469 790,489 790,489 790,489 788,531.5 788,531.5 788,531.5 814,579.5 814,579.5 821.965,595.431 791,628.611 791,643  Z"/></g><g id="#408000,378,SSs,Supplemental%20somatosensory%20area" fill="none" stroke="#408000" stroke-width="5"><path d=" M167 783 L157,791 C148.088,791 138.637,767.773 136,762.5 128.534,747.567 96.5244,689 80,689 80,689 63,693 63,693 63,693 63,687 63,687 63,687 73,631 73,631 73,631 73,627 73,627 73,627 75,619 75,619 75,619 76,611 76,611 76,611 77,610 77,610 77,573.348 107.888,507.724 124,475.5 124,475.5 141,456.5 141,456.5 141,456.5 161,420 161,420 161,420 149,446.5 149,446.5 138.15,468.2 126,499.461 126,525 126,552.996 122,583.051 122,613 122,674.218 167,716.54 167,783  Z"/><path d=" M973 783 L983,791 C991.912,791 1001.36,767.773 1004,762.5 1011.47,747.567 1043.48,689 1060,689 1060,689 1077,693 1077,693 1077,693 1077,687 1077,687 1077,687 1067,631 1067,631 1067,631 1067,627 1067,627 1067,627 1065,619 1065,619 1065,619 1064,611 1064,611 1064,611 1063,610 1063,610 1063,573.348 1032.11,507.724 1016,475.5 1016,475.5 999,456.5 999,456.5 999,456.5 979,420 979,420 979,420 991,446.5 991,446.5 1001.85,468.2 1014,499.461 1014,525 1014,552.996 1018,583.051 1018,613 1018,674.218 973,716.54 973,783  Z"/></g><g id="#c0c040,182305689,SSp-un,Primary%20somatosensory%20area%2C%20unassigned" fill="none" stroke="#c0c040" stroke-width="5"><path d=" M318 655 L295,666 C295,666 287,643.5 287,643.5 287,643.5 285,630.5 285,630.5 273.03,606.561 255.954,562 222,562 222,562 231,536.5 231,536.5 236.539,525.421 224,508.635 224,499 232.786,499 243.737,495.026 248,486.5 249.418,483.664 247.263,473 253,473 253,515.234 266.238,551.977 284,587.5 284,587.5 318,655 318,655  Z"/><path d=" M822 655 L845,666 C845,666 853,643.5 853,643.5 853,643.5 855,630.5 855,630.5 866.97,606.561 884.046,562 918,562 918,562 909,536.5 909,536.5 903.461,525.421 916,508.635 916,499 907.214,499 896.263,495.026 892,486.5 890.582,483.664 892.737,473 887,473 887,515.234 873.762,551.977 856,587.5 856,587.5 822,655 822,655  Z"/></g><g id="#004000,337,SSp-ll,Primary%20somatosensory%20area%2C%20lower%20limb" fill="none" stroke="#004000" stroke-width="5"><path d=" M454 600 L426.5,615 L349,643 C349,628.611 318.035,595.431 326,579.5 326,579.5 352,531.5 352,531.5 352,531.5 350,489 350,489 350,489 379,515.5 379,515.5 399.097,535.597 454,574.297 454,600  Z"/><path d=" M686 600 L713.5,615 L791,643 C791,628.611 821.965,595.431 814,579.5 814,579.5 788,531.5 788,531.5 788,531.5 790,489 790,489 790,489 761,515.5 761,515.5 740.903,535.597 686,574.297 686,600  Z"/></g><g id="#804000,353,SSp-n,Primary%20somatosensory%20area%2C%20nose" fill="none" stroke="#804000" stroke-width="5"><path d=" M222 562 L199.5,576 L122,613 C122,583.051 126,552.996 126,525 134.682,525 174.866,497 199,497 202.202,497 224,492.858 224,499 224,508.635 236.539,525.421 231,536.5 231,536.5 222,562 222,562  Z"/><path d=" M918 562 L940.5,576 L1018,613 C1018,583.051 1014,552.996 1014,525 1005.32,525 965.134,497 941,497 937.798,497 916,492.858 916,499 916,508.635 903.461,525.421 909,536.5 909,536.5 918,562 918,562  Z"/></g><g id="#c00000,329,SSp-bfd,Primary%20somatosensory%20area%2C%20barrel%20field" fill="none" stroke="#c00000" stroke-width="5"><path d=" M167 783 L181,785 C206.265,785 243.924,742.288 266.5,731 266.5,731 288,712 288,712 288,712 292,701 292,701 292,692.38 290.026,681.449 294,673.5 294,673.5 295,666 295,666 295,666 287,643.5 287,643.5 287,643.5 285,630.5 285,630.5 273.03,606.561 255.954,562 222,562 222,562 199.5,576 199.5,576 199.5,576 122,613 122,613 122,674.218 167,716.54 167,783  Z"/><path d=" M973 783 L959,785 C933.735,785 896.076,742.288 873.5,731 873.5,731 852,712 852,712 852,712 848,701 848,701 848,692.38 849.974,681.449 846,673.5 846,673.5 845,666 845,666 845,666 853,643.5 853,643.5 853,643.5 855,630.5 855,630.5 866.97,606.561 884.046,562 918,562 918,562 940.5,576 940.5,576 940.5,576 1018,613 1018,613 1018,674.218 973,716.54 973,783  Z"/></g><g id="#c04000,361,SSp-tr,Primary%20somatosensory%20area%2C%20trunk" fill="none" stroke="#c04000" stroke-width="5"><path d=" M443 666 L407.5,678 L292,701 C292,692.38 290.026,681.449 294,673.5 294,673.5 295,666 295,666 295,666 318,655 318,655 318,655 349,643 349,643 349,643 426.5,615 426.5,615 426.5,615 454,600 454,600 454,604.327 457.949,607 462,607 462,627.643 443,648.905 443,666  Z"/><path d=" M845 666 L846,673.5 C849.974,681.449 848,692.38 848,701 848,701 732.5,678 732.5,678 732.5,678 697,666 697,666 697,648.905 678,627.643 678,607 682.051,607 686,604.327 686,600 686,600 713.5,615 713.5,615 713.5,615 791,643 791,643 791,643 822,655 822,655 822,655 845,666 845,666  Z"/></g><g id="#004040,879,RSPd,Retrosplenial%20area%2C%20dorsal%20part" fill="none" stroke="#004040" stroke-width="5"><path d=" M598 891 C598,911.116 638.355,947.428 655.5,956 L667,968 C667,958.67 648.315,949.87 655,936.5 655,936.5 672,852.5 672,852.5 672,852.5 675,812.5 675,812.5 675,812.5 676,771.5 676,771.5 676,771.5 672,714.5 672,714.5 672,714.5 662,674.5 662,674.5 662,674.5 636,628.5 636,628.5 636,628.5 614,607 614,607 614,607 574,605 574,605 574,605 566,605 566,605 566,605 526,607 526,607 526,607 504,628.5 504,628.5 504,628.5 478,674.5 478,674.5 478,674.5 468,714.5 468,714.5 468,714.5 464,771.5 464,771.5 464,771.5 465,812.5 465,812.5 465,812.5 468,852.5 468,852.5 468,852.5 485,936.5 485,936.5 491.014,948.528 475,957.349 475,966 475,966 484.5,956 484.5,956 501.645,947.428 542,911.116 542,891 542,891 543,890 543,890 543,890 543,889 543,889 543,882.373 548.462,808.577 549,807.5 549,807.5 551,769.5 551,769.5 551,769.5 554,713.5 554,713.5 558.248,705.004 560.487,654.507 569.5,650 569.5,650 574,662.5 574,662.5 579.789,674.077 586,689.894 586,703.5 586,703.5 591,834.5 591,834.5 591,834.5 597,889 597,889 597,889 597,890 597,890 597,890 598,891 598,891  Z"/><path d=" M475 966 L474,967 C474,967 475,966 475,966  Z"/><path d=" M474 967 L473,968 C473,968 474,967 474,967  Z"/></g><g id="#804040,894,RSPagl,Retrosplenial%20area%2C%20lateral%20agranular%20part" fill="none" stroke="#804040" stroke-width="5"><path d=" M473 968 L447.5,990 C432.701,997.399 399.857,1018 384,1018 384,1011.92 401.794,1008.85 405.5,1007 422.74,998.38 438,981.341 438,961 438,909.533 426,863.738 426,813 426,774.988 434,741.952 434,708 434,708 443,666 443,666 443,648.905 462,627.643 462,607 462,607 498,607 498,607 498,607 526,607 526,607 526,607 504,628.5 504,628.5 504,628.5 478,674.5 478,674.5 478,674.5 468,714.5 468,714.5 468,714.5 464,771.5 464,771.5 464,771.5 465,812.5 465,812.5 465,812.5 468,852.5 468,852.5 468,852.5 485,936.5 485,936.5 491.014,948.528 475,957.349 475,966 475,966 474,967 474,967 474,967 473,968 473,968  Z"/><path d=" M667 968 L692.5,990 C707.299,997.399 740.143,1018 756,1018 756,1011.92 738.206,1008.85 734.5,1007 717.26,998.38 702,981.341 702,961 702,909.533 714,863.738 714,813 714,774.988 706,741.952 706,708 706,708 697,666 697,666 697,648.905 678,627.643 678,607 678,607 642,607 642,607 642,607 614,607 614,607 614,607 636,628.5 636,628.5 636,628.5 662,674.5 662,674.5 662,674.5 672,714.5 672,714.5 672,714.5 676,771.5 676,771.5 676,771.5 675,812.5 675,812.5 675,812.5 672,852.5 672,852.5 672,852.5 655,936.5 655,936.5 648.315,949.87 667,958.67 667,968  Z"/><path d=" M379 1018 L365,1025 C365,1025 379,1018 379,1018  Z"/><path d=" M761 1018 L776,1026 C776,1026 761,1018 761,1018  Z"/><path d=" M365 1025 L364,1026 C364,1026 365,1025 365,1025  Z"/></g><g id="#800040,677,VISC,Visceral%20area" fill="none" stroke="#800040" stroke-width="5"><path d=" M77 610 L76,611 C76,611 77,610 77,610  Z"/><path d=" M1063 610 L1064,611 C1064,611 1063,610 1063,610  Z"/><path d=" M75 619 L73,627 C73,627 75,619 75,619  Z"/><path d=" M1065 619 L1067,627 C1067,627 1065,619 1065,619  Z"/><path d=" M73 631 L70,644.5 L63,687 C63,687 73,631 73,631  Z"/><path d=" M1067 631 L1070,644.5 L1077,687 C1077,687 1067,631 1067,631  Z"/></g><g id="#404040,886,RSPv,Retrosplenial%20area%2C%20ventral%20part" fill="none" stroke="#404040" stroke-width="5"><path d=" M543 889 L566,849.5 L570.5,835 L573,847.5 L597,889 C597,889 591,834.5 591,834.5 591,834.5 586,703.5 586,703.5 586,689.894 579.789,674.077 574,662.5 574,662.5 569.5,650 569.5,650 560.487,654.507 558.248,705.004 554,713.5 554,713.5 551,769.5 551,769.5 551,769.5 549,807.5 549,807.5 548.462,808.577 543,882.373 543,889  Z"/><path d=" M543 890 L542,891 C542,891 543,890 543,890  Z"/><path d=" M597 890 L598,891 C598,891 597,890 597,890  Z"/></g><g id="#000080,312782546,VISa,Anterior%20area" fill="none" stroke="#000080" stroke-width="5"><path d=" M298 768 L326,775 C326,775 434,708 434,708 434,708 443,666 443,666 443,666 407.5,678 407.5,678 407.5,678 292,701 292,701 292,701 288,712 288,712 288,712 298,768 298,768  Z"/><path d=" M842 768 L814,775 C814,775 706,708 706,708 706,708 697,666 697,666 697,666 732.5,678 732.5,678 732.5,678 848,701 848,701 848,701 852,712 852,712 852,712 842,768 842,768  Z"/></g><g id="#40c040,1018,AUDv,Ventral%20auditory%20area" fill="none" stroke="#40c040" stroke-width="5"><path d=" M60 871 C60.0536,871 64.715,888 79,888 79,888 83,870 83,870 73.992,870 70.689,850.878 68,845.5 59.4942,828.488 49.4537,768.593 59,749.5 62.5931,742.314 61.0262,721 74,721 74,721 80,689 80,689 80,689 63,693 63,693 63,693 63,694 63,694 63,694 60,701 60,701 60,701 53,759.5 53,759.5 53,759.5 56,843 56,843 56,843 57,844 57,844 57,844 58,860 58,860 58,860 60,867 60,867 60,867 60,871 60,871  Z"/><path d=" M1080 871 C1079.95,871 1075.29,888 1061,888 1061,888 1057,870 1057,870 1066.01,870 1069.31,850.878 1072,845.5 1080.51,828.488 1090.55,768.593 1081,749.5 1077.41,742.314 1078.97,721 1066,721 1066,721 1060,689 1060,689 1060,689 1077,693 1077,693 1077,693 1077,694 1077,694 1077,694 1080,701 1080,701 1080,701 1087,759.5 1087,759.5 1087,759.5 1084,843 1084,843 1084,843 1083,844 1083,844 1083,844 1082,860 1082,860 1082,860 1080,867 1080,867 1080,867 1080,871 1080,871  Z"/></g><g id="#00c040,1011,AUDd,Dorsal%20auditory%20area" fill="none" stroke="#00c040" stroke-width="5"><path d=" M109 795 L147,818 C147,818 157,791 157,791 148.088,791 138.637,767.773 136,762.5 128.534,747.567 96.5244,689 80,689 80,689 74,721 74,721 74,721 89,737.5 89,737.5 89,737.5 109,795 109,795  Z"/><path d=" M1031 795 L993,818 C993,818 983,791 983,791 991.912,791 1001.36,767.773 1004,762.5 1011.47,747.567 1043.48,689 1060,689 1060,689 1066,721 1066,721 1066,721 1051,737.5 1051,737.5 1051,737.5 1031,795 1031,795  Z"/></g><g id="#400040,541,TEa,Temporal%20association%20areas" fill="none" stroke="#400040" stroke-width="5"><path d=" M63 694 L60,701 C60,701 63,694 63,694  Z"/><path d=" M1077 694 L1080,701 C1080,701 1077,694 1077,694  Z"/><path d=" M56 843 L57,844 C57,844 56,843 56,843  Z"/><path d=" M1084 843 L1083,844 C1083,844 1084,843 1084,843  Z"/><path d=" M83 945 L88,949 C93.6284,949 128.084,923 141,923 141,903.694 142,882.206 142,863 142,863 142,854 142,854 118.162,854 105.651,888 79,888 64.715,888 60.0536,871 60,871 60,891.046 66.5536,914.607 75,931.5 75,931.5 83,945 83,945  Z"/><path d=" M1057 945 L1052,949 C1046.37,949 1011.92,923 999,923 999,903.694 998,882.206 998,863 998,863 998,854 998,854 1021.84,854 1034.35,888 1061,888 1075.29,888 1079.95,871 1080,871 1080,891.046 1073.45,914.607 1065,931.5 1065,931.5 1057,945 1057,945  Z"/><path d=" M58 860 L60,867 C60,867 58,860 58,860  Z"/><path d=" M1082 860 L1080,867 C1080,867 1082,860 1082,860  Z"/></g><g id="#c08000,394,VISam,Anteromedial%20visual%20area" fill="none" stroke="#c08000" stroke-width="5"><path d=" M326 776 C357.125,776 409.929,813 426,813 426,774.988 434,741.952 434,708 434,708 326,775 326,775 326,775 326,776 326,776  Z"/><path d=" M814 776 C782.875,776 730.071,813 714,813 714,774.988 706,741.952 706,708 706,708 814,775 814,775 814,775 814,776 814,776  Z"/></g><g id="#80c000,417,VISrl,Rostrolateral%20visual%20area" fill="none" stroke="#80c000" stroke-width="5"><path d=" M181 785 L208.5,828 L219,840 C219,840 257,795.5 257,795.5 257,795.5 286.5,774 286.5,774 286.5,774 298,768 298,768 298,768 288,712 288,712 288,712 266.5,731 266.5,731 243.924,742.288 206.265,785 181,785  Z"/><path d=" M959 785 L931.5,828 L921,840 C921,840 883,795.5 883,795.5 883,795.5 853.5,774 853.5,774 853.5,774 842,768 842,768 842,768 852,712 852,712 852,712 873.5,731 873.5,731 896.076,742.288 933.735,785 959,785  Z"/></g><g id="#c08040,1002,AUDp,Primary%20auditory%20area" fill="none" stroke="#c08040" stroke-width="5"><path d=" M109 795 C109,830.524 111.244,824.011 95,856.5 L83,870 C73.992,870 70.689,850.878 68,845.5 59.4942,828.488 49.4537,768.593 59,749.5 62.5931,742.314 61.0262,721 74,721 74,721 89,737.5 89,737.5 89,737.5 109,795 109,795  Z"/><path d=" M1031 795 C1031,830.524 1028.76,824.011 1045,856.5 L1057,870 C1066.01,870 1069.31,850.878 1072,845.5 1080.51,828.488 1090.55,768.593 1081,749.5 1077.41,742.314 1078.97,721 1066,721 1066,721 1051,737.5 1051,737.5 1051,737.5 1031,795 1031,795  Z"/></g><g id="#808000,385,VISp,Primary%20visual%20area" fill="none" stroke="#808000" stroke-width="5"><path d=" M364 1026 C331.074,1026 301.172,1038 264,1038 264,1038 258,1034 258,1034 249.207,1034 212,1013.87 212,1003 212,985.599 198.257,923.986 205,910.5 205,910.5 214,853 214,853 214,853 219,840 219,840 219,840 257,795.5 257,795.5 257,795.5 286.5,774 286.5,774 286.5,774 298,768 298,768 298,768 326,775 326,775 326,775 326,776 326,776 326,776 438,961 438,961 438,981.341 422.74,998.38 405.5,1007 401.794,1008.85 384,1011.92 384,1018 384,1018 379,1018 379,1018 379,1018 365,1025 365,1025 365,1025 364,1026 364,1026  Z"/><path d=" M776 1026 C808.926,1026 838.828,1038 876,1038 876,1038 882,1034 882,1034 890.793,1034 928,1013.87 928,1003 928,985.599 941.743,923.986 935,910.5 935,910.5 926,853 926,853 926,853 921,840 921,840 921,840 883,795.5 883,795.5 883,795.5 853.5,774 853.5,774 853.5,774 842,768 842,768 842,768 814,775 814,775 814,775 814,776 814,776 814,776 702,961 702,961 702,981.341 717.26,998.38 734.5,1007 738.206,1008.85 756,1011.92 756,1018 756,1018 761,1018 761,1018 761,1018 776,1026 776,1026  Z"/></g><g id="#000040,533,VISpm,posteromedial%20visual%20area" fill="none" stroke="#000040" stroke-width="5"><path d=" M426 813 C426,863.738 438,909.533 438,961 438,961 326,776 326,776 357.125,776 409.929,813 426,813  Z"/><path d=" M714 813 C714,863.738 702,909.533 702,961 702,961 814,776 814,776 782.875,776 730.071,813 714,813  Z"/></g><g id="#00c000,402,VISal,Anterolateral%20visual%20area" fill="none" stroke="#00c000" stroke-width="5"><path d=" M142 863 L160,863 C160,863 214,853 214,853 214,853 219,840 219,840 219,840 208.5,828 208.5,828 208.5,828 181,785 181,785 181,785 167,783 167,783 167,783 157,791 157,791 157,791 147,818 147,818 147,818 142,854 142,854 142,854 142,863 142,863  Z"/><path d=" M980 863 L998,863 C998,863 998,854 998,854 998,854 993,818 993,818 993,818 983,791 983,791 983,791 973,783 973,783 973,783 959,785 959,785 959,785 931.5,828 931.5,828 931.5,828 921,840 921,840 921,840 926,853 926,853 926,853 980,863 980,863  Z"/></g><g id="#80c040,1027,AUDpo,Posterior%20auditory%20area" fill="none" stroke="#80c040" stroke-width="5"><path d=" M83 870 L79,888 C105.651,888 118.162,854 142,854 142,854 147,818 147,818 147,818 109,795 109,795 109,830.524 111.244,824.011 95,856.5 95,856.5 83,870 83,870  Z"/><path d=" M1057 870 L1061,888 C1034.35,888 1021.84,854 998,854 998,854 993,818 993,818 993,818 1031,795 1031,795 1031,830.524 1028.76,824.011 1045,856.5 1045,856.5 1057,870 1057,870  Z"/></g><g id="#40c000,409,VISl,Lateral%20visual%20area" fill="none" stroke="#40c000" stroke-width="5"><path d=" M175 981 L212,1003 C212,985.599 198.257,923.986 205,910.5 205,910.5 214,853 214,853 214,853 160,863 160,863 160,900.737 168,936.709 168,972 168,972 175,981 175,981  Z"/><path d=" M965 981 L928,1003 C928,985.599 941.743,923.986 935,910.5 935,910.5 926,853 926,853 926,853 980,863 980,863 980,900.737 972,936.709 972,972 972,972 965,981 965,981  Z"/></g><g id="#400080,312782574,VISli,Laterointermediate%20area" fill="none" stroke="#400080" stroke-width="5"><path d=" M141 923 C141,942.768 142.322,972 168,972 168,936.709 160,900.737 160,863 160,863 142,863 142,863 142,882.206 141,903.694 141,923  Z"/><path d=" M999 923 C999,942.768 997.678,972 972,972 972,936.709 980,900.737 980,863 980,863 998,863 998,863 998,882.206 999,903.694 999,923  Z"/></g><g id="#800080,312782628,VISpor,Postrhinal%20area" fill="none" stroke="#800080" stroke-width="5"><path d=" M175 981 L174,1006.5 L183,1031 C153.214,1031 121.313,1002.13 108,975.5 108,975.5 88,951 88,951 88,951 88,949 88,949 93.6284,949 128.084,923 141,923 141,942.768 142.322,972 168,972 168,972 175,981 175,981  Z"/><path d=" M965 981 L966,1006.5 L957,1031 C986.786,1031 1018.69,1002.13 1032,975.5 1032,975.5 1052,951 1052,951 1052,951 1052,949 1052,949 1046.37,949 1011.92,923 999,923 999,942.768 997.678,972 972,972 972,972 965,981 965,981  Z"/></g><g id="#c04040,895,ECT,Ectorhinal%20area" fill="none" stroke="#c04040" stroke-width="5"><path d=" M88 949 L88,951 C88,951 83,945 83,945 83,945 88,949 88,949  Z"/><path d=" M1052 949 L1052,951 C1052,951 1057,945 1057,945 1057,945 1052,949 1052,949  Z"/></g><g id="#c0c000,425,VISpl,Posterolateral%20visual%20area" fill="none" stroke="#c0c000" stroke-width="5"><path d=" M183 1031 L212.5,1038 L264,1038 C264,1038 258,1034 258,1034 249.207,1034 212,1013.87 212,1003 212,1003 175,981 175,981 175,981 174,1006.5 174,1006.5 174,1006.5 183,1031 183,1031  Z"/><path d=" M957 1031 L927.5,1038 L876,1038 C876,1038 882,1034 882,1034 890.793,1034 928,1013.87 928,1003 928,1003 965,981 965,981 965,981 966,1006.5 966,1006.5 966,1006.5 957,1031 957,1031  Z"/></g><g id="area_labels" style="fill:#000; text-anchor: middle; dominant-baseline: middle; font-size:22.0px; font-family: sans-serif">
<g><text stroke-width="2.2" stroke="#666" x="490.6849420945245" y="188.75564305343752">FRP</text>
<text x="490.6849420945245" y="188.75564305343752">FRP</text></g>
<g><text stroke-width="2.2" stroke="#666" x="602.6540969672662" y="211.40159786702225">PL</text>
<text x="602.6540969672662" y="211.40159786702225">PL</text></g>
<g><text stroke-width="2.2" stroke="#666" x="547.5" y="190.5">ORBm</text>
<text x="547.5" y="190.5">ORBm</text></g>
<g><text stroke-width="2.2" stroke="#666" x="445.60467627297265" y="297.9343785456586">MOs</text>
<text x="445.60467627297265" y="297.9343785456586">MOs</text></g>
<g><text stroke-width="2.2" stroke="#666" x="569.4531250352138" y="308.0781208095515">ACAd</text>
<text x="569.4531250352138" y="308.0781208095515">ACAd</text></g>
<g><text stroke-width="2.2" stroke="#666" x="287.2441603055297" y="361.82700481660834">MOp</text>
<text x="287.2441603055297" y="361.82700481660834">MOp</text></g>
<g><text stroke-width="2.2" stroke="#666" x="206.562470823145" y="443.81378678796233">SSp-m</text>
<text x="206.562470823145" y="443.81378678796233">SSp-m</text></g>
<g><text stroke-width="2.2" stroke="#666" x="302.0718668524388" y="509.05424181356784">SSp-ul</text>
<text x="302.0718668524388" y="509.05424181356784">SSp-ul</text></g>
<g><text stroke-width="2.2" stroke="#666" x="94.9609375" y="661.2586440255153">SSs</text>
<text x="94.9609375" y="661.2586440255153">SSs</text></g>
<g><text stroke-width="2.2" stroke="#666" x="245.98631313874844" y="545.0113347917173">SSp-un</text>
<text x="245.98631313874844" y="545.0113347917173">SSp-un</text></g>
<g><text stroke-width="2.2" stroke="#666" x="380.31816693148016" y="580.9321125750878">SSp-ll</text>
<text x="380.31816693148016" y="580.9321125750878">SSp-ll</text></g>
<g><text stroke-width="2.2" stroke="#666" x="185.59167929944658" y="537.9641235970211">SSp-n</text>
<text x="185.59167929944658" y="537.9641235970211">SSp-n</text></g>
<g><text stroke-width="2.2" stroke="#666" x="211.71495625266945" y="654.5742756867124">SSp-bfd</text>
<text x="211.71495625266945" y="654.5742756867124">SSp-bfd</text></g>
<g><text stroke-width="2.2" stroke="#666" x="414.67046804503366" y="647.4648986482578">SSp-tr</text>
<text x="414.67046804503366" y="647.4648986482578">SSp-tr</text></g>
<g><text stroke-width="2.2" stroke="#666" x="632.4366638174337" y="773.4351772706489">RSPd</text>
<text x="632.4366638174337" y="773.4351772706489">RSPd</text></g>
<g><text stroke-width="2.2" stroke="#666" x="461.53117030089476" y="938.6559248964559">RSPagl</text>
<text x="461.53117030089476" y="938.6559248964559">RSPagl</text></g>
<g><text stroke-width="2.2" stroke="#666" x="70.50052351285062" y="643.4971283108923">VISC</text>
<text x="70.50052351285062" y="643.4971283108923">VISC</text></g>
<g><text stroke-width="2.2" stroke="#666" x="568.9998179862996" y="824.0016800100639">RSPv</text>
<text x="568.9998179862996" y="824.0016800100639">RSPv</text></g>
<g><text stroke-width="2.2" stroke="#666" x="328.55496858538135" y="730.7242465157104">VISa</text>
<text x="328.55496858538135" y="730.7242465157104">VISa</text></g>
<g><text stroke-width="2.2" stroke="#666" x="71.75072549521936" y="877.7322366603078">AUDv</text>
<text x="71.75072549521936" y="877.7322366603078">AUDv</text></g>
<g><text stroke-width="2.2" stroke="#666" x="122.038166503841" y="776.2701737682011">AUDd</text>
<text x="122.038166503841" y="776.2701737682011">AUDd</text></g>
<g><text stroke-width="2.2" stroke="#666" x="95.96875" y="914.40625">TEa</text>
<text x="95.96875" y="914.40625">TEa</text></g>
<g><text stroke-width="2.2" stroke="#666" x="396.9169723864215" y="766.3405217488847">VISam</text>
<text x="396.9169723864215" y="766.3405217488847">VISam</text></g>
<g><text stroke-width="2.2" stroke="#666" x="258.84730378786566" y="763.0633704263408">VISrl</text>
<text x="258.84730378786566" y="763.0633704263408">VISrl</text></g>
<g><text stroke-width="2.2" stroke="#666" x="81.75743301676641" y="798.9483744223692">AUDp</text>
<text x="81.75743301676641" y="798.9483744223692">AUDp</text></g>
<g><text stroke-width="2.2" stroke="#666" x="303.0081683738512" y="930.3108427703053">VISp</text>
<text x="303.0081683738512" y="930.3108427703053">VISp</text></g>
<g><text stroke-width="2.2" stroke="#666" x="396.77443691099705" y="838.1938597479322">VISpm</text>
<text x="396.77443691099705" y="838.1938597479322">VISpm</text></g>
<g><text stroke-width="2.2" stroke="#666" x="175.74133108335798" y="830.3387436071059">VISal</text>
<text x="175.74133108335798" y="830.3387436071059">VISal</text></g>
<g><text stroke-width="2.2" stroke="#666" x="125.79442032026581" y="835.7027408185143">AUDpo</text>
<text x="125.79442032026581" y="835.7027408185143">AUDpo</text></g>
<g><text stroke-width="2.2" stroke="#666" x="184.49759342576002" y="883.4979008768578">VISl</text>
<text x="184.49759342576002" y="883.4979008768578">VISl</text></g>
<g><text stroke-width="2.2" stroke="#666" x="154.5" y="950.5">VISli</text>
<text x="154.5" y="950.5">VISli</text></g>
<g><text stroke-width="2.2" stroke="#666" x="149.853785098121" y="995.5175790401526">VISpor</text>
<text x="149.853785098121" y="995.5175790401526">VISpor</text></g>
<g><text stroke-width="2.2" stroke="#666" x="87.37507053515385" y="949.3752029837174">ECT</text>
<text x="87.37507053515385" y="949.3752029837174">ECT</text></g>
<g><text stroke-width="2.2" stroke="#666" x="194.65042136714897" y="1013.1662219615105">VISpl</text>
<text x="194.65042136714897" y="1013.1662219615105">VISpl</text></g>
</g></svg>