<svg xmlns="http://www.w3.org/2000/svg" xmlns:xlink="http://www.w3.org/1999/xlink" height="1360" width="1360"><g/><g id="#008040,723,ORBl,Orbital%20area%2C%20lateral%20part" fill="none" stroke="#008040" stroke-width="4.533333333333333"><path d=" M821 249 C843.716,249 867.114,243.307 888.5,254 L916.5,260 L926,259 C926,255.049 890.62,211.74 886,202.5 864.111,158.723 854,127.826 854,80 854,80 816.5,70 816.5,70 816.5,70 707.5,115 707.5,115 707.5,115 664,131 664,131 664,131 667,141.5 667,141.5 662.462,150.577 661.186,156.871 666,166.5 669.087,172.674 698,170.447 698,181 709.715,181 759.134,205.634 767.5,214 767.5,214 786,227 786,227 786,227 821,249 821,249  Z"/></g><g id="#808040,746,ORBvl,Orbital%20area%2C%20ventrolateral%20part" fill="none" stroke="#808040" stroke-width="4.533333333333333"><path d=" M987 243 C972.341,243 948.198,259 926,259 926,255.049 890.62,211.74 886,202.5 864.111,158.723 854,127.826 854,80 859.947,80 895.94,69.72 896.5,70 896.5,70 990,166.5 990,166.5 990,166.5 1014,194 1014,194 988.34,194 999.33,220.84 991,237.5 991,237.5 987,243 987,243  Z"/></g><g id="#804000,119,AIv,Agranular%20insular%20area%2C%20ventral%20part" fill="none" stroke="#804000" stroke-width="4.533333333333333"><path d=" M342 355 L358,376 C358,376 403.5,336 403.5,336 403.5,336 432.5,312 432.5,312 465.1,295.7 494.581,256.459 529.5,239 529.5,239 589.5,213 589.5,213 589.5,213 655.5,194 655.5,194 655.5,194 698,181 698,181 698,170.447 669.087,172.674 666,166.5 661.186,156.871 662.462,150.577 667,141.5 667,141.5 664,131 664,131 664,131 599.5,161 599.5,161 599.5,161 566.5,172 566.5,172 514.265,198.117 423.067,248.365 397,300.5 396.005,302.49 361.715,335.785 357.5,340 357.5,340 342,355 342,355  Z"/></g><g id="#004000,104,AId,Agranular%20insular%20area%2C%20dorsal%20part" fill="none" stroke="#004000" stroke-width="4.533333333333333"><path d=" M358 376 L375,403 C399.754,403 464.304,363.098 490.5,350 490.5,350 512,339 512,339 512,339 547.5,318 547.5,318 547.5,318 636,285 636,285 636,285 646.5,282 646.5,282 646.5,282 680.5,277 680.5,277 708.585,262.957 753.054,280.391 773,240.5 773,240.5 786,227 786,227 786,227 767.5,214 767.5,214 759.134,205.634 709.715,181 698,181 698,181 655.5,194 655.5,194 655.5,194 589.5,213 589.5,213 589.5,213 529.5,239 529.5,239 494.581,256.459 465.1,295.7 432.5,312 432.5,312 403.5,336 403.5,336 403.5,336 358,376 358,376  Z"/></g><g id="#408040,731,ORBm,Orbital%20area%2C%20medial%20part" fill="none" stroke="#408040" stroke-width="4.533333333333333"><path d=" M1041 293 C1063.46,293 1109.05,337.273 1130.5,348 L1143.5,359 L1151,360.5 L1161,372 C1161,372 1160,361.5 1160,361.5 1160,361.5 1154.5,360 1154.5,360 1154.5,360 1145,349.5 1145,349.5 1145,349.5 1107.5,299 1107.5,299 1105.6,297.097 1093.8,276 1098,276 1098,276 1014,194 1014,194 988.34,194 999.33,220.84 991,237.5 991,237.5 987,243 987,243 987,243 1011.5,236 1011.5,236 1029.13,244.813 1041,273.526 1041,293  Z"/></g><g id="#800080,993,MOs,Secondary%20motor%20area" fill="none" stroke="#800080" stroke-width="4.533333333333333"><path d=" M926 825 L955,828 C955,828 1024,820 1024,820 1024,820 1023,766.5 1023,766.5 1023,766.5 1028,731.5 1028,731.5 1028,731.5 1028,702.5 1028,702.5 1028,702.5 1031,654.5 1031,654.5 1022.76,638.029 1030.71,590.926 1026,581.5 1026,581.5 1022,543.5 1022,543.5 1008.38,516.269 1014,442.462 1014,411 1014,411 1008,407.5 1008,407.5 1008,407.5 998,392.5 998,392.5 993.792,384.084 970,341.984 970,337 919.038,337 845.034,329.568 820,279.5 815.115,269.731 821,258.714 821,249 821,249 786,227 786,227 786,227 773,240.5 773,240.5 753.054,280.391 708.585,262.957 680.5,277 680.5,277 646.5,282 646.5,282 646.5,282 636,285 636,285 636,297.192 650.88,309.26 656,319.5 672.958,353.416 706.343,380.187 722,411.5 722,411.5 756,450.5 756,450.5 756,450.5 879,619.5 879,619.5 879,619.5 908,681.5 908,681.5 908,681.5 917,710.5 917,710.5 917,710.5 929,764.5 929,764.5 929,764.5 926,825 926,825  Z"/></g><g id="#c04000,184,FRP,Frontal%20pole%2C%20cerebral%20cortex" fill="none" stroke="#c04000" stroke-width="4.533333333333333"><path d=" M1041 293 L1025,303.5 C1022.08,309.343 979.976,337 970,337 919.038,337 845.034,329.568 820,279.5 815.115,269.731 821,258.714 821,249 843.716,249 867.114,243.307 888.5,254 888.5,254 916.5,260 916.5,260 916.5,260 926,259 926,259 948.198,259 972.341,243 987,243 987,243 1011.5,236 1011.5,236 1029.13,244.813 1041,273.526 1041,293  Z"/></g><g id="#800000,44,ILA,Infralimbic%20area" fill="none" stroke="#800000" stroke-width="4.533333333333333"><path d=" M1173 435 C1173,455.962 1147,471.352 1147,486 1147,486 1145,466.5 1145,466.5 1145,466.5 1149,461.5 1149,461.5 1141.77,447.038 1154.98,402.538 1163,386.5 1163,386.5 1161,372 1161,372 1161,372 1160,361.5 1160,361.5 1160,361.5 1154.5,360 1154.5,360 1154.5,360 1145,349.5 1145,349.5 1145,349.5 1107.5,299 1107.5,299 1105.6,297.097 1093.8,276 1098,276 1098,276 1125.5,310 1125.5,310 1135.8,320.295 1146.92,331.338 1153,343.5 1153,343.5 1175,361.5 1175,361.5 1175,361.5 1174,433 1174,433 1174,433 1173,434 1173,434 1173,434 1173,435 1173,435  Z"/></g><g id="#400080,985,MOp,Primary%20motor%20area" fill="none" stroke="#400080" stroke-width="4.533333333333333"><path d=" M889 822 L926,825 C926,825 929,764.5 929,764.5 929,764.5 917,710.5 917,710.5 917,710.5 908,681.5 908,681.5 908,681.5 879,619.5 879,619.5 879,619.5 756,450.5 756,450.5 756,450.5 722,411.5 722,411.5 706.343,380.187 672.958,353.416 656,319.5 650.88,309.26 636,297.192 636,285 636,285 547.5,318 547.5,318 547.5,318 512,339 512,339 512,339 537,375 537,375 537,385.44 574.35,408.2 579,417.5 579,417.5 668,520.5 668,520.5 668,520.5 693,551 693,551 693,551 715.5,574 715.5,574 729.509,581.004 767.197,631.894 775,647.5 775,647.5 790,669 790,669 790,669 817,705.5 817,705.5 834.453,740.407 883,771.679 883,813 883,813 889,822 889,822  Z"/></g><g id="#000080,972,PL,Prelimbic%20area" fill="none" stroke="#000080" stroke-width="4.533333333333333"><path d=" M1147 486 L1128,538.5 L1101,552 C1094.14,552 1082.71,526.918 1080,521.5 1080,521.5 1057,477.5 1057,477.5 1051.28,466.063 1049.99,443.47 1045,433.5 1039.93,423.36 1024.36,411 1014,411 1014,411 1008,407.5 1008,407.5 1008,407.5 998,392.5 998,392.5 993.792,384.084 970,341.984 970,337 979.976,337 1022.08,309.343 1025,303.5 1025,303.5 1041,293 1041,293 1063.46,293 1109.05,337.273 1130.5,348 1130.5,348 1143.5,359 1143.5,359 1143.5,359 1151,360.5 1151,360.5 1151,360.5 1161,372 1161,372 1161,372 1163,386.5 1163,386.5 1154.98,402.538 1141.77,447.038 1149,461.5 1149,461.5 1145,466.5 1145,466.5 1145,466.5 1147,486 1147,486  Z"/></g><g id="#c04080,1057,GU,Gustatory%20areas" fill="none" stroke="#c04080" stroke-width="4.533333333333333"><path d=" M397 458 L361.5,476 C333.603,489.949 310.523,510 277,510 277,489.941 337.555,445.391 347,426.5 347,426.5 375,403 375,403 399.754,403 464.304,363.098 490.5,350 490.5,350 512,339 512,339 512,339 537,375 537,375 537,375 473.5,413 473.5,413 473.5,413 456,426 456,426 439.843,426 405.577,458 397,458  Z"/></g><g id="#404000,111,AIp,Agranular%20insular%20area%2C%20posterior%20part" fill="none" stroke="#404000" stroke-width="4.533333333333333"><path d=" M200 642 L213,650 C213,650 218,635.5 218,635.5 218,635.5 231,587.5 231,587.5 231,587.5 257,540.5 257,540.5 257,540.5 277,510 277,510 277,489.941 337.555,445.391 347,426.5 347,426.5 375,403 375,403 375,403 358,376 358,376 358,376 342,355 342,355 342,355 292.5,403 292.5,403 277.641,410.43 253.525,433.449 246,448.5 237.228,466.043 202.404,487.693 192,508.5 182.155,528.19 178.752,550.995 169,570.5 169,570.5 164,600.5 164,600.5 164,600.5 171,618 171,618 171,618 200,642 200,642  Z"/></g><g id="#808000,345,SSp-m,Primary%20somatosensory%20area%2C%20mouth" fill="none" stroke="#808000" stroke-width="4.533333333333333"><path d=" M679 620 L667.5,639 C658.346,643.577 651.608,638 643,638 643,638 622.5,626 622.5,626 617.811,623.655 608.575,624.038 602.5,621 602.5,621 473,596 473,596 467.056,596 471.701,567.902 470,564.5 461.833,548.166 483.792,489.916 492,473.5 501.379,454.742 456,434.317 456,426 456,426 473.5,413 473.5,413 473.5,413 537,375 537,375 537,385.44 574.35,408.2 579,417.5 579,417.5 668,520.5 668,520.5 668,520.5 693,551 693,551 693,551 679,620 679,620  Z"/></g><g id="#400000,39,ACAd,Anterior%20cingulate%20area%2C%20dorsal%20part" fill="none" stroke="#400000" stroke-width="4.533333333333333"><path d=" M1074 813 L1024,820 C1024,820 1023,766.5 1023,766.5 1023,766.5 1028,731.5 1028,731.5 1028,731.5 1028,702.5 1028,702.5 1028,702.5 1031,654.5 1031,654.5 1022.76,638.029 1030.71,590.926 1026,581.5 1026,581.5 1022,543.5 1022,543.5 1008.38,516.269 1014,442.462 1014,411 1024.36,411 1039.93,423.36 1045,433.5 1049.99,443.47 1051.28,466.063 1057,477.5 1057,477.5 1080,521.5 1080,521.5 1082.71,526.918 1094.14,552 1101,552 1101,636.029 1089,727.368 1089,809 1089,809 1074,813 1074,813  Z"/></g><g id="#80c000,378,SSs,Supplemental%20somatosensory%20area" fill="none" stroke="#80c000" stroke-width="4.533333333333333"><path d=" M517 912 L501,914 C493.41,914 478.065,874.63 475,868.5 464.327,847.154 432.187,782.343 411.5,772 401.514,767.007 392.718,748 379,748 379,748 306,715 306,715 306,715 305,712 305,712 305,712 305,668.5 305,668.5 305,648.644 303.639,602.223 313,583.5 313,583.5 330,542.5 330,542.5 330,542.5 368,489.5 368,489.5 368,489.5 397,458 397,458 405.577,458 439.843,426 456,426 456,434.317 501.379,454.742 492,473.5 483.792,489.916 461.833,548.166 470,564.5 471.701,567.902 467.056,596 473,596 473,632.678 478,667.949 478,706 478,706 480,724.5 480,724.5 480,724.5 495,779.5 495,779.5 495,779.5 525,864.5 525,864.5 530.649,875.798 517,900.071 517,912  Z"/></g><g id="#c00000,48,ACAv,Anterior%20cingulate%20area%2C%20ventral%20part" fill="none" stroke="#c00000" stroke-width="4.533333333333333"><path d=" M1174 433 L1173,434 C1173,434 1174,433 1174,433  Z"/><path d=" M1089 809 L1155.5,797 L1162.5,808 L1170,818 C1174.83,818 1176.58,807.665 1175,804.5 1175,804.5 1175,743 1175,743 1175,743 1176,506.5 1176,506.5 1176,506.5 1176,451 1176,451 1176,448.412 1175.68,435 1173,435 1173,455.962 1147,471.352 1147,486 1147,486 1128,538.5 1128,538.5 1128,538.5 1101,552 1101,552 1101,636.029 1089,727.368 1089,809  Z"/></g><g id="#c04040,677,VISC,Visceral%20area" fill="none" stroke="#c04040" stroke-width="4.533333333333333"><path d=" M240 670 L305,712 C305,712 305,668.5 305,668.5 305,648.644 303.639,602.223 313,583.5 313,583.5 330,542.5 330,542.5 330,542.5 368,489.5 368,489.5 368,489.5 397,458 397,458 397,458 361.5,476 361.5,476 333.603,489.949 310.523,510 277,510 277,510 257,540.5 257,540.5 257,540.5 231,587.5 231,587.5 231,587.5 218,635.5 218,635.5 218,635.5 213,650 213,650 213,650 240,670 240,670  Z"/></g><g id="#40c000,369,SSp-ul,Primary%20somatosensory%20area%2C%20upper%20limb" fill="none" stroke="#40c000" stroke-width="4.533333333333333"><path d=" M767 839 L732,842 C732,842 702,750.5 702,750.5 685.948,718.396 679,658.759 679,620 679,620 693,551 693,551 693,551 715.5,574 715.5,574 729.509,581.004 767.197,631.894 775,647.5 775,647.5 790,669 790,669 790,669 788,717.5 788,717.5 788,717.5 753,766.5 753,766.5 744.933,782.633 767,820.195 767,839  Z"/></g><g id="#c08000,353,SSp-n,Primary%20somatosensory%20area%2C%20nose" fill="none" stroke="#c08000" stroke-width="4.533333333333333"><path d=" M478 706 L561.5,715 L598.5,717 L627.5,714 L636,711 C636,711 650,682.5 650,682.5 650,682.5 643,638 643,638 643,638 622.5,626 622.5,626 617.811,623.655 608.575,624.038 602.5,621 602.5,621 473,596 473,596 473,632.678 478,667.949 478,706  Z"/></g><g id="#c0c040,922,PERI,Perirhinal%20area" fill="none" stroke="#c0c040" stroke-width="4.533333333333333"><path d=" M216 1001 L232,1001 C232,1001 200,957.5 200,957.5 194.929,947.357 185.011,934.523 179,922.5 179,922.5 165,873.5 165,873.5 165,873.5 163,830.5 163,830.5 163,830.5 165,794 165,794 165,771.626 177.943,694.614 187,676.5 187,676.5 200,642 200,642 200,642 171,618 171,618 171,618 156,725.5 156,725.5 156,725.5 141,783.5 141,783.5 141,830.625 147.271,879.042 170,924.5 180.121,944.741 192.701,963.903 203,984.5 203,984.5 216,1001 216,1001  Z"/></g><g id="#008080,182305689,SSp-un,Primary%20somatosensory%20area%2C%20unassigned" fill="none" stroke="#008080" stroke-width="4.533333333333333"><path d=" M732 842 L704,846 C704,846 699,804.5 699,804.5 687.409,781.317 672.213,711 636,711 636,711 650,682.5 650,682.5 650,682.5 643,638 643,638 651.608,638 658.346,643.577 667.5,639 667.5,639 679,620 679,620 679,658.759 685.948,718.396 702,750.5 702,750.5 732,842 732,842  Z"/></g><g id="#80c040,895,ECT,Ectorhinal%20area" fill="none" stroke="#80c040" stroke-width="4.533333333333333"><path d=" M258 998 L232,1001 C232,1001 200,957.5 200,957.5 194.929,947.357 185.011,934.523 179,922.5 179,922.5 165,873.5 165,873.5 165,873.5 163,830.5 163,830.5 163,830.5 165,794 165,794 165,771.626 177.943,694.614 187,676.5 187,676.5 200,642 200,642 200,642 213,650 213,650 213,650 240,670 240,670 240,670 230,686.5 230,686.5 230,686.5 214,721.5 214,721.5 214,721.5 209,750.5 209,750.5 191.251,785.997 202.406,897.311 219,930.5 223.316,939.132 258,997.367 258,998  Z"/></g><g id="#408000,337,SSp-ll,Primary%20somatosensory%20area%2C%20lower%20limb" fill="none" stroke="#408000" stroke-width="4.533333333333333"><path d=" M883 813 L848.5,827 C827.678,837.411 790.199,839 767,839 767,820.195 744.933,782.633 753,766.5 753,766.5 788,717.5 788,717.5 788,717.5 790,669 790,669 790,669 817,705.5 817,705.5 834.453,740.407 883,771.679 883,813  Z"/></g><g id="#804040,541,TEa,Temporal%20association%20areas" fill="none" stroke="#804040" stroke-width="4.533333333333333"><path d=" M258 998 L400,1024 C404.592,1024 436.472,973 448,973 448,973 451,965 451,965 451,965 436,961 436,961 436,961 390.5,962 390.5,962 390.5,962 341.5,958 341.5,958 341.5,958 308,945 308,945 282.237,945 267.284,915.068 258,896.5 238.96,858.419 246.706,802.089 265,765.5 265,765.5 290,730.5 290,730.5 290,730.5 306,715 306,715 306,715 305,712 305,712 305,712 240,670 240,670 240,670 230,686.5 230,686.5 230,686.5 214,721.5 214,721.5 214,721.5 209,750.5 209,750.5 191.251,785.997 202.406,897.311 219,930.5 223.316,939.132 258,997.367 258,998  Z"/></g><g id="#008000,329,SSp-bfd,Primary%20somatosensory%20area%2C%20barrel%20field" fill="none" stroke="#008000" stroke-width="4.533333333333333"><path d=" M517 912 L536,921 C559.052,921 614.338,921.581 633.5,912 633.5,912 687,891 687,891 687,891 693,882 693,882 693,869.652 704,856.863 704,846 704,846 699,804.5 699,804.5 687.409,781.317 672.213,711 636,711 636,711 627.5,714 627.5,714 627.5,714 598.5,717 598.5,717 598.5,717 561.5,715 561.5,715 561.5,715 478,706 478,706 478,706 480,724.5 480,724.5 480,724.5 495,779.5 495,779.5 495,779.5 525,864.5 525,864.5 530.649,875.798 517,900.071 517,912  Z"/></g><g id="#404080,1018,AUDv,Ventral%20auditory%20area" fill="none" stroke="#404080" stroke-width="4.533333333333333"><path d=" M330 935 C330,942.293 308,941.17 308,945 282.237,945 267.284,915.068 258,896.5 238.96,858.419 246.706,802.089 265,765.5 265,765.5 290,730.5 290,730.5 290,730.5 306,715 306,715 306,715 379,748 379,748 379,748 366,779 366,779 356.987,779 345.894,768.803 335.5,774 286.715,798.392 289.381,862.261 312,907.5 312,907.5 330,935 330,935  Z"/></g><g id="#004080,1011,AUDd,Dorsal%20auditory%20area" fill="none" stroke="#004080" stroke-width="4.533333333333333"><path d=" M501 914 L475,934 C475,934 425,889 425,889 425,869.342 409.336,830.172 401,813.5 401,813.5 366,779 366,779 366,779 379,748 379,748 392.718,748 401.514,767.007 411.5,772 432.187,782.343 464.327,847.154 475,868.5 478.065,874.63 493.41,914 501,914  Z"/></g><g id="#c00080,1002,AUDp,Primary%20auditory%20area" fill="none" stroke="#c00080" stroke-width="4.533333333333333"><path d=" M425 889 C425,937.912 368.839,935 330,935 330,935 312,907.5 312,907.5 289.381,862.261 286.715,798.392 335.5,774 345.894,768.803 356.987,779 366,779 366,779 401,813.5 401,813.5 409.336,830.172 425,869.342 425,889  Z"/></g><g id="#00c040,886,RSPv,Retrosplenial%20area%2C%20ventral%20part" fill="none" stroke="#00c040" stroke-width="4.533333333333333"><path fill-rule="evenodd" d=" M1065 1162 C1065,1163.93 1066.93,1162 1065,1162  M1170 818 L1175,828 L1175,879.5 L1172,885.5 L1175,893.5 L1171,899.5 C1173.73,904.961 1179.4,946.708 1175,955.5 L1169,958.5 L1174,968.5 C1167.34,981.812 1180.28,995.944 1171,1014.5 L1170,1025.5 L1175,1025.5 L1171,1055.5 L1176,1068.5 L1034.5,1199 L878,1345.5 L853.5,1341 C850.419,1339.46 836,1348.77 836,1344 836,1344 858.5,1324 858.5,1324 879.595,1313.45 898.67,1284.16 909,1263.5 909,1263.5 932,1215.5 932,1215.5 932,1215.5 934,1191.5 934,1191.5 934,1191.5 952,1115.5 952,1115.5 954.972,1109.56 952.753,1045.99 960,1031.5 960,1031.5 967,1004.5 967,1004.5 979.257,979.987 987.902,951.696 1000,927.5 1014.83,897.837 1037.19,871.129 1052,841.5 1052,841.5 1074,813 1074,813 1074,813 1089,809 1089,809 1089,809 1155.5,797 1155.5,797 1155.5,797 1162.5,808 1162.5,808 1162.5,808 1170,818 1170,818  Z"/><path d=" M854 1344 C854,1352.88 863.372,1344 854,1344  Z"/></g><g id="#00c000,361,SSp-tr,Primary%20somatosensory%20area%2C%20trunk" fill="none" stroke="#00c000" stroke-width="4.533333333333333"><path d=" M860 881 L833.5,887 L693,882 C693,869.652 704,856.863 704,846 704,846 732,842 732,842 732,842 767,839 767,839 790.199,839 827.678,837.411 848.5,827 848.5,827 883,813 883,813 883,813 889,822 889,822 889,839.652 860,870.747 860,881  Z"/></g><g id="#c08040,879,RSPd,Retrosplenial%20area%2C%20dorsal%20part" fill="none" stroke="#c08040" stroke-width="4.533333333333333"><path d=" M568 1295 L581.5,1301 L632.5,1322 L673.5,1329 C689.024,1321.24 708.538,1336 724.5,1336 L764.5,1338 L779.5,1334 C794.914,1341.71 819.705,1344 836,1344 836,1344 858.5,1324 858.5,1324 879.595,1313.45 898.67,1284.16 909,1263.5 909,1263.5 932,1215.5 932,1215.5 932,1215.5 934,1191.5 934,1191.5 934,1191.5 952,1115.5 952,1115.5 954.972,1109.56 952.753,1045.99 960,1031.5 960,1031.5 967,1004.5 967,1004.5 979.257,979.987 987.902,951.696 1000,927.5 1014.83,897.837 1037.19,871.129 1052,841.5 1052,841.5 1074,813 1074,813 1074,813 1024,820 1024,820 1024,820 955,828 955,828 955,828 942.5,837 942.5,837 942.5,837 915,865.5 915,865.5 915,865.5 893,896.5 893,896.5 893,896.5 868,959.5 868,959.5 868,959.5 861,991.5 861,991.5 861,991.5 852,1037.5 852,1037.5 852,1037.5 848,1066.5 848,1066.5 840.394,1081.71 851.588,1099.32 844,1114.5 844,1114.5 840,1176.5 840,1176.5 840,1176.5 838,1188.5 838,1188.5 822.296,1219.91 813.741,1238.88 781.5,1255 772.136,1259.68 713.929,1286.71 706.5,1283 706.5,1283 677,1286 677,1286 653.932,1286 624.945,1285 602,1285 595.55,1285 568,1287.47 568,1295  Z"/></g><g id="#40c040,894,RSPagl,Retrosplenial%20area%2C%20lateral%20agranular%20part" fill="none" stroke="#40c040" stroke-width="4.533333333333333"><path d=" M535 1246 L602,1285 C624.945,1285 653.932,1286 677,1286 677,1286 706.5,1283 706.5,1283 713.929,1286.71 772.136,1259.68 781.5,1255 813.741,1238.88 822.296,1219.91 838,1188.5 838,1188.5 840,1176.5 840,1176.5 840,1176.5 844,1114.5 844,1114.5 851.588,1099.32 840.394,1081.71 848,1066.5 848,1066.5 852,1037.5 852,1037.5 852,1037.5 861,991.5 861,991.5 861,991.5 868,959.5 868,959.5 868,959.5 893,896.5 893,896.5 893,896.5 915,865.5 915,865.5 915,865.5 942.5,837 942.5,837 942.5,837 955,828 955,828 955,828 926,825 926,825 926,825 889,822 889,822 889,839.652 860,870.747 860,881 860,881 842,923 842,923 842,923 810,1027 810,1027 810,1027 786,1147.5 786,1147.5 786,1147.5 771,1183 771,1183 771,1196.01 748.466,1208.57 744,1217.5 734.58,1236.34 712.719,1235.39 695.5,1244 695.5,1244 684.5,1244 684.5,1244 658.793,1256.85 566.866,1246 535,1246  Z"/></g><g id="#408080,312782546,VISa,Anterior%20area" fill="none" stroke="#408080" stroke-width="4.533333333333333"><path d=" M685 950 L714,964 C742.051,964 795.995,943.753 821.5,931 821.5,931 842,923 842,923 842,923 860,881 860,881 860,881 833.5,887 833.5,887 833.5,887 693,882 693,882 693,882 687,891 687,891 687,911.48 685,930.634 685,950  Z"/></g><g id="#804080,1027,AUDpo,Posterior%20auditory%20area" fill="none" stroke="#804080" stroke-width="4.533333333333333"><path d=" M308 945 L341.5,958 L390.5,962 L436,961 L451,965 C451,965 475,934 475,934 475,934 425,889 425,889 425,937.912 368.839,935 330,935 330,942.293 308,941.17 308,945  Z"/></g><g id="#c00040,417,VISrl,Rostrolateral%20visual%20area" fill="none" stroke="#c00040" stroke-width="4.533333333333333"><path d=" M685 950 C661.781,950 624.571,962.965 602.5,974 L567,991 C567,991 536,921 536,921 559.052,921 614.338,921.581 633.5,912 633.5,912 687,891 687,891 687,911.48 685,930.634 685,950  Z"/></g><g id="#400040,402,VISal,Anterolateral%20visual%20area" fill="none" stroke="#400040" stroke-width="4.533333333333333"><path d=" M567 991 L556,1001 C556,1001 475,983 475,983 475,983 448,973 448,973 448,973 451,965 451,965 451,965 475,934 475,934 475,934 501,914 501,914 501,914 517,912 517,912 517,912 536,921 536,921 536,921 567,991 567,991  Z"/></g><g id="#000040,394,VISam,Anteromedial%20visual%20area" fill="none" stroke="#000040" stroke-width="4.533333333333333"><path d=" M714 966 C735.537,966 769.162,1000.83 789.5,1011 L810,1027 C810,1027 842,923 842,923 842,923 821.5,931 821.5,931 795.995,943.753 742.051,964 714,964 714,964 714,966 714,966  Z"/></g><g id="#c0c000,385,VISp,Primary%20visual%20area" fill="none" stroke="#c0c000" stroke-width="4.533333333333333"><path d=" M771 1183 C771,1196.01 748.466,1208.57 744,1217.5 734.58,1236.34 712.719,1235.39 695.5,1244 L684.5,1244 C658.793,1256.85 566.866,1246 535,1246 535,1246 510.5,1232 510.5,1232 510.5,1232 480,1213.5 480,1213.5 480,1213.5 476,1196.5 476,1196.5 464.933,1174.37 454,1164.13 454,1138 454,1138 478,1106.5 478,1106.5 492.073,1078.35 517.281,1057.94 531,1030.5 531,1030.5 556,1001 556,1001 556,1001 567,991 567,991 567,991 602.5,974 602.5,974 624.571,962.965 661.781,950 685,950 685,950 714,964 714,964 714,964 714,966 714,966 714,966 737,1027.5 737,1027.5 737,1027.5 757,1107.5 757,1107.5 757,1107.5 771,1183 771,1183  Z"/></g><g id="#404040,533,VISpm,posteromedial%20visual%20area" fill="none" stroke="#404040" stroke-width="4.533333333333333"><path d=" M810 1027 L786,1147.5 L771,1183 C771,1183 757,1107.5 757,1107.5 757,1107.5 737,1027.5 737,1027.5 737,1027.5 714,966 714,966 735.537,966 769.162,1000.83 789.5,1011 789.5,1011 810,1027 810,1027  Z"/></g><g id="#808080,312782574,VISli,Laterointermediate%20area" fill="none" stroke="#808080" stroke-width="4.533333333333333"><path d=" M400 1024 C400,1034.07 373.728,1048.96 379,1059.5 L395,1074.5 L407,1084 C407,1084 475,983 475,983 475,983 448,973 448,973 436.472,973 404.592,1024 400,1024  Z"/></g><g id="#800040,409,VISl,Lateral%20visual%20area" fill="none" stroke="#800040" stroke-width="4.533333333333333"><path d=" M413 1095 C422.336,1095 440.31,1138 454,1138 454,1138 478,1106.5 478,1106.5 492.073,1078.35 517.281,1057.94 531,1030.5 531,1030.5 556,1001 556,1001 556,1001 475,983 475,983 475,983 407,1084 407,1084 407,1084 413,1095 413,1095  Z"/></g><g id="#c08080,312782628,VISpor,Postrhinal%20area" fill="none" stroke="#c08080" stroke-width="4.533333333333333"><path d=" M413 1095 L354,1148 C335.969,1148 336.722,1132.11 322.5,1125 302.771,1115.14 247.921,1050.34 235,1024.5 235,1024.5 225,1008.5 225,1008.5 225,1008.5 216,1001 216,1001 216,1001 232,1001 232,1001 232,1001 258,998 258,998 258,998 400,1024 400,1024 400,1034.07 373.728,1048.96 379,1059.5 379,1059.5 395,1074.5 395,1074.5 395,1074.5 407,1084 407,1084 407,1084 413,1095 413,1095  Z"/></g><g id="#004040,425,VISpl,Posterolateral%20visual%20area" fill="none" stroke="#004040" stroke-width="4.533333333333333"><path d=" M602 1285 C595.55,1285 568,1287.47 568,1295 550.013,1295 534.175,1266.84 518.5,1259 518.5,1259 431.5,1208 431.5,1208 413.713,1199.11 396.915,1192.33 388,1174.5 383.064,1164.63 354,1162.45 354,1148 354,1148 413,1095 413,1095 422.336,1095 440.31,1138 454,1138 454,1164.13 464.933,1174.37 476,1196.5 476,1196.5 480,1213.5 480,1213.5 480,1213.5 510.5,1232 510.5,1232 510.5,1232 535,1246 535,1246 535,1246 602,1285 602,1285  Z"/><path d=" M529 1270 C529,1278.6 537.857,1270 529,1270  Z"/></g><g id="area_labels" style="fill:#000; text-anchor: middle; dominant-baseline: middle; font-size:22.666666666666668px; font-family: sans-serif">
<g><text stroke-width="2.2666666666666666" stroke="#666" x="792.9044114450887" y="150.15676162744018">ORBl</text>
<text x="792.9044114450887" y="150.15676162744018">ORBl</text></g>
<g><text stroke-width="2.2666666666666666" stroke="#666" x="938.6478510896841" y="188.89887521335822">ORBvl</text>
<text x="938.6478510896841" y="188.89887521335822">ORBvl</text></g>
<g><text stroke-width="2.2666666666666666" stroke="#666" x="446.0697373511845" y="270.93084573708234">AIv</text>
<text x="446.0697373511845" y="270.93084573708234">AIv</text></g>
<g><text stroke-width="2.2666666666666666" stroke="#666" x="667.0202537041056" y="235.359375">AId</text>
<text x="667.0202537041056" y="235.359375">AId</text></g>
<g><text stroke-width="2.2666666666666666" stroke="#666" x="1063.220369468892" y="271.6549395705007">ORBm</text>
<text x="1063.220369468892" y="271.6549395705007">ORBm</text></g>
<g><text stroke-width="2.2666666666666666" stroke="#666" x="898.3602530650282" y="451.3933753987397">MOs</text>
<text x="898.3602530650282" y="451.3933753987397">MOs</text></g>
<g><text stroke-width="2.2666666666666666" stroke="#666" x="967.9435779984566" y="295.1718750112911">FRP</text>
<text x="967.9435779984566" y="295.1718750112911">FRP</text></g>
<g><text stroke-width="2.2666666666666666" stroke="#666" x="1157.9122576544376" y="445.56055103152136">ILA</text>
<text x="1157.9122576544376" y="445.56055103152136">ILA</text></g>
<g><text stroke-width="2.2666666666666666" stroke="#666" x="658.7849098791373" y="418.4415815122382">MOp</text>
<text x="658.7849098791373" y="418.4415815122382">MOp</text></g>
<g><text stroke-width="2.2666666666666666" stroke="#666" x="1093.8552568053444" y="397.03137114298346">PL</text>
<text x="1093.8552568053444" y="397.03137114298346">PL</text></g>
<g><text stroke-width="2.2666666666666666" stroke="#666" x="386.5390055758008" y="431.57035396330565">GU</text>
<text x="386.5390055758008" y="431.57035396330565">GU</text></g>
<g><text stroke-width="2.2666666666666666" stroke="#666" x="228.92614849804016" y="516.6140695796264">AIp</text>
<text x="228.92614849804016" y="516.6140695796264">AIp</text></g>
<g><text stroke-width="2.2666666666666666" stroke="#666" x="560.992176705809" y="526.3080695695983">SSp-m</text>
<text x="560.992176705809" y="526.3080695695983">SSp-m</text></g>
<g><text stroke-width="2.2666666666666666" stroke="#666" x="1062.7082645516475" y="632.0790628969522">ACAd</text>
<text x="1062.7082645516475" y="632.0790628969522">ACAd</text></g>
<g><text stroke-width="2.2666666666666666" stroke="#666" x="390.29595716859706" y="658.9321824923845">SSs</text>
<text x="390.29595716859706" y="658.9321824923845">SSs</text></g>
<g><text stroke-width="2.2666666666666666" stroke="#666" x="1132.0254325689928" y="731.1118391230497">ACAv</text>
<text x="1132.0254325689928" y="731.1118391230497">ACAv</text></g>
<g><text stroke-width="2.2666666666666666" stroke="#666" x="262.1848732311773" y="633.73111129156">VISC</text>
<text x="262.1848732311773" y="633.73111129156">VISC</text></g>
<g><text stroke-width="2.2666666666666666" stroke="#666" x="735.9157960768559" y="685.4288769009027">SSp-ul</text>
<text x="735.9157960768559" y="685.4288769009027">SSp-ul</text></g>
<g><text stroke-width="2.2666666666666666" stroke="#666" x="532.9875031703291" y="660.0812671099196">SSp-n</text>
<text x="532.9875031703291" y="660.0812671099196">SSp-n</text></g>
<g><text stroke-width="2.2666666666666666" stroke="#666" x="182.15892202823136" y="646.5348742287407">PERI</text>
<text x="182.15892202823136" y="646.5348742287407">PERI</text></g>
<g><text stroke-width="2.2666666666666666" stroke="#666" x="664.9537473586265" y="692.0150685500453">SSp-un</text>
<text x="664.9537473586265" y="692.0150685500453">SSp-un</text></g>
<g><text stroke-width="2.2666666666666666" stroke="#666" x="199.4290505206621" y="700.5741370550934">ECT</text>
<text x="199.4290505206621" y="700.5741370550934">ECT</text></g>
<g><text stroke-width="2.2666666666666666" stroke="#666" x="807.6057917623934" y="786.0427841725959">SSp-ll</text>
<text x="807.6057917623934" y="786.0427841725959">SSp-ll</text></g>
<g><text stroke-width="2.2666666666666666" stroke="#666" x="253.16074945613585" y="721.3744201020584">TEa</text>
<text x="253.16074945613585" y="721.3744201020584">TEa</text></g>
<g><text stroke-width="2.2666666666666666" stroke="#666" x="606.0574616346598" y="821.7210115860296">SSp-bfd</text>
<text x="606.0574616346598" y="821.7210115860296">SSp-bfd</text></g>
<g><text stroke-width="2.2666666666666666" stroke="#666" x="312.49799312174565" y="751.0273198581745">AUDv</text>
<text x="312.49799312174565" y="751.0273198581745">AUDv</text></g>
<g><text stroke-width="2.2666666666666666" stroke="#666" x="450.49155957424415" y="877.8037406102312">AUDd</text>
<text x="450.49155957424415" y="877.8037406102312">AUDd</text></g>
<g><text stroke-width="2.2666666666666666" stroke="#666" x="354.12201125447405" y="855.903038247121">AUDp</text>
<text x="354.12201125447405" y="855.903038247121">AUDp</text></g>
<g><text stroke-width="2.2666666666666666" stroke="#666" x="1068.3374521236033" y="1029.3383141761099">RSPv</text>
<text x="1068.3374521236033" y="1029.3383141761099">RSPv</text></g>
<g><text stroke-width="2.2666666666666666" stroke="#666" x="834.338110107276" y="861.1542755610828">SSp-tr</text>
<text x="834.338110107276" y="861.1542755610828">SSp-tr</text></g>
<g><text stroke-width="2.2666666666666666" stroke="#666" x="927.8261923468744" y="959.1751659893855">RSPd</text>
<text x="927.8261923468744" y="959.1751659893855">RSPd</text></g>
<g><text stroke-width="2.2666666666666666" stroke="#666" x="806.7283451866792" y="1180.2313426428657">RSPagl</text>
<text x="806.7283451866792" y="1180.2313426428657">RSPagl</text></g>
<g><text stroke-width="2.2666666666666666" stroke="#666" x="727.9524542745169" y="923.9537550754537">VISa</text>
<text x="727.9524542745169" y="923.9537550754537">VISa</text></g>
<g><text stroke-width="2.2666666666666666" stroke="#666" x="446.100784473914" y="937.0774533887412">AUDpo</text>
<text x="446.100784473914" y="937.0774533887412">AUDpo</text></g>
<g><text stroke-width="2.2666666666666666" stroke="#666" x="582.1309806259432" y="950.8798559440398">VISrl</text>
<text x="582.1309806259432" y="950.8798559440398">VISrl</text></g>
<g><text stroke-width="2.2666666666666666" stroke="#666" x="509.9026202582621" y="953.0198566206394">VISal</text>
<text x="509.9026202582621" y="953.0198566206394">VISal</text></g>
<g><text stroke-width="2.2666666666666666" stroke="#666" x="792.2724776294698" y="978.1172808064013">VISam</text>
<text x="792.2724776294698" y="978.1172808064013">VISam</text></g>
<g><text stroke-width="2.2666666666666666" stroke="#666" x="627.8463710766885" y="1123.8463710766885">VISp</text>
<text x="627.8463710766885" y="1123.8463710766885">VISp</text></g>
<g><text stroke-width="2.2666666666666666" stroke="#666" x="774.0085349291398" y="1040.9125660723419">VISpm</text>
<text x="774.0085349291398" y="1040.9125660723419">VISpm</text></g>
<g><text stroke-width="2.2666666666666666" stroke="#666" x="403.06888687252115" y="1054.492872769841">VISli</text>
<text x="403.06888687252115" y="1054.492872769841">VISli</text></g>
<g><text stroke-width="2.2666666666666666" stroke="#666" x="487.0894224501581" y="1033.2779752663769">VISl</text>
<text x="487.0894224501581" y="1033.2779752663769">VISl</text></g>
<g><text stroke-width="2.2666666666666666" stroke="#666" x="325.37458766057216" y="1062.3753725376048">VISpor</text>
<text x="325.37458766057216" y="1062.3753725376048">VISpor</text></g>
<g><text stroke-width="2.2666666666666666" stroke="#666" x="420.3671875" y="1164.6484375">VISpl</text>
<text x="420.3671875" y="1164.6484375">VISpl</text></g>
</g></svg>