<svg xmlns="http://www.w3.org/2000/svg" xmlns:xlink="http://www.w3.org/1999/xlink" height="1320" width="1140"><g/><g id="#800000,184,FRP,Frontal%20pole%2C%20cerebral%20cortex" fill="none" stroke="#800000" stroke-width="4.4"><path d=" M389 193 L494,196 C494,196 519.5,189 519.5,189 519.5,189 546,189 546,189 546,178.013 523.488,181 517,181 517,181 455.5,182 455.5,182 455.5,182 424,187 424,187 424,187 389,193 389,193  Z"/></g><g id="#008040,972,PL,Prelimbic%20area" fill="none" stroke="#008040" stroke-width="4.4"><path d=" M540 248 C552.737,248 561.074,272.648 565,280.5 L570,294 C570,294 568,220 568,220 568,220 566,216 566,216 566,216 562,209 562,209 562,209 559,204 559,204 559,204 558,202 558,202 558,202 557,201 557,201 557,201 555,198 555,198 555,198 554,197 554,197 554,197 548,191 548,191 548,191 547,190 547,190 547,190 546,189 546,189 546,189 519.5,189 519.5,189 519.5,189 494,196 494,196 494,196 540,248 540,248  Z"/></g><g id="#c00040,731,ORBm,Orbital%20area%2C%20medial%20part" fill="none" stroke="#c00040" stroke-width="4.4"><path d=" M547 190 L548,191 C548,191 547,190 547,190  Z"/><path d=" M554 197 L555,198 C555,198 554,197 554,197  Z"/><path d=" M557 201 L558,202 C558,202 557,201 557,201  Z"/><path d=" M559 204 L562,209 C562,209 559,204 559,204  Z"/><path d=" M566 216 L568,220 C568,220 566,216 566,216  Z"/></g><g id="#808040,993,MOs,Secondary%20motor%20area" fill="none" stroke="#808040" stroke-width="4.4"><path d=" M498 607 L526,607 C526,607 566,605 566,605 566,605 567,488 567,488 567,488 563,434.5 563,434.5 563,434.5 559,383.5 559,383.5 559,383.5 549,293.5 549,293.5 549,293.5 540,248 540,248 540,248 494,196 494,196 494,196 389,193 389,193 354.669,193 324.477,220.023 300.5,244 300.5,244 276,271 276,271 276,271 303.5,303 303.5,303 303.5,303 386.5,384 386.5,384 386.5,384 416.5,416 416.5,416 429.692,422.596 445.606,447.711 452,460.5 476.422,509.344 498,547.36 498,607  Z"/></g><g id="#400000,39,ACAd,Anterior%20cingulate%20area%2C%20dorsal%20part" fill="none" stroke="#400000" stroke-width="4.4"><path d=" M566 605 L570,605 C570,605 570,294 570,294 570,294 565,280.5 565,280.5 561.074,272.648 552.737,248 540,248 540,248 549,293.5 549,293.5 549,293.5 559,383.5 559,383.5 559,383.5 563,434.5 563,434.5 563,434.5 567,488 567,488 567,488 566,605 566,605  Z"/></g><g id="#408040,985,MOp,Primary%20motor%20area" fill="none" stroke="#408040" stroke-width="4.4"><path d=" M462 607 L498,607 C498,547.36 476.422,509.344 452,460.5 445.606,447.711 429.692,422.596 416.5,416 416.5,416 386.5,384 386.5,384 386.5,384 303.5,303 303.5,303 303.5,303 276,271 276,271 276,271 259,288.5 259,288.5 259,288.5 207,354 207,354 207,354 264,414 264,414 275.713,414 320.671,458.171 331.5,469 331.5,469 350,489 350,489 350,489 379.5,516 379.5,516 399.696,536.196 454,574.369 454,600 454,604.327 457.949,607 462,607  Z"/></g><g id="#404000,345,SSp-m,Primary%20somatosensory%20area%2C%20mouth" fill="none" stroke="#404000" stroke-width="4.4"><path d=" M224 499 C224,492.858 202.202,497 199,497 174.866,497 134.682,525 126,525 126,499.461 138.15,468.2 149,446.5 149,446.5 161,420 161,420 161,420 207,354 207,354 207,354 264,414 264,414 264,414 253,473 253,473 247.263,473 249.418,483.664 248,486.5 243.755,494.99 232.711,499 224,499  Z"/></g><g id="#008000,369,SSp-ul,Primary%20somatosensory%20area%2C%20upper%20limb" fill="none" stroke="#008000" stroke-width="4.4"><path d=" M349 643 L318,655 C318,655 284,587.5 284,587.5 266.238,551.977 253,515.234 253,473 253,473 264,414 264,414 275.713,414 320.671,458.171 331.5,469 331.5,469 350,489 350,489 350,489 352,531.5 352,531.5 352,531.5 326,579.5 326,579.5 318.035,595.431 349,628.611 349,643  Z"/></g><g id="#408000,378,SSs,Supplemental%20somatosensory%20area" fill="none" stroke="#408000" stroke-width="4.4"><path d=" M167 783 L157,791 C148.088,791 138.637,767.773 136,762.5 128.744,747.987 96.5987,689 80,689 80,689 63,694 63,694 63,694 63,687 63,687 63,687 65,676 65,676 65,676 73,631 73,631 73,631 73,627 73,627 73,627 75,619 75,619 75,619 76,611 76,611 76,611 77,610 77,610 77,573.348 107.888,507.724 124,475.5 124,475.5 141,456.5 141,456.5 141,456.5 161,420 161,420 161,420 149,446.5 149,446.5 138.15,468.2 126,499.461 126,525 126,552.996 122,583.051 122,613 122,674.137 167,716.552 167,783  Z"/></g><g id="#c0c040,182305689,SSp-un,Primary%20somatosensory%20area%2C%20unassigned" fill="none" stroke="#c0c040" stroke-width="4.4"><path d=" M318 655 L295,666 C295,666 287,643.5 287,643.5 287,643.5 285,630.5 285,630.5 273.03,606.561 255.954,562 222,562 222,562 231,536.5 231,536.5 236.539,525.421 224,508.635 224,499 232.711,499 243.755,494.99 248,486.5 249.418,483.664 247.263,473 253,473 253,515.234 266.238,551.977 284,587.5 284,587.5 318,655 318,655  Z"/></g><g id="#004000,337,SSp-ll,Primary%20somatosensory%20area%2C%20lower%20limb" fill="none" stroke="#004000" stroke-width="4.4"><path d=" M454 600 L423.5,617 L349,643 C349,628.611 318.035,595.431 326,579.5 326,579.5 352,531.5 352,531.5 352,531.5 350,489 350,489 350,489 379.5,516 379.5,516 399.696,536.196 454,574.369 454,600  Z"/></g><g id="#804000,353,SSp-n,Primary%20somatosensory%20area%2C%20nose" fill="none" stroke="#804000" stroke-width="4.4"><path d=" M222 562 L201.5,576 L122,613 C122,583.051 126,552.996 126,525 134.682,525 174.866,497 199,497 202.202,497 224,492.858 224,499 224,508.635 236.539,525.421 231,536.5 231,536.5 222,562 222,562  Z"/></g><g id="#c00000,329,SSp-bfd,Primary%20somatosensory%20area%2C%20barrel%20field" fill="none" stroke="#c00000" stroke-width="4.4"><path d=" M167 783 L181,785 C206.228,785 244.618,741.941 266.5,731 266.5,731 288,712 288,712 288,712 292,701 292,701 292,692.311 289.993,681.514 294,673.5 294,673.5 295,666 295,666 295,666 287,643.5 287,643.5 287,643.5 285,630.5 285,630.5 273.03,606.561 255.954,562 222,562 222,562 201.5,576 201.5,576 201.5,576 122,613 122,613 122,674.137 167,716.552 167,783  Z"/></g><g id="#c04000,361,SSp-tr,Primary%20somatosensory%20area%2C%20trunk" fill="none" stroke="#c04000" stroke-width="4.4"><path d=" M443 666 L407.5,678 L292,701 C292,692.311 289.993,681.514 294,673.5 294,673.5 295,666 295,666 295,666 318,655 318,655 318,655 349,643 349,643 349,643 423.5,617 423.5,617 423.5,617 454,600 454,600 454,604.327 457.949,607 462,607 462,627.643 443,648.905 443,666  Z"/></g><g id="#004040,879,RSPd,Retrosplenial%20area%2C%20dorsal%20part" fill="none" stroke="#004040" stroke-width="4.4"><path d=" M542 891 C542,911.116 501.645,947.428 484.5,956 L475,966 C475,957.378 491.035,948.57 485,936.5 485,936.5 468,852.5 468,852.5 468,852.5 465,811.5 465,811.5 465,811.5 464,771.5 464,771.5 464,771.5 468,714.5 468,714.5 468,714.5 478,674.5 478,674.5 478,674.5 504,628.5 504,628.5 504,628.5 526,607 526,607 526,607 566,605 566,605 566,605 570,605 570,605 570,605 570,650 570,650 570,650 566,662.5 566,662.5 559.946,674.609 560.867,689.765 555,701.5 555,701.5 552,746.5 552,746.5 552,746.5 550,785.5 550,785.5 550,785.5 549,826.5 549,826.5 549,826.5 543,889 543,889 543,889 543,890 543,890 543,890 542,891 542,891  Z"/><path d=" M475 966 L474,967 C474,967 475,966 475,966  Z"/><path d=" M474 967 L473,968 C473,968 474,967 474,967  Z"/></g><g id="#804040,894,RSPagl,Retrosplenial%20area%2C%20lateral%20agranular%20part" fill="none" stroke="#804040" stroke-width="4.4"><path d=" M473 968 L447.5,990 C432.701,997.399 399.857,1018 384,1018 384,1018 406.5,1006 406.5,1006 423.222,997.639 438,980.737 438,961 438,909.548 426,863.762 426,813 426,774.988 434,741.952 434,708 434,708 443,666 443,666 443,648.905 462,627.643 462,607 462,607 498,607 498,607 498,607 526,607 526,607 526,607 504,628.5 504,628.5 504,628.5 478,674.5 478,674.5 478,674.5 468,714.5 468,714.5 468,714.5 464,771.5 464,771.5 464,771.5 465,811.5 465,811.5 465,811.5 468,852.5 468,852.5 468,852.5 485,936.5 485,936.5 491.035,948.57 475,957.378 475,966 475,966 474,967 474,967 474,967 473,968 473,968  Z"/><path d=" M379 1018 L365,1025 C365,1025 379,1018 379,1018  Z"/><path d=" M365 1025 L364,1026 C364,1026 365,1025 365,1025  Z"/></g><g id="#800040,677,VISC,Visceral%20area" fill="none" stroke="#800040" stroke-width="4.4"><path d=" M77 610 L76,611 C76,611 77,610 77,610  Z"/><path d=" M75 619 L73,627 C73,627 75,619 75,619  Z"/><path d=" M73 631 L70,643.5 L65,676 C65,676 73,631 73,631  Z"/><path d=" M65 676 L63,687 C63,687 65,676 65,676  Z"/></g><g id="#404040,886,RSPv,Retrosplenial%20area%2C%20ventral%20part" fill="none" stroke="#404040" stroke-width="4.4"><path d=" M570 650 L566,662.5 C559.946,674.609 560.867,689.765 555,701.5 L552,746.5 L550,785.5 L549,826.5 L543,889 C549.746,889 564.985,843.529 568,837.5 568,837.5 570,650 570,650  Z"/><path d=" M543 890 L542,891 C542,891 543,890 543,890  Z"/></g><g id="#000080,312782546,VISa,Anterior%20area" fill="none" stroke="#000080" stroke-width="4.4"><path d=" M298 768 L326,775 C326,775 434,708 434,708 434,708 443,666 443,666 443,666 407.5,678 407.5,678 407.5,678 292,701 292,701 292,701 288,712 288,712 288,712 298,768 298,768  Z"/></g><g id="#40c040,1018,AUDv,Ventral%20auditory%20area" fill="none" stroke="#40c040" stroke-width="4.4"><path d=" M60 871 C60.0536,871 64.715,888 79,888 79,888 83,870 83,870 74.2974,870 71.5426,852.585 69,847.5 60.0543,829.609 48.859,769.782 59,749.5 62.5931,742.314 61.0262,721 74,721 74,721 80,689 80,689 80,689 63,694 63,694 63,694 60,701 60,701 60,701 53,759.5 53,759.5 53,759.5 56,843 56,843 56,843 57,844 57,844 57,844 58,860 58,860 58,860 60,867 60,867 60,867 60,871 60,871  Z"/></g><g id="#00c040,1011,AUDd,Dorsal%20auditory%20area" fill="none" stroke="#00c040" stroke-width="4.4"><path d=" M109 795 L147,818 C147,818 157,791 157,791 148.088,791 138.637,767.773 136,762.5 128.744,747.987 96.5987,689 80,689 80,689 74,721 74,721 74,721 89,737.5 89,737.5 89,737.5 109,795 109,795  Z"/></g><g id="#400040,541,TEa,Temporal%20association%20areas" fill="none" stroke="#400040" stroke-width="4.4"><path d=" M63 694 L60,701 C60,701 63,694 63,694  Z"/><path d=" M56 843 L57,844 C57,844 56,843 56,843  Z"/><path d=" M83 945 L88,949 C93.6284,949 128.084,923 141,923 141,903.694 142,882.206 142,863 142,863 142,854 142,854 118.162,854 105.651,888 79,888 64.715,888 60.0536,871 60,871 60,891.046 66.5536,914.607 75,931.5 75,931.5 83,945 83,945  Z"/><path d=" M58 860 L60,867 C60,867 58,860 58,860  Z"/></g><g id="#c08000,394,VISam,Anteromedial%20visual%20area" fill="none" stroke="#c08000" stroke-width="4.4"><path d=" M326 776 C357.125,776 409.929,813 426,813 426,774.988 434,741.952 434,708 434,708 326,775 326,775 326,775 326,776 326,776  Z"/></g><g id="#80c000,417,VISrl,Rostrolateral%20visual%20area" fill="none" stroke="#80c000" stroke-width="4.4"><path d=" M181 785 L208.5,828 L219,840 C219,840 257,795.5 257,795.5 257,795.5 286.5,774 286.5,774 286.5,774 298,768 298,768 298,768 288,712 288,712 288,712 266.5,731 266.5,731 244.618,741.941 206.228,785 181,785  Z"/></g><g id="#c08040,1002,AUDp,Primary%20auditory%20area" fill="none" stroke="#c08040" stroke-width="4.4"><path d=" M109 795 C109,830.524 111.244,824.011 95,856.5 L83,870 C74.2974,870 71.5426,852.585 69,847.5 60.0543,829.609 48.859,769.782 59,749.5 62.5931,742.314 61.0262,721 74,721 74,721 89,737.5 89,737.5 89,737.5 109,795 109,795  Z"/></g><g id="#808000,385,VISp,Primary%20visual%20area" fill="none" stroke="#808000" stroke-width="4.4"><path d=" M364 1026 C331.074,1026 301.172,1038 264,1038 264,1038 258,1034 258,1034 249.207,1034 212,1013.87 212,1003 212,985.599 198.257,923.986 205,910.5 205,910.5 214,853 214,853 214,853 219,840 219,840 219,840 257,795.5 257,795.5 257,795.5 286.5,774 286.5,774 286.5,774 298,768 298,768 298,768 326,775 326,775 326,775 326,776 326,776 326,776 438,961 438,961 438,980.737 423.222,997.639 406.5,1006 406.5,1006 384,1018 384,1018 384,1018 379,1018 379,1018 379,1018 365,1025 365,1025 365,1025 364,1026 364,1026  Z"/></g><g id="#000040,533,VISpm,posteromedial%20visual%20area" fill="none" stroke="#000040" stroke-width="4.4"><path d=" M426 813 C426,863.762 438,909.548 438,961 438,961 326,776 326,776 357.125,776 409.929,813 426,813  Z"/></g><g id="#00c000,402,VISal,Anterolateral%20visual%20area" fill="none" stroke="#00c000" stroke-width="4.4"><path d=" M142 863 L160,863 C160,863 214,853 214,853 214,853 219,840 219,840 219,840 208.5,828 208.5,828 208.5,828 181,785 181,785 181,785 167,783 167,783 167,783 157,791 157,791 157,791 147,818 147,818 147,818 142,854 142,854 142,854 142,863 142,863  Z"/></g><g id="#80c040,1027,AUDpo,Posterior%20auditory%20area" fill="none" stroke="#80c040" stroke-width="4.4"><path d=" M83 870 L79,888 C105.651,888 118.162,854 142,854 142,854 147,818 147,818 147,818 109,795 109,795 109,830.524 111.244,824.011 95,856.5 95,856.5 83,870 83,870  Z"/></g><g id="#40c000,409,VISl,Lateral%20visual%20area" fill="none" stroke="#40c000" stroke-width="4.4"><path d=" M175 981 L212,1003 C212,985.599 198.257,923.986 205,910.5 205,910.5 214,853 214,853 214,853 160,863 160,863 160,900.737 168,936.709 168,972 168,972 175,981 175,981  Z"/></g><g id="#400080,312782574,VISli,Laterointermediate%20area" fill="none" stroke="#400080" stroke-width="4.4"><path d=" M141 923 C141,942.768 142.322,972 168,972 168,936.709 160,900.737 160,863 160,863 142,863 142,863 142,882.206 141,903.694 141,923  Z"/></g><g id="#800080,312782628,VISpor,Postrhinal%20area" fill="none" stroke="#800080" stroke-width="4.4"><path d=" M175 981 L174,1006.5 L182,1030 C154.795,1030 121.071,1000.64 109,976.5 109,976.5 88,951 88,951 88,951 88,949 88,949 93.6284,949 128.084,923 141,923 141,942.768 142.322,972 168,972 168,972 175,981 175,981  Z"/></g><g id="#c04040,895,ECT,Ectorhinal%20area" fill="none" stroke="#c04040" stroke-width="4.4"><path d=" M88 949 L88,951 C88,951 83,945 83,945 83,945 88,949 88,949  Z"/></g><g id="#c0c000,425,VISpl,Posterolateral%20visual%20area" fill="none" stroke="#c0c000" stroke-width="4.4"><path d=" M182 1030 L220.5,1038 L264,1038 C264,1038 258,1034 258,1034 249.207,1034 212,1013.87 212,1003 212,1003 175,981 175,981 175,981 174,1006.5 174,1006.5 174,1006.5 182,1030 182,1030  Z"/></g><g id="area_labels" style="fill:#000; text-anchor: middle; dominant-baseline: middle; font-size:22.0px; font-family: sans-serif">
<g><text stroke-width="2.2" stroke="#666" x="490.6849420945245" y="188.75564305343752">FRP</text>
<text x="490.6849420945245" y="188.75564305343752">FRP</text></g>
<g><text stroke-width="2.2" stroke="#666" x="539.3919393479991" y="214.23170938795164">PL</text>
<text x="539.3919393479991" y="214.23170938795164">PL</text></g>
<g><text stroke-width="2.2" stroke="#666" x="547.5" y="190.5">ORBm</text>
<text x="547.5" y="190.5">ORBm</text></g>
<g><text stroke-width="2.2" stroke="#666" x="445.60467627297265" y="297.9343785456586">MOs</text>
<text x="445.60467627297265" y="297.9343785456586">MOs</text></g>
<g><text stroke-width="2.2" stroke="#666" x="559.3750008803463" y="294.8749970772502">ACAd</text>
<text x="559.3750008803463" y="294.8749970772502">ACAd</text></g>
<g><text stroke-width="2.2" stroke="#666" x="287.2441603055297" y="361.82700481660834">MOp</text>
<text x="287.2441603055297" y="361.82700481660834">MOp</text></g>
<g><text stroke-width="2.2" stroke="#666" x="206.562470823145" y="443.81378678796233">SSp-m</text>
<text x="206.562470823145" y="443.81378678796233">SSp-m</text></g>
<g><text stroke-width="2.2" stroke="#666" x="302.0718668524388" y="509.05424181356784">SSp-ul</text>
<text x="302.0718668524388" y="509.05424181356784">SSp-ul</text></g>
<g><text stroke-width="2.2" stroke="#666" x="94.9609375" y="661.2586440255153">SSs</text>
<text x="94.9609375" y="661.2586440255153">SSs</text></g>
<g><text stroke-width="2.2" stroke="#666" x="245.98631313874844" y="545.0113347917173">SSp-un</text>
<text x="245.98631313874844" y="545.0113347917173">SSp-un</text></g>
<g><text stroke-width="2.2" stroke="#666" x="379.7480087208387" y="581.5021503645371">SSp-ll</text>
<text x="379.7480087208387" y="581.5021503645371">SSp-ll</text></g>
<g><text stroke-width="2.2" stroke="#666" x="184.13228186754347" y="539.423521028924">SSp-n</text>
<text x="184.13228186754347" y="539.423521028924">SSp-n</text></g>
<g><text stroke-width="2.2" stroke="#666" x="212.0723711819248" y="654.9316906159678">SSp-bfd</text>
<text x="212.0723711819248" y="654.9316906159678">SSp-bfd</text></g>
<g><text stroke-width="2.2" stroke="#666" x="403.3636169922458" y="651.8010010879019">SSp-tr</text>
<text x="403.3636169922458" y="651.8010010879019">SSp-tr</text></g>
<g><text stroke-width="2.2" stroke="#666" x="507.4852839977576" y="770.8258250526535">RSPd</text>
<text x="507.4852839977576" y="770.8258250526535">RSPd</text></g>
<g><text stroke-width="2.2" stroke="#666" x="461.5311706379398" y="938.6559232630843">RSPagl</text>
<text x="461.5311706379398" y="938.6559232630843">RSPagl</text></g>
<g><text stroke-width="2.2" stroke="#666" x="70.12621431233357" y="645.123447642958">VISC</text>
<text x="70.12621431233357" y="645.123447642958">VISC</text></g>
<g><text stroke-width="2.2" stroke="#666" x="558.2342255701234" y="832.8895448621828">RSPv</text>
<text x="558.2342255701234" y="832.8895448621828">RSPv</text></g>
<g><text stroke-width="2.2" stroke="#666" x="328.55496858538135" y="730.7242465157104">VISa</text>
<text x="328.55496858538135" y="730.7242465157104">VISa</text></g>
<g><text stroke-width="2.2" stroke="#666" x="71.75072549521936" y="877.7296987671667">AUDv</text>
<text x="71.75072549521936" y="877.7296987671667">AUDv</text></g>
<g><text stroke-width="2.2" stroke="#666" x="122.038166503841" y="776.2701737682011">AUDd</text>
<text x="122.038166503841" y="776.2701737682011">AUDd</text></g>
<g><text stroke-width="2.2" stroke="#666" x="95.96875" y="914.40625">TEa</text>
<text x="95.96875" y="914.40625">TEa</text></g>
<g><text stroke-width="2.2" stroke="#666" x="396.9169723864215" y="766.3405217488847">VISam</text>
<text x="396.9169723864215" y="766.3405217488847">VISam</text></g>
<g><text stroke-width="2.2" stroke="#666" x="261.82383449697153" y="761.0790166202702">VISrl</text>
<text x="261.82383449697153" y="761.0790166202702">VISrl</text></g>
<g><text stroke-width="2.2" stroke="#666" x="82.03311823380756" y="799.0848449529035">AUDp</text>
<text x="82.03311823380756" y="799.0848449529035">AUDp</text></g>
<g><text stroke-width="2.2" stroke="#666" x="303.0081683738512" y="930.3108427703053">VISp</text>
<text x="303.0081683738512" y="930.3108427703053">VISp</text></g>
<g><text stroke-width="2.2" stroke="#666" x="396.77443691099705" y="838.1938597479322">VISpm</text>
<text x="396.77443691099705" y="838.1938597479322">VISpm</text></g>
<g><text stroke-width="2.2" stroke="#666" x="175.74133108335798" y="830.3387436071059">VISal</text>
<text x="175.74133108335798" y="830.3387436071059">VISal</text></g>
<g><text stroke-width="2.2" stroke="#666" x="125.79442032026581" y="835.7027408185143">AUDpo</text>
<text x="125.79442032026581" y="835.7027408185143">AUDpo</text></g>
<g><text stroke-width="2.2" stroke="#666" x="184.49759342576002" y="883.4979008768578">VISl</text>
<text x="184.49759342576002" y="883.4979008768578">VISl</text></g>
<g><text stroke-width="2.2" stroke="#666" x="154.5" y="950.5">VISli</text>
<text x="154.5" y="950.5">VISli</text></g>
<g><text stroke-width="2.2" stroke="#666" x="150.8424447770721" y="995.5922572001244">VISpor</text>
<text x="150.8424447770721" y="995.5922572001244">VISpor</text></g>
<g><text stroke-width="2.2" stroke="#666" x="87.37507053515385" y="949.3752029837174">ECT</text>
<text x="87.37507053515385" y="949.3752029837174">ECT</text></g>
<g><text stroke-width="2.2" stroke="#666" x="194.65042136714897" y="1013.1662219615105">VISpl</text>
<text x="194.65042136714897" y="1013.1662219615105">VISpl</text></g>
</g></svg>