<svg xmlns="http://www.w3.org/2000/svg" xmlns:xlink="http://www.w3.org/1999/xlink" height="1320" width="1140"><g/><g id="#00aa00,184,FRP,Frontal%20pole%2C%20cerebral%20cortex" fill="none" stroke="#00aa00" stroke-width="4.4"><path d=" M393 192 L403,196 C427.856,196 449.907,191 473,191 473,191 521,191 521,191 521,191 545,188 545,188 545,177.093 514.787,181 508,181 508,181 435.5,184 435.5,184 435.5,184 393,192 393,192  Z"/></g><g id="#aa5555,731,ORBm,Orbital%20area%2C%20medial%20part" fill="none" stroke="#aa5555" stroke-width="4.4"><path d=" M570 331 L567,334 C567,320.287 571.178,288 554,288 554,260.157 549.763,239.026 538,215.5 538,215.5 521,191 521,191 521,191 545,188 545,188 553.1,188 562.013,208.526 565,214.5 577.325,239.151 570,300.275 570,331  Z"/></g><g id="#555555,723,ORBl,Orbital%20area%2C%20lateral%20part" fill="none" stroke="#555555" stroke-width="4.4"><path d=" M467 293 L451.5,311 L413.5,314 L375,332 C375,332 371,289.5 371,289.5 371,289.5 378,239 378,239 378,239 394,205 394,205 394,205 403,196 403,196 427.856,196 449.907,191 473,191 473,191 456,235.5 456,235.5 450.194,247.113 467,279.309 467,293  Z"/></g><g id="#00aa55,746,ORBvl,Orbital%20area%2C%20ventrolateral%20part" fill="none" stroke="#00aa55" stroke-width="4.4"><path d=" M554 288 C539.985,288 509.618,276.941 495.5,284 488.54,287.48 474.723,293 467,293 467,279.309 450.194,247.113 456,235.5 456,235.5 473,191 473,191 473,191 521,191 521,191 521,191 538,215.5 538,215.5 549.763,239.026 554,260.157 554,288  Z"/></g><g id="#5555aa,993,MOs,Secondary%20motor%20area" fill="none" stroke="#5555aa" stroke-width="4.4"><path d=" M280 267 L293,268 C305.341,268 324.84,220.33 339.5,213 359.591,202.954 372.487,205 394,205 394,205 403,196 403,196 403,196 393,192 393,192 359.077,192 327.672,216.828 304,240.5 304,240.5 280,267 280,267  Z"/></g><g id="#005500,104,AId,Agranular%20insular%20area%2C%20dorsal%20part" fill="none" stroke="#005500" stroke-width="4.4"><path d=" M170 454 L159,455 C159,455 168,444.5 168,444.5 168,444.5 170,428.5 170,428.5 170,428.5 198,379.5 198,379.5 198,379.5 219,350 219,350 219,350 293,268 293,268 305.341,268 324.84,220.33 339.5,213 359.591,202.954 372.487,205 394,205 394,205 378,239 378,239 352.93,239 339.102,278.699 318.5,289 279.593,308.454 217,371.5 197,411.5 197,411.5 185,429.5 185,429.5 185,429.5 183,441.5 183,441.5 183,441.5 170,454 170,454  Z"/></g><g id="#aa5500,119,AIv,Agranular%20insular%20area%2C%20ventral%20part" fill="none" stroke="#aa5500" stroke-width="4.4"><path d=" M170 454 L179,454 C188.829,454 198.505,429.49 202,422.5 202,422.5 260.5,359 260.5,359 260.5,359 281.5,341 281.5,341 281.5,341 331.5,341 331.5,341 343.814,334.843 360.418,332 375,332 375,332 371,289.5 371,289.5 371,289.5 378,239 378,239 352.93,239 339.102,278.699 318.5,289 279.593,308.454 217,371.5 197,411.5 197,411.5 185,429.5 185,429.5 185,429.5 183,441.5 183,441.5 183,441.5 170,454 170,454  Z"/></g><g id="#0055aa,985,MOp,Primary%20motor%20area" fill="none" stroke="#0055aa" stroke-width="4.4"><path d=" M219 350 L210,351 C210,351 263,283.5 263,283.5 263,283.5 280,267 280,267 280,267 293,268 293,268 293,268 219,350 219,350  Z"/></g><g id="#550000,44,ILA,Infralimbic%20area" fill="none" stroke="#550000" stroke-width="4.4"><path d=" M570 331 L567,334 C567,334 567.5,371 567.5,371 567.5,371 570,331 570,331  Z"/></g><g id="#aa55aa,1057,GU,Gustatory%20areas" fill="none" stroke="#aa55aa" stroke-width="4.4"><path d=" M128 480 L103,541.5 L102,563 C102,563 159,455 159,455 159,455 168,444.5 168,444.5 168,444.5 170,428.5 170,428.5 170,428.5 198,379.5 198,379.5 198,379.5 219,350 219,350 219,350 210,351 210,351 210,351 199,364 199,364 199,364 196,369 196,369 196,369 192,374 192,374 192,374 163,420 163,420 163,438.635 129,465.007 129,479 129,479 128,480 128,480  Z"/></g><g id="#55aa00,345,SSp-m,Primary%20somatosensory%20area%2C%20mouth" fill="none" stroke="#55aa00" stroke-width="4.4"><path d=" M199 364 L196,369 C196,369 199,364 199,364  Z"/><path d=" M162 419 L163,420 C163,420 192,374 192,374 192,374 162,419 162,419  Z"/></g><g id="#aa0000,48,ACAv,Anterior%20cingulate%20area%2C%20ventral%20part" fill="none" stroke="#aa0000" stroke-width="4.4"><path d=" M570 603 C563.029,603 565,616.502 565,621 554.2,621 555,573.22 555,563.5 555,563.5 555,425.5 555,425.5 555,412.827 553.594,401.953 565.5,396 565.5,396 569.5,389 569.5,389 569.5,389 570,464.5 570,464.5 570,464.5 570,521 570,521 570,521 570,603 570,603  Z"/></g><g id="#aaaa00,378,SSs,Supplemental%20somatosensory%20area" fill="none" stroke="#aaaa00" stroke-width="4.4"><path d=" M128 480 L103,521 C103,498.069 137.482,462.535 148,441.5 148,441.5 162,419 162,419 162,419 163,420 163,420 163,438.635 129,465.007 129,479 129,479 128,480 128,480  Z"/><path d=" M103 522 L99,530 C99,530 103,522 103,522  Z"/><path d=" M99 531 L98,532 C98,532 99,531 99,531  Z"/></g><g id="#555500,111,AIp,Agranular%20insular%20area%2C%20posterior%20part" fill="none" stroke="#555500" stroke-width="4.4"><path d=" M72 698 L86,699 C95.6189,699 106.613,656.274 111,647.5 132.948,603.604 131.953,551.595 154,507.5 154,507.5 179,454 179,454 179,454 170,454 170,454 170,454 159,455 159,455 159,455 102,563 102,563 102,563 90,593.5 90,593.5 78.9906,615.519 70,669.674 70,696 70,696 72,698 72,698  Z"/></g><g id="#005555,677,VISC,Visceral%20area" fill="none" stroke="#005555" stroke-width="4.4"><path d=" M129 479 L128,480 C128,480 129,479 129,479  Z"/><path d=" M63 695 L70,696 C70,669.674 78.9906,615.519 90,593.5 90,593.5 102,563 102,563 102,563 103,541.5 103,541.5 103,541.5 128,480 128,480 128,480 103,521 103,521 103,521 103,522 103,522 103,522 99,530 99,530 99,530 99,531 99,531 99,531 98,532 98,532 98,532 85,572.5 85,572.5 76.621,589.258 62,672.47 62,694 62,694 63,695 63,695  Z"/></g><g id="#aaaa55,886,RSPv,Retrosplenial%20area%2C%20ventral%20part" fill="none" stroke="#aaaa55" stroke-width="4.4"><path d=" M529 914 L508.5,923 L409,937 C409,921.33 423.708,906.083 430,893.5 436.087,881.325 456.054,836.723 465.5,832 465.5,832 478.5,828 478.5,828 478.5,828 494.5,810 494.5,810 502.578,805.961 516.469,806.516 525.5,802 525.5,802 543.5,790 543.5,790 543.5,790 548,791.5 548,791.5 548,791.5 551,779.5 551,779.5 553.248,775.003 561.982,771.536 566,763.5 566,763.5 565,621 565,621 565,616.502 563.029,603 570,603 570,603 570,833.5 570,833.5 570,833.5 564,855.5 564,855.5 564,855.5 543,891.5 543,891.5 543,891.5 530,913 530,913 530,913 529,914 529,914  Z"/></g><g id="#aa0055,541,TEa,Temporal%20association%20areas" fill="none" stroke="#aa0055" stroke-width="4.4"><path d=" M63 695 C63,748.145 58,791.693 58,846 54.809,846 53,813.198 53,809.5 53,809.5 55,732.5 55,732.5 55,732.5 62,694 62,694 62,694 63,695 63,695  Z"/><path d=" M58 855 L60,867 C60,867 58,855 58,855  Z"/><path d=" M60 875 L63,886 C63,886 60,875 60,875  Z"/></g><g id="#5500aa,895,ECT,Ectorhinal%20area" fill="none" stroke="#5500aa" stroke-width="4.4"><path d=" M80 908 L80,930.5 L90,954 C79.8378,954 63,896.554 63,886 63,886 60,875 60,875 60,875 60,867 60,867 60,867 58,855 58,855 58,855 58,846 58,846 58,791.693 63,748.145 63,695 63,695 70,696 70,696 70,696 72,698 72,698 72,723.92 66,750.598 66,777 66,777 66,782 66,782 66,782 65,787 65,787 65,787 65,796 65,796 65,796 64,798 64,798 64,818.36 57.5646,864.629 66,881.5 66,881.5 71,897.5 71,897.5 71,897.5 80,908 80,908  Z"/></g><g id="#aa00aa,922,PERI,Perirhinal%20area" fill="none" stroke="#aa00aa" stroke-width="4.4"><path d=" M86 699 L71,750.5 L66,777 C66,750.598 72,723.92 72,698 72,698 86,699 86,699  Z"/><path d=" M66 782 L65,787 C65,787 66,782 66,782  Z"/><path d=" M65 796 L64,798 C64,798 65,796 65,796  Z"/><path d=" M90 955 L96,957 C96,957 80,908 80,908 80,908 80,930.5 80,930.5 80,930.5 90,954 90,954 90,954 90,955 90,955  Z"/></g><g id="#55aa55,879,RSPd,Retrosplenial%20area%2C%20dorsal%20part" fill="none" stroke="#55aa55" stroke-width="4.4"><path d=" M530 913 L529,914 C529,914 530,913 530,913  Z"/><path d=" M317 1011 C317,1016.84 327.317,1019 332,1019 343.692,1019 403.425,1008.04 411.5,1004 411.5,1004 435,996 435,996 435,996 437,995 437,995 437,995 439,994 439,994 439,994 441,993 441,993 441,993 461.5,977 461.5,977 471.843,971.828 529,924.75 529,914 529,914 508.5,923 508.5,923 508.5,923 409,937 409,937 409,964.29 339.838,1011 317,1011  Z"/></g><g id="#00aaaa,312782628,VISpor,Postrhinal%20area" fill="none" stroke="#00aaaa" stroke-width="4.4"><path d=" M90 955 L96,957 C96,957 103.5,970 103.5,970 103.5,970 90,955 90,955  Z"/></g><g id="#0000aa,894,RSPagl,Retrosplenial%20area%2C%20lateral%20agranular%20part" fill="none" stroke="#0000aa" stroke-width="4.4"><path d=" M441 993 L439,994 C439,994 441,993 441,993  Z"/><path d=" M439 994 L437,995 C437,995 439,994 439,994  Z"/><path d=" M302 1033 L315,1033 C347.197,1033 382.431,1021.53 409.5,1008 409.5,1008 435,996 435,996 435,996 411.5,1004 411.5,1004 403.425,1008.04 343.692,1019 332,1019 332,1028.66 302,1026.76 302,1033  Z"/><path d=" M302 1033 L300,1034 C300,1034 302,1033 302,1033  Z"/></g><g id="#550055,425,VISpl,Posterolateral%20visual%20area" fill="none" stroke="#550055" stroke-width="4.4"><path d=" M300 1034 L285,1038 C285,1038 253,1037.5 253,1037.5 253,1037.5 276.5,1030 276.5,1030 276.5,1030 317,1011 317,1011 317,1016.84 327.317,1019 332,1019 332,1028.66 302,1026.76 302,1033 302,1033 300,1034 300,1034  Z"/></g><g id="#000055,385,VISp,Primary%20visual%20area" fill="none" stroke="#000055" stroke-width="4.4"><path d=" M300 1034 L285,1038 C285,1038 315,1033 315,1033 315,1033 302,1033 302,1033 302,1033 300,1034 300,1034  Z"/></g><g id="area_labels" style="fill:#000; text-anchor: middle; dominant-baseline: middle; font-size:22.0px; font-family: sans-serif">
<g><text stroke-width="2.2" stroke="#666" x="520.7821220905817" y="185.64424533695836">FRP</text>
<text x="520.7821220905817" y="185.64424533695836">FRP</text></g>
<g><text stroke-width="2.2" stroke="#666" x="544.499069335419" y="201.13513375337072">ORBm</text>
<text x="544.499069335419" y="201.13513375337072">ORBm</text></g>
<g><text stroke-width="2.2" stroke="#666" x="415.43762740323587" y="271.3106418413287">ORBl</text>
<text x="415.43762740323587" y="271.3106418413287">ORBl</text></g>
<g><text stroke-width="2.2" stroke="#666" x="500.7566907827719" y="236.3125">ORBvl</text>
<text x="500.7566907827719" y="236.3125">ORBvl</text></g>
<g><text stroke-width="2.2" stroke="#666" x="299.8633154975689" y="258.890625">MOs</text>
<text x="299.8633154975689" y="258.890625">MOs</text></g>
<g><text stroke-width="2.2" stroke="#666" x="362.15138921242675" y="221.4070175462011">AId</text>
<text x="362.15138921242675" y="221.4070175462011">AId</text></g>
<g><text stroke-width="2.2" stroke="#666" x="344.25113252925064" y="306.807293666109">AIv</text>
<text x="344.25113252925064" y="306.807293666109">AIv</text></g>
<g><text stroke-width="2.2" stroke="#666" x="263.4859890044968" y="292.151454297776">MOp</text>
<text x="263.4859890044968" y="292.151454297776">MOp</text></g>
<g><text stroke-width="2.2" stroke="#666" x="568.0926118701636" y="334.529344842627">ILA</text>
<text x="568.0926118701636" y="334.529344842627">ILA</text></g>
<g><text stroke-width="2.2" stroke="#666" x="139.17128774705694" y="470.50580969844924">GU</text>
<text x="139.17128774705694" y="470.50580969844924">GU</text></g>
<g><text stroke-width="2.2" stroke="#666" x="164.49977860771867" y="416.4987954216189">SSp-m</text>
<text x="164.49977860771867" y="416.4987954216189">SSp-m</text></g>
<g><text stroke-width="2.2" stroke="#666" x="562.2109549777634" y="596.463661218297">ACAv</text>
<text x="562.2109549777634" y="596.463661218297">ACAv</text></g>
<g><text stroke-width="2.2" stroke="#666" x="109.484375" y="499.85989496993307">SSs</text>
<text x="109.484375" y="499.85989496993307">SSs</text></g>
<g><text stroke-width="2.2" stroke="#666" x="110.08864660698178" y="600.9998705204438">AIp</text>
<text x="110.08864660698178" y="600.9998705204438">AIp</text></g>
<g><text stroke-width="2.2" stroke="#666" x="83.71863876273045" y="590.7829964139004">VISC</text>
<text x="83.71863876273045" y="590.7829964139004">VISC</text></g>
<g><text stroke-width="2.2" stroke="#666" x="494.17578125" y="875.20703125">RSPv</text>
<text x="494.17578125" y="875.20703125">RSPv</text></g>
<g><text stroke-width="2.2" stroke="#666" x="58.625" y="749.625089956547">TEa</text>
<text x="58.625" y="749.625089956547">TEa</text></g>
<g><text stroke-width="2.2" stroke="#666" x="73.34367824837814" y="909.8472074077059">ECT</text>
<text x="73.34367824837814" y="909.8472074077059">ECT</text></g>
<g><text stroke-width="2.2" stroke="#666" x="77.87473489118968" y="706.1263922843116">PERI</text>
<text x="77.87473489118968" y="706.1263922843116">PERI</text></g>
<g><text stroke-width="2.2" stroke="#666" x="436.432831004062" y="961.5589764997669">RSPd</text>
<text x="436.432831004062" y="961.5589764997669">RSPd</text></g>
<g><text stroke-width="2.2" stroke="#666" x="94.91573518962385" y="958.4446685874159">VISpor</text>
<text x="94.91573518962385" y="958.4446685874159">VISpor</text></g>
<g><text stroke-width="2.2" stroke="#666" x="347.6685911604422" y="1025.51643406192">RSPagl</text>
<text x="347.6685911604422" y="1025.51643406192">RSPagl</text></g>
<g><text stroke-width="2.2" stroke="#666" x="313.3210847665818" y="1020.4549453451843">VISpl</text>
<text x="313.3210847665818" y="1020.4549453451843">VISpl</text></g>
<g><text stroke-width="2.2" stroke="#666" x="302.03032162781284" y="1034.0927502200889">VISp</text>
<text x="302.03032162781284" y="1034.0927502200889">VISp</text></g>
</g></svg>