<svg xmlns="http://www.w3.org/2000/svg" xmlns:xlink="http://www.w3.org/1999/xlink" height="800" width="1320"><g/><g id="#aa0055,879,RSPd,Retrosplenial%20area%2C%20dorsal%20part" fill="none" stroke="#aa0055" stroke-width="2.6666666666666665"><path d=" M1019 204 L1015,236.5 L1010,247 C1010,236.918 998.248,230.997 994,222.5 983.699,201.898 963.959,169 938,169 938,169 931,140.5 931,140.5 923.261,125.023 923.943,105.386 916,89.5 907.605,72.7098 882.808,63.1542 868.5,56 819.754,31.627 733.864,35.8179 685.5,60 664.182,70.6588 643.57,84.9301 625.5,103 625.5,103 605,127 605,127 605,127 605,85 605,85 605,85 608,48 608,48 608,48 610,46 610,46 610,46 697.5,23 697.5,23 697.5,23 754.5,16 754.5,16 754.5,16 790.5,16 790.5,16 808.143,16 855.663,14.5814 868.5,21 868.5,21 913,36 913,36 913,36 928.5,44 928.5,44 928.5,44 959,72.5 959,72.5 959,72.5 996,120.5 996,120.5 1007.44,143.378 1019,177.058 1019,204  Z"/></g><g id="#555555,894,RSPagl,Retrosplenial%20area%2C%20lateral%20agranular%20part" fill="none" stroke="#555555" stroke-width="2.6666666666666665"><path d=" M1034 197 L1019,204 C1019,177.058 1007.44,143.378 996,120.5 996,120.5 959,72.5 959,72.5 959,72.5 928.5,44 928.5,44 928.5,44 913,36 913,36 929.263,36 949.895,57 962,57 962,57 963,58 963,58 963,58 964,58 964,58 964,58 975.5,68 975.5,68 975.5,68 1000,97.5 1000,97.5 1000,97.5 1023.5,134 1023.5,134 1023.5,134 1028,145 1028,145 1028,145 1028,146 1028,146 1028,146 1034,197 1034,197  Z"/><path d=" M610 46 L608,48 C608,48 607,46 607,46 607,46 610,46 610,46  Z"/></g><g id="#005555,886,RSPv,Retrosplenial%20area%2C%20ventral%20part" fill="none" stroke="#005555" stroke-width="2.6666666666666665"><path d=" M938 169 L926.5,166 L897.5,167 L883.5,172 C876.323,175.588 841.952,185.596 839,191.5 836.42,196.659 830.392,195.054 826.5,197 L822.5,206 L794.5,218 C787.671,214.586 792.689,208.878 792,207.5 L778,198.5 L771,173.5 C764.519,160.538 753.127,162.314 742.5,157 731.842,151.671 711.591,161.954 703.5,166 L622,207 C594.227,207 603,199.164 603,171 603,171 603,143 603,143 603,143 605,127 605,127 605,127 625.5,103 625.5,103 643.57,84.9301 664.182,70.6588 685.5,60 733.864,35.8179 819.754,31.627 868.5,56 882.808,63.1542 907.605,72.7098 916,89.5 923.943,105.386 923.261,125.023 931,140.5 931,140.5 938,169 938,169  Z"/></g><g id="#00aa55,993,MOs,Secondary%20motor%20area" fill="none" stroke="#00aa55" stroke-width="2.6666666666666665"><path d=" M248 205 C231.769,205 225.464,207.518 210.5,215 L197,227 C197,227 214.5,206 214.5,206 233.696,186.804 254.128,173.186 276.5,162 304.144,148.178 332.164,136.668 359.5,123 359.5,123 410.5,106 410.5,106 410.5,106 501.5,81 501.5,81 501.5,81 607,46 607,46 607,46 608,48 608,48 608,48 605,85 605,85 582.798,85 510.13,116.185 488.5,127 488.5,127 322.5,176 322.5,176 322.5,176 248,205 248,205  Z"/><path d=" M196 326 L198,333 C198,333 196,326 196,326  Z"/><path d=" M198 336 L200,339 C200,339 198,336 198,336  Z"/><path d=" M203 346 L204,352 C204,352 200,341 200,341 200,341 203,344 203,344 203,344 203,346 203,346  Z"/></g><g id="#55aa00,385,VISp,Primary%20visual%20area" fill="none" stroke="#55aa00" stroke-width="2.6666666666666665"><path d=" M962 57 L963,58 C963,58 962,57 962,57  Z"/><path d=" M964 58 C989.379,58 1028,123.54 1028,145 1028,145 1023.5,134 1023.5,134 1023.5,134 1000,97.5 1000,97.5 1000,97.5 975.5,68 975.5,68 975.5,68 964,58 964,58  Z"/><path d=" M1038 195 L1034,197 C1034,197 1028,146 1028,146 1034.82,146 1038,186.143 1038,195  Z"/></g><g id="#550000,39,ACAd,Anterior%20cingulate%20area%2C%20dorsal%20part" fill="none" stroke="#550000" stroke-width="2.6666666666666665"><path d=" M248 205 C248,213.555 269.557,223.029 275.5,226 L343.5,235 L383,247 C383,247 603,143 603,143 603,143 605,127 605,127 605,127 605,85 605,85 582.798,85 510.13,116.185 488.5,127 488.5,127 322.5,176 322.5,176 322.5,176 248,205 248,205  Z"/></g><g id="#005500,48,ACAv,Anterior%20cingulate%20area%2C%20ventral%20part" fill="none" stroke="#005500" stroke-width="2.6666666666666665"><path d=" M383 329 L383,373 C383,373 395.5,360 395.5,360 426.186,344.657 411.914,348.672 426,320.5 432.308,307.885 476.268,283.616 489.5,277 523.142,260.179 555.698,241.901 589.5,225 589.5,225 622,207 622,207 594.227,207 603,199.164 603,171 603,171 603,143 603,143 603,143 383,247 383,247 383,247 383,329 383,329  Z"/></g><g id="#aaaa00,425,VISpl,Posterolateral%20visual%20area" fill="none" stroke="#aaaa00" stroke-width="2.6666666666666665"><path d=" M1019 204 L1015,236.5 L1010,247 C1010,258.4 1020.09,239.204 1020.5,239 1020.5,239 1038,237.5 1038,237.5 1038,237.5 1038,195 1038,195 1038,195 1034,197 1034,197 1034,197 1019,204 1019,204  Z"/></g><g id="#aa5555,972,PL,Prelimbic%20area" fill="none" stroke="#aa5555" stroke-width="2.6666666666666665"><path d=" M297 326 L344.5,333 C355.702,338.601 373.286,329 383,329 383,329 383,247 383,247 383,247 343.5,235 343.5,235 343.5,235 275.5,226 275.5,226 269.557,223.029 248,213.555 248,205 231.769,205 225.464,207.518 210.5,215 210.5,215 197,227 197,227 197,227 194,232 194,232 194,232 193,233 193,233 193,233 193,234 193,234 193,234 188,248.5 188,248.5 188,248.5 189,272 189,272 189,272 275.5,312 275.5,312 275.5,312 297,326 297,326  Z"/></g><g id="#00aa00,184,FRP,Frontal%20pole%2C%20cerebral%20cortex" fill="none" stroke="#00aa00" stroke-width="2.6666666666666665"><path d=" M194 232 L193,233 C193,233 194,232 194,232  Z"/><path d=" M189 272 L189,304 C176.201,304 179.292,234 193,234 193,234 188,248.5 188,248.5 188,248.5 189,272 189,272  Z"/><path d=" M196 322 L196,323 C196,323 194,318 194,318 194,318 196,322 196,322  Z"/></g><g id="#550055,731,ORBm,Orbital%20area%2C%20medial%20part" fill="none" stroke="#550055" stroke-width="2.6666666666666665"><path d=" M336 449 L324.5,450 L297,450 L288,452 C288,452 268,434.5 268,434.5 268,434.5 221,372.5 221,372.5 221,372.5 203,346 203,346 203,346 203,344 203,344 203,340.513 198.793,322 196,322 196,322 194,318 194,318 194,318 189,304 189,304 189,304 189,272 189,272 189,272 275.5,312 275.5,312 275.5,312 297,326 297,326 297,346.341 315.343,399.187 325,418.5 325,418.5 336,449 336,449  Z"/></g><g id="#000055,723,ORBl,Orbital%20area%2C%20lateral%20part" fill="none" stroke="#000055" stroke-width="2.6666666666666665"><path d=" M200 341 L203,344 C203,340.513 198.793,322 196,322 196,322 196,323 196,323 196,323 196,326 196,326 196,326 198,333 198,333 198,333 198,336 198,336 198,336 200,339 200,339 200,339 200,341 200,341  Z"/><path d=" M288 452 L302,454 C311.851,454 331,450.121 331,466 331,466 275.5,467 275.5,467 275.5,467 247,444 247,444 243.968,444 218,405.271 218,401 218,401 213,390 213,390 213,390 213,388 213,388 213,388 204,353 204,353 204,353 204,352 204,352 204,352 203,346 203,346 203,346 221,372.5 221,372.5 221,372.5 268,434.5 268,434.5 268,434.5 288,452 288,452  Z"/></g><g id="#aa0000,44,ILA,Infralimbic%20area" fill="none" stroke="#aa0000" stroke-width="2.6666666666666665"><path d=" M383 373 C383,383.082 348.342,449 336,449 336,449 325,418.5 325,418.5 315.343,399.187 297,346.341 297,326 297,326 344.5,333 344.5,333 355.702,338.601 373.286,329 383,329 383,329 383,373 383,373  Z"/></g><g id="#555500,104,AId,Agranular%20insular%20area%2C%20dorsal%20part" fill="none" stroke="#555500" stroke-width="2.6666666666666665"><path d=" M204 353 L213,388 C213,388 204,353 204,353  Z"/><path d=" M213 390 L218,401 C218,401 213,390 213,390  Z"/></g><g id="#aa5500,119,AIv,Agranular%20insular%20area%2C%20ventral%20part" fill="none" stroke="#aa5500" stroke-width="2.6666666666666665"><path d=" M247 444 L275.5,467 L331,466 C331,466 334,481 334,481 334,483.734 346.836,523.832 340.5,527 340.5,527 317.5,511 317.5,511 317.5,511 247,444 247,444  Z"/></g><g id="area_labels" style="fill:#000; text-anchor: middle; dominant-baseline: middle; font-size:13.333333333333334px; font-family: sans-serif">
<g><text stroke-width="1.3333333333333335" stroke="#666" x="964.5686501777989" y="135.52552380440267">RSPd</text>
<text x="964.5686501777989" y="135.52552380440267">RSPd</text></g>
<g><text stroke-width="1.3333333333333335" stroke="#666" x="1018.0186471393739" y="145.11217525645878">RSPagl</text>
<text x="1018.0186471393739" y="145.11217525645878">RSPagl</text></g>
<g><text stroke-width="1.3333333333333335" stroke="#666" x="821.6465569064738" y="114.84430488558776">RSPv</text>
<text x="821.6465569064738" y="114.84430488558776">RSPv</text></g>
<g><text stroke-width="1.3333333333333335" stroke="#666" x="417.314374123224" y="126.0554677067344">MOs</text>
<text x="417.314374123224" y="126.0554677067344">MOs</text></g>
<g><text stroke-width="1.3333333333333335" stroke="#666" x="985.0161650836803" y="66.2967253382573">VISp</text>
<text x="985.0161650836803" y="66.2967253382573">VISp</text></g>
<g><text stroke-width="1.3333333333333335" stroke="#666" x="382.0774152122034" y="201.60875436429376">ACAd</text>
<text x="382.0774152122034" y="201.60875436429376">ACAd</text></g>
<g><text stroke-width="1.3333333333333335" stroke="#666" x="421.5929777607728" y="270.6577244647167">ACAv</text>
<text x="421.5929777607728" y="270.6577244647167">ACAv</text></g>
<g><text stroke-width="1.3333333333333335" stroke="#666" x="1026.96875" y="227.4073257249654">VISpl</text>
<text x="1026.96875" y="227.4073257249654">VISpl</text></g>
<g><text stroke-width="1.3333333333333335" stroke="#666" x="332.7750255900999" y="282.4579183694637">PL</text>
<text x="332.7750255900999" y="282.4579183694637">PL</text></g>
<g><text stroke-width="1.3333333333333335" stroke="#666" x="182.92720780251022" y="290.9556557995329">FRP</text>
<text x="182.92720780251022" y="290.9556557995329">FRP</text></g>
<g><text stroke-width="1.3333333333333335" stroke="#666" x="255.75215360581277" y="349.79356307201186">ORBm</text>
<text x="255.75215360581277" y="349.79356307201186">ORBm</text></g>
<g><text stroke-width="1.3333333333333335" stroke="#666" x="249.68525540820474" y="430.55025746281916">ORBl</text>
<text x="249.68525540820474" y="430.55025746281916">ORBl</text></g>
<g><text stroke-width="1.3333333333333335" stroke="#666" x="346.0" y="375.0051313228975">ILA</text>
<text x="346.0" y="375.0051313228975">ILA</text></g>
<g><text stroke-width="1.3333333333333335" stroke="#666" x="215.5" y="395.5">AId</text>
<text x="215.5" y="395.5">AId</text></g>
<g><text stroke-width="1.3333333333333335" stroke="#666" x="316.10909714470034" y="484.0464023972482">AIv</text>
<text x="316.10909714470034" y="484.0464023972482">AIv</text></g>
</g></svg>