<svg xmlns="http://www.w3.org/2000/svg" xmlns:xlink="http://www.w3.org/1999/xlink" height="136" width="272"><g/><g id="#008040,723,ORBl,Orbital%20area%2C%20lateral%20part" fill="none" stroke="#008040" stroke-width="0.4533333333333333"><path d=" M83 24 L92,24 C92,21.6533 86,15.8358 86,8 79.8951,8 76.4565,9.52175 71.5,12 70.3812,12.5594 67,12.1554 67,14 67,14 70,16 70,16 72.2867,16 78,19.2195 78,22 78,22 83,24 83,24  Z"/><path d=" M182 25 L188.5,24 L191,25 C191,23.3616 194.576,23 196,23 196,20.1239 202.539,19 205,19 205,19 206,15 206,15 206,12.5092 190.991,8 188,8 188,14.1894 182,19.354 182,25  Z"/></g><g id="#808040,746,ORBvl,Orbital%20area%2C%20ventrolateral%20part" fill="none" stroke="#808040" stroke-width="0.4533333333333333"><path d=" M92 24 L95.5,25 C97.8746,23.8127 100.119,24 103,24 103,24 104,23 104,23 104,21.5643 92.52,9.01001 90.5,8 90.5,8 86,8 86,8 86,15.8358 92,21.6533 92,24  Z"/><path d=" M174 23 L176.5,25 L182,25 C182,19.354 188,14.1894 188,8 188,8 181.5,8 181.5,8 178.92,9.28988 172,16.3442 172,19 174.109,19 174,21.5345 174,23  Z"/></g><g id="#804000,119,AIv,Agranular%20insular%20area%2C%20ventral%20part" fill="none" stroke="#804000" stroke-width="0.4533333333333333"><path d=" M35 36 L36,37 C36,37 52.5,23 52.5,23 54.7528,21.8736 70,17.685 70,16 70,16 67,14 67,14 60.7543,14 46.2958,23.2042 41.5,28 39.4204,30.0796 35,33.0264 35,36  Z"/><path d=" M238 36 L236,38 C236,38 230.5,33 230.5,33 230.5,33 222.5,26 222.5,26 222.5,26 214.5,22 214.5,22 212.983,21.2415 205,20.9457 205,19 205,19 206,15 206,15 214.339,15 225.444,22.9442 231.5,29 231.5,29 238,36 238,36  Z"/></g><g id="#004000,104,AId,Agranular%20insular%20area%2C%20dorsal%20part" fill="none" stroke="#004000" stroke-width="0.4533333333333333"><path d=" M36 37 L37,40 C42.3249,40 46.7378,34 51,34 51,33.1929 62.3461,28 64,28 66.6089,28 78,25.4065 78,22 78,19.2195 72.2867,16 70,16 70,17.685 54.7528,21.8736 52.5,23 52.5,23 36,37 36,37  Z"/><path d=" M236 38 L235,41 C230.903,41 225.961,35 221,35 221,33.9007 210.37,29 209,29 206.1,29 196,27.6997 196,23 196,20.1239 202.539,19 205,19 205,20.9457 212.983,21.2415 214.5,22 214.5,22 222.5,26 222.5,26 222.5,26 230.5,33 230.5,33 230.5,33 236,38 236,38  Z"/></g><g id="#408040,731,ORBm,Orbital%20area%2C%20medial%20part" fill="none" stroke="#408040" stroke-width="0.4533333333333333"><path d=" M160 32 L160,33 C163.908,33 165.092,27 169,27 169,24.0404 171.399,23 174,23 174,21.5345 174.109,19 172,19 170.377,19 160,29.6056 160,32  Z"/><path d=" M107 31 C110.55,31 112.856,37 116,37 116,36.2742 109.202,26.3512 108.5,26 108.5,26 104,23 104,23 104,23 103,24 103,24 103,26.4596 107,28.17 107,31  Z"/></g><g id="#800080,993,MOs,Secondary%20motor%20area" fill="none" stroke="#800080" stroke-width="0.4533333333333333"><path d=" M104 82 C101.611,82 98.0133,83 95,83 95,83 94,82 94,82 94,65.55 87.2957,64.0913 81,51.5 79.3153,48.1306 75.6428,45.7857 74,42.5 71.6116,37.7232 64,33.6047 64,28 66.6089,28 78,25.4065 78,22 78,22 83,24 83,24 83,24 83,28.5 83,28.5 84.4149,31.3297 95.7561,34 99,34 99,34 105,43 105,43 105,43 106,67.5 106,67.5 103.87,71.7601 104,76.844 104,82  Z"/><path d=" M180 82 L178,83 C178,83 170,82 170,82 170,77.9747 169.728,71.9569 168,68.5 168,68.5 169,61 169,61 169,61 168,59.5 168,59.5 168,59.5 169,55.5 169,55.5 169,55.5 169,42 169,42 171.196,42 175,35.6961 175,34 181.175,34 191,32.7003 191,25 191,23.3616 194.576,23 196,23 196,27.6997 206.1,29 209,29 209,32.7086 199.64,40.2198 198,43.5 194.226,51.0479 186.781,56.9377 183,64.5 183,64.5 179,77.5 179,77.5 179,77.5 180,82 180,82  Z"/></g><g id="#c04000,184,FRP,Frontal%20pole%2C%20cerebral%20cortex" fill="none" stroke="#c04000" stroke-width="0.4533333333333333"><path d=" M169 27 L175,34 C181.175,34 191,32.7003 191,25 191,25 188.5,24 188.5,24 188.5,24 182,25 182,25 182,25 176.5,25 176.5,25 176.5,25 174,23 174,23 171.399,23 169,24.0404 169,27  Z"/><path d=" M107 31 L99,34 C95.7561,34 84.4149,31.3297 83,28.5 83,28.5 83,24 83,24 83,24 92,24 92,24 92,24 95.5,25 95.5,25 97.8746,23.8127 100.119,24 103,24 103,26.4596 107,28.17 107,31  Z"/></g><g id="#000080,972,PL,Prelimbic%20area" fill="none" stroke="#000080" stroke-width="0.4533333333333333"><path d=" M150 47 C150,48.8747 156.987,56 159,56 159,56 161,52.5 161,52.5 162.962,48.5768 162.751,42 169,42 171.196,42 175,35.6961 175,34 175,34 169,27 169,27 165.092,27 163.908,33 160,33 160,33 159,33 159,33 159,33 153,39 153,39 153,40.2383 152.577,42 151,42 151,43.2345 151.643,47 150,47  Z"/><path d=" M122 48 C122,50.8545 115.594,56 113,56 113,52.3894 109.705,43 105,43 105,43 99,34 99,34 99,34 107,31 107,31 110.55,31 112.856,37 116,37 116,37 119,39 119,39 119,41.9896 122,44.7173 122,48  Z"/></g><g id="#400080,985,MOp,Primary%20motor%20area" fill="none" stroke="#400080" stroke-width="0.4533333333333333"><path d=" M90 82 L94,82 C94,65.55 87.2957,64.0913 81,51.5 79.3153,48.1306 75.6428,45.7857 74,42.5 71.6116,37.7232 64,33.6047 64,28 62.3461,28 51,33.1929 51,34 51,34 53,38 53,38 54.352,38 70,54.8043 70,56 71.4802,56 80,67.528 80,69 82.0448,69 89,79.7108 89,82 89,82 90,82 90,82  Z"/><path d=" M183 82 L184,82 C184,79.7836 191.54,68 194,68 194,64.7567 199.251,57 203,57 203,54.2377 213.227,43.1367 215.5,42 215.5,42 220,38 220,38 220,38 221,35 221,35 221,33.9007 210.37,29 209,29 209,32.7086 199.64,40.2198 198,43.5 194.226,51.0479 186.781,56.9377 183,64.5 183,64.5 179,77.5 179,77.5 179,77.5 180,82 180,82 180,82 183,82 183,82  Z"/></g><g id="#800000,44,ILA,Infralimbic%20area" fill="none" stroke="#800000" stroke-width="0.4533333333333333"><path d=" M159 33 L160,33 C160,33 160,32 160,32 160,32 159,33 159,33  Z"/><path d=" M124 47 L122,48 C122,44.7173 119,41.9896 119,39 122.078,39 124,44.7231 124,47  Z"/><path d=" M153 39 C151.423,39 151,40.7617 151,42 152.577,42 153,40.2383 153,39  Z"/><path d=" M148 47 L150,47 C151.643,47 151,43.2345 151,42 148.607,42 148,45.2345 148,47  Z"/></g><g id="#c04080,1057,GU,Gustatory%20areas" fill="none" stroke="#c04080" stroke-width="0.4533333333333333"><path d=" M37 47 C33.8365,47 31.7901,51 28,51 28,46.4402 37,44.0809 37,40 42.3249,40 46.7378,34 51,34 51,34 53,38 53,38 51.5497,38 46,41.1259 46,43 42.0265,43 40.4617,47 37,47  Z"/><path d=" M235 48 C238.779,48 239.949,51 244,51 244,49.0409 237.196,41 235,41 230.903,41 225.961,35 221,35 221,35 220,38 220,38 220,40.986 227,40.0195 227,44 228.909,44 235,46.0085 235,48  Z"/></g><g id="#404000,111,AIp,Agranular%20insular%20area%2C%20posterior%20part" fill="none" stroke="#404000" stroke-width="0.4533333333333333"><path d=" M20 65 L21,65 C21,62.7383 25.3358,51 28,51 28,46.4402 37,44.0809 37,40 37,40 36,37 36,37 36,37 35,36 35,36 31.4742,36 30.4005,40.5498 27.5,42 19.752,45.874 19.4041,51.6918 16,58.5 16,58.5 17,62 17,62 17,62 20,65 20,65  Z"/><path d=" M251 65 L252,65 C252,62.891 254.535,63 256,63 256,53.3646 252.327,48.8272 245.5,42 245.5,42 238,36 238,36 238,36 236,38 236,38 236,38 235,41 235,41 237.196,41 244,49.0409 244,51 244,52.3929 251,60.5707 251,65  Z"/></g><g id="#808000,345,SSp-m,Primary%20somatosensory%20area%2C%20mouth" fill="none" stroke="#808000" stroke-width="0.4533333333333333"><path d=" M65 64 L68,64 C68,62.7428 68.9406,56 70,56 70,54.8043 54.352,38 53,38 51.5497,38 46,41.1259 46,43 46,43 49,47.5 49,47.5 49,47.5 47,52.5 47,52.5 47,52.5 47,60 47,60 53.1004,60 60.0926,64 65,64  Z"/><path d=" M205 64 L208,64 C208,64 212.5,62 212.5,62 212.5,62 225,60 225,60 225,60 226,55.5 226,55.5 224.985,53.4704 221.765,44 227,44 227,40.0195 220,40.986 220,38 220,38 215.5,42 215.5,42 213.227,43.1367 203,54.2377 203,57 204.175,57 205,62.7041 205,64  Z"/></g><g id="#400000,39,ACAd,Anterior%20cingulate%20area%2C%20dorsal%20part" fill="none" stroke="#400000" stroke-width="0.4533333333333333"><path d=" M167 82 L170,82 C170,77.9747 169.728,71.9569 168,68.5 168,68.5 169,61 169,61 169,61 168,59.5 168,59.5 168,59.5 169,55.5 169,55.5 169,55.5 169,42 169,42 162.751,42 162.962,48.5768 161,52.5 161,52.5 159,56 159,56 159,59.0668 159.765,60.0293 161,62.5 161.094,62.6874 164,79.9078 164,81 164,81 167,82 167,82  Z"/><path d=" M104 82 L105,82 C105,82 109,81 109,81 109,71.9507 113,64.9367 113,56 113,52.3894 109.705,43 105,43 105,43 106,67.5 106,67.5 103.87,71.7601 104,76.844 104,82  Z"/></g><g id="#80c000,378,SSs,Supplemental%20somatosensory%20area" fill="none" stroke="#80c000" stroke-width="0.4533333333333333"><path d=" M50 92 L52,92 C52,82.9278 48,78.608 48,71 48,67.4431 47,63.9806 47,60 47,60 47,52.5 47,52.5 47,52.5 49,47.5 49,47.5 49,47.5 46,43 46,43 42.0265,43 40.4617,47 37,47 37,50.8882 32.6479,54.2042 31,57.5 29.3303,60.8394 30,66.0029 30,70 30,70 30,72 30,72 31.7321,72 38,74.005 38,76 41.7783,76 50,89.0209 50,92  Z"/><path d=" M221 91 L223,91 C223,91 225,88.5 225,88.5 226.78,84.9408 229.244,75 235,75 235,75 242,72 242,72 242,72 242,71 242,71 242,66.7433 242.783,61.0656 241,57.5 241,57.5 235,48 235,48 235,46.0085 228.909,44 227,44 221.765,44 224.985,53.4704 226,55.5 226,55.5 225,60 225,60 225,60 225,71 225,71 225,75.7859 222.049,81.4018 220,85.5 220,85.5 221,91 221,91  Z"/></g><g id="#c04040,677,VISC,Visceral%20area" fill="none" stroke="#c04040" stroke-width="0.4533333333333333"><path d=" M23 67 L30,70 C30,66.0029 29.3303,60.8394 31,57.5 32.6479,54.2042 37,50.8882 37,47 33.8365,47 31.7901,51 28,51 25.3358,51 21,62.7383 21,65 21,65 23,67 23,67  Z"/><path d=" M249 67 L242,71 C242,66.7433 242.783,61.0656 241,57.5 241,57.5 235,48 235,48 238.779,48 239.949,51 244,51 244,52.3929 251,60.5707 251,65 251,65 249,67 249,67  Z"/></g><g id="#c00000,48,ACAv,Anterior%20cingulate%20area%2C%20ventral%20part" fill="none" stroke="#c00000" stroke-width="0.4533333333333333"><path d=" M109 81 L114,81 C114,81 116,78.5 116,78.5 116.594,77.3128 116.358,75.7836 117,74.5 117.359,73.7817 124,47.6984 124,47 124,47 122,48 122,48 122,50.8545 115.594,56 113,56 113,64.9367 109,71.9507 109,81  Z"/><path d=" M158 80 L164,81 C164,79.9078 161.094,62.6874 161,62.5 159.765,60.0293 159,59.0668 159,56 156.987,56 150,48.8747 150,47 150,47 148,47 148,47 148,50.425 153.365,68.2306 155,71.5 155.867,73.2334 154.916,80 158,80  Z"/></g><g id="#40c000,369,SSp-ul,Primary%20somatosensory%20area%2C%20upper%20limb" fill="none" stroke="#40c000" stroke-width="0.4533333333333333"><path d=" M73 84 L77,84 C77,81.7671 74.6928,78.1144 76,75.5 76,75.5 79,72.5 79,72.5 79.5228,71.4544 78.0485,69 80,69 80,67.528 71.4802,56 70,56 68.9406,56 68,62.7428 68,64 70.2608,64 68.2969,70.0938 69,71.5 70.7657,75.0314 73,79.8462 73,84  Z"/><path d=" M196 84 L200,84 C200,77.0281 205,71.016 205,64 205,62.7041 204.175,57 203,57 199.251,57 194,64.7567 194,68 194,73.2144 195.012,71.5237 197,75.5 197,75.5 196,84 196,84  Z"/></g><g id="#c08000,353,SSp-n,Primary%20somatosensory%20area%2C%20nose" fill="none" stroke="#c08000" stroke-width="0.4533333333333333"><path d=" M48 71 C49.8137,71 64,73.481 64,71 64,69.181 65,66.4092 65,64 60.0926,64 53.1004,60 47,60 47,63.9806 48,67.4431 48,71  Z"/><path d=" M209 71 C209,73.3484 222.844,71 225,71 225,71 225,60 225,60 225,60 212.5,62 212.5,62 212.5,62 208,64 208,64 208,66.4092 209,69.181 209,71  Z"/></g><g id="#c0c040,922,PERI,Perirhinal%20area" fill="none" stroke="#c0c040" stroke-width="0.4533333333333333"><path d=" M20 65 C17.6658,65 18.6594,69.1811 18,70.5 15.659,75.182 16,82.4261 16,88 11.5129,88 16,70.453 16,68 16,66.6792 15.3156,62 17,62 17,62 20,65 20,65  Z"/><path d=" M252 65 C253.845,65 253.441,68.3812 254,69.5 256.235,73.9707 256,83.4718 256,89 258.789,89 258,84.2997 258,82.5 258,82.5 256,63 256,63 254.535,63 252,62.891 252,65  Z"/><path d=" M256 89 C254.527,89 255,90.9521 255,92 256.473,92 256,90.0479 256,89  Z"/><path d=" M255 93 L254,94 C254,94 255,93 255,93  Z"/><path d=" M254 94 L253,96 C253,96 254,94 254,94  Z"/><path d=" M19 96 L21,98 C21,98 19,96 19,96  Z"/><path d=" M253 96 L252,97 C252,97 253,96 253,96  Z"/><path d=" M252 97 L251,98 C251,98 252,97 252,97  Z"/></g><g id="#008080,182305689,SSp-un,Primary%20somatosensory%20area%2C%20unassigned" fill="none" stroke="#008080" stroke-width="0.4533333333333333"><path d=" M73 84 L71,85 C71,81.9669 68.4429,71 64,71 64,69.181 65,66.4092 65,64 65,64 68,64 68,64 70.2608,64 68.2969,70.0938 69,71.5 70.7657,75.0314 73,79.8462 73,84  Z"/><path d=" M200 84 L202,85 C202,82.1031 205.207,71 209,71 209,69.181 208,66.4092 208,64 208,64 205,64 205,64 205,71.016 200,77.0281 200,84  Z"/></g><g id="#80c040,895,ECT,Ectorhinal%20area" fill="none" stroke="#80c040" stroke-width="0.4533333333333333"><path d=" M23 100 L25,100 C25,97.01 21.3159,93.1317 20,90.5 20,90.5 20,74.5 20,74.5 20,74.5 23,67 23,67 23,67 21,65 21,65 21,65 20,65 20,65 17.6658,65 18.6594,69.1811 18,70.5 15.659,75.182 16,82.4261 16,88 16,88 19,96 19,96 19,96 21,98 21,98 21,98 23,100 23,100  Z"/><path d=" M247 100 L249,100 C249,100 251,98 251,98 251,98 252,97 252,97 252,97 253,96 253,96 253,96 254,94 254,94 254,94 255,93 255,93 255,93 255,92 255,92 255,90.9521 254.527,89 256,89 256,83.4718 256.235,73.9707 254,69.5 253.441,68.3812 253.845,65 252,65 252,65 251,65 251,65 251,65 249,67 249,67 249,67 252,74.5 252,74.5 252,74.5 252,90.5 252,90.5 250.563,93.374 247,96.6304 247,100  Z"/></g><g id="#804040,541,TEa,Temporal%20association%20areas" fill="none" stroke="#804040" stroke-width="0.4533333333333333"><path d=" M25 100 L39,103 C41.8289,103 41.9954,98 45,98 45,98 45,97 45,97 43.1446,97 41.3437,96 40,96 40,96 37.5,97 37.5,97 37.5,97 32,95 32,95 22.6596,95 24.4109,81.6783 27,76.5 27.5924,75.3153 28.0118,72 30,72 30,72 30,70 30,70 30,70 23,67 23,67 23,67 20,74.5 20,74.5 20,74.5 20,90.5 20,90.5 21.3159,93.1317 25,97.01 25,100  Z"/><path d=" M247 100 C242.244,100 238.504,102 234,102 231.227,102 230.33,98 228,98 228,98 228,96 228,96 230.302,96 240,97.2741 240,94 248.68,94 248.758,84.017 246,78.5 245.287,77.0743 244.236,72 242,72 242,72 242,71 242,71 242,71 249,67 249,67 249,67 252,74.5 252,74.5 252,74.5 252,90.5 252,90.5 250.563,93.374 247,96.6304 247,100  Z"/></g><g id="#408000,337,SSp-ll,Primary%20somatosensory%20area%2C%20lower%20limb" fill="none" stroke="#408000" stroke-width="0.4533333333333333"><path d=" M184 82 L196,84 C196,84 197,75.5 197,75.5 195.012,71.5237 194,73.2144 194,68 191.54,68 184,79.7836 184,82  Z"/><path d=" M89 82 C85.0443,82 81.503,84 77,84 77,81.7671 74.6928,78.1144 76,75.5 76,75.5 79,72.5 79,72.5 79.5228,71.4544 78.0485,69 80,69 82.0448,69 89,79.7108 89,82  Z"/></g><g id="#008000,329,SSp-bfd,Primary%20somatosensory%20area%2C%20barrel%20field" fill="none" stroke="#008000" stroke-width="0.4533333333333333"><path d=" M52 92 L54,93 C58.8889,93 64.3014,90 69,90 69,90 70,89 70,89 70,87.8548 69.4209,85 71,85 71,81.9669 68.4429,71 64,71 64,73.481 49.8137,71 48,71 48,78.608 52,82.9278 52,92  Z"/><path d=" M221 91 L218,93 C218,93 204,90 204,90 204,90 203,88 203,88 203,86.9521 203.473,85 202,85 202,82.1031 205.207,71 209,71 209,73.3484 222.844,71 225,71 225,75.7859 222.049,81.4018 220,85.5 220,85.5 221,91 221,91  Z"/></g><g id="#404080,1018,AUDv,Ventral%20auditory%20area" fill="none" stroke="#404080" stroke-width="0.4533333333333333"><path d=" M33 94 L32,95 C22.6596,95 24.4109,81.6783 27,76.5 27.5924,75.3153 28.0118,72 30,72 31.7321,72 38,74.005 38,76 38,76 37,78 37,78 37,78 33.5,77 33.5,77 30.1913,78.6544 28.2755,86.051 30,89.5 30,89.5 33,94 33,94  Z"/><path d=" M236 77 C249,77 240,88.9965 240,94 248.68,94 248.758,84.017 246,78.5 245.287,77.0743 244.236,72 242,72 242,72 235,75 235,75 235,75 236,77 236,77  Z"/></g><g id="#004080,1011,AUDd,Dorsal%20auditory%20area" fill="none" stroke="#004080" stroke-width="0.4533333333333333"><path d=" M223 91 C223,92.5774 224.762,93 226,93 227.243,93 227.939,90 230,90 230,90 232,81.5 232,81.5 232,81.5 236,77 236,77 236,77 235,75 235,75 229.244,75 226.78,84.9408 225,88.5 225,88.5 223,91 223,91  Z"/><path d=" M50 92 L47,94 C47,92.2884 44.4289,91 43,91 43,91 41,82.5 41,82.5 41,82.5 37,78 37,78 37,78 38,76 38,76 41.7783,76 50,89.0209 50,92  Z"/></g><g id="#c00080,1002,AUDp,Primary%20auditory%20area" fill="none" stroke="#c00080" stroke-width="0.4533333333333333"><path d=" M43 91 L38.5,94 L33,94 C33,94 30,89.5 30,89.5 28.2755,86.051 30.1913,78.6544 33.5,77 33.5,77 37,78 37,78 37,78 41,82.5 41,82.5 41,82.5 43,91 43,91  Z"/><path d=" M230 90 C230,94.1347 237.251,94 240,94 240,88.9965 249,77 236,77 236,77 232,81.5 232,81.5 232,81.5 230,90 230,90  Z"/></g><g id="#00c040,886,RSPv,Retrosplenial%20area%2C%20ventral%20part" fill="none" stroke="#00c040" stroke-width="0.4533333333333333"><path d=" M167 82 C167,85.1717 173.358,93.2159 175,96.5 L175,100.5 C177.389,105.278 175.57,111.64 178,116.5 178.314,117.128 176.869,119.237 178,121.5 L183.5,130 L188,134 C188,137.019 183.213,133.713 182.5,133 182.5,133 165.5,117 165.5,117 162.627,114.127 152.69,108.12 155,103.5 155,103.5 162,95.5 162,95.5 162.939,93.6218 158,83.6843 158,80 158,80 164,81 164,81 164,81 167,82 167,82  Z"/><path d=" M105 82 C105,87.0158 101.081,90.3386 99,94.5 L99,98.5 C95.273,105.954 97.7495,116.001 94,123.5 L84,135 C84,135 87.5,135 87.5,135 87.5,135 109.5,114 109.5,114 109.5,114 117,107.5 117,107.5 119.037,103.425 111.493,98.4857 110,95.5 109.036,93.571 114,84.5333 114,81 114,81 109,81 109,81 109,81 105,82 105,82  Z"/></g><g id="#00c000,361,SSp-tr,Primary%20somatosensory%20area%2C%20trunk" fill="none" stroke="#00c000" stroke-width="0.4533333333333333"><path d=" M70 89 L86,89 C86,86.5404 90,84.83 90,82 90,82 89,82 89,82 85.0443,82 81.503,84 77,84 77,84 73,84 73,84 73,84 71,85 71,85 69.4209,85 70,87.8548 70,89  Z"/><path d=" M203 88 C198.136,88 193.302,89 188,89 186.126,89 183,83.4503 183,82 183,82 184,82 184,82 184,82 196,84 196,84 196,84 200,84 200,84 200,84 202,85 202,85 203.473,85 203,86.9521 203,88  Z"/></g><g id="#40c040,894,RSPagl,Retrosplenial%20area%2C%20lateral%20agranular%20part" fill="none" stroke="#40c040" stroke-width="0.4533333333333333"><path d=" M78 117 C78,119.926 78.3727,124 82,124 89.3935,124 83.5414,108.417 86,103.5 87.8913,99.7175 87.891,93.7181 90,89.5 91.3038,86.8924 95,86.203 95,83 95,83 94,82 94,82 94,82 90,82 90,82 90,84.83 86,86.5404 86,89 86,89 84,93 84,93 84,94.5927 82.4085,102 81,102 81,104.849 80.739,117 78,117  Z"/><path d=" M215 125 L214,128 C214,128 200.5,128 200.5,128 200.5,128 196.5,125 196.5,125 191.595,122.547 191.676,126.852 188,119.5 186.106,115.713 188.912,105.323 186,99.5 186,99.5 186,95.5 186,95.5 186,95.5 183,88.5 183,88.5 183,88.5 178,83 178,83 178,83 180,82 180,82 180,82 183,82 183,82 183,83.4503 186.126,89 188,89 188,90.1452 187.421,93 189,93 189,96.4204 192,99.1401 192,102 192,104.74 193.115,117 196,117 196,117 196,121.5 196,121.5 198.015,125.53 210.534,125 215,125  Z"/><path d=" M78 126 C78,129.386 63.2791,129 60,129 60,129 58,126 58,126 58,126 72.5,126 72.5,126 72.5,126 74.5,124 74.5,124 75.7949,123.353 78,124.657 78,126  Z"/></g><g id="#c08040,879,RSPd,Retrosplenial%20area%2C%20dorsal%20part" fill="none" stroke="#c08040" stroke-width="0.4533333333333333"><path d=" M60 130 L62.5,132 L69.5,132 C70.8361,132.668 82.6199,135 84,135 84,135 94,123.5 94,123.5 97.7495,116.001 95.273,105.954 99,98.5 99,98.5 99,94.5 99,94.5 101.081,90.3386 105,87.0158 105,82 105,82 104,82 104,82 101.611,82 98.0133,83 95,83 95,86.203 91.3038,86.8924 90,89.5 87.891,93.7181 87.8913,99.7175 86,103.5 83.5414,108.417 89.3935,124 82,124 82,127.248 79.6343,126 78,126 78,129.386 63.2791,129 60,129 60,129 60,130 60,130  Z"/><path d=" M214 129 L207.5,132 L188,134 C188,134 183.5,130 183.5,130 183.5,130 178,121.5 178,121.5 176.869,119.237 178.314,117.128 178,116.5 175.57,111.64 177.389,105.278 175,100.5 175,100.5 175,96.5 175,96.5 173.358,93.2159 167,85.1717 167,82 167,82 170,82 170,82 170,82 178,83 178,83 178,83 183,88.5 183,88.5 183,88.5 186,95.5 186,95.5 186,95.5 186,99.5 186,99.5 188.912,105.323 186.106,115.713 188,119.5 191.676,126.852 191.595,122.547 196.5,125 196.5,125 200.5,128 200.5,128 200.5,128 214,128 214,128 214,128 214,129 214,129  Z"/></g><g id="#408080,312782546,VISa,Anterior%20area" fill="none" stroke="#408080" stroke-width="0.4533333333333333"><path d=" M199 97 L201,97 C201,97 204,95 204,95 204,95 204,90 204,90 204,90 203,88 203,88 198.136,88 193.302,89 188,89 188,90.1452 187.421,93 189,93 190.592,93 199,95.4354 199,97  Z"/><path d=" M72 97 L74,97 C74,96.1348 82.6803,93 84,93 84,93 86,89 86,89 86,89 70,89 70,89 70,89 69,90 69,90 69,90 69,95 69,95 69,95 72,97 72,97  Z"/></g><g id="#c00040,417,VISrl,Rostrolateral%20visual%20area" fill="none" stroke="#c00040" stroke-width="0.4533333333333333"><path d=" M69 95 L57,99 C57,99 54,93 54,93 58.8889,93 64.3014,90 69,90 69,90 69,95 69,95  Z"/><path d=" M204 95 C208.488,95 211.967,99 216,99 216,97.0256 218,95.4827 218,93 218,93 204,90 204,90 204,90 204,95 204,95  Z"/></g><g id="#804080,1027,AUDpo,Posterior%20auditory%20area" fill="none" stroke="#804080" stroke-width="0.4533333333333333"><path d=" M240 94 C240,97.2741 230.302,96 228,96 226.423,96 226,94.2383 226,93 227.243,93 227.939,90 230,90 230,94.1347 237.251,94 240,94  Z"/><path d=" M32 95 L37.5,97 L40,96 C41.3437,96 43.1446,97 45,97 45,97 47,94 47,94 47,92.2884 44.4289,91 43,91 43,91 38.5,94 38.5,94 38.5,94 33,94 33,94 33,94 32,95 32,95  Z"/></g><g id="#400040,402,VISal,Anterolateral%20visual%20area" fill="none" stroke="#400040" stroke-width="0.4533333333333333"><path d=" M216 99 L218,100 C218,100 226,98 226,98 226,98 228,98 228,98 228,98 228,96 228,96 226.423,96 226,94.2383 226,93 224.762,93 223,92.5774 223,91 223,91 221,91 221,91 221,91 218,93 218,93 218,95.4827 216,97.0256 216,99  Z"/><path d=" M57 99 L55,101 C55,99.0693 48.7752,99 47,99 47,99 45,98 45,98 45,98 45,97 45,97 45,97 47,94 47,94 47,94 50,92 50,92 50,92 52,92 52,92 52,92 54,93 54,93 54,93 57,99 57,99  Z"/></g><g id="#000040,394,VISam,Anteromedial%20visual%20area" fill="none" stroke="#000040" stroke-width="0.4533333333333333"><path d=" M74 97 C74,98.4461 80.1242,102 81,102 82.4085,102 84,94.5927 84,93 82.6803,93 74,96.1348 74,97  Z"/><path d=" M199 97 L192,102 C192,99.1401 189,96.4204 189,93 190.592,93 199,95.4354 199,97  Z"/></g><g id="#c0c000,385,VISp,Primary%20visual%20area" fill="none" stroke="#c0c000" stroke-width="0.4533333333333333"><path d=" M58 126 L72.5,126 L74.5,124 C75.7949,123.353 78,124.657 78,126 79.6343,126 82,127.248 82,124 78.3727,124 78,119.926 78,117 78,113.498 72,100.221 72,97 72,97 69,95 69,95 69,95 57,99 57,99 57,99 55,101 55,101 55,101 52,104.5 52,104.5 51.1414,106.217 47.2924,114 45,114 45,120.173 51.9683,126 58,126  Z"/><path d=" M196 117 L196,121.5 C198.015,125.53 210.534,125 215,125 221.903,125 227,119.9 227,113 227,110.017 218,103.619 218,100 218,100 216,99 216,99 211.967,99 208.488,95 204,95 204,95 201,97 201,97 201,97 199,100.5 199,100.5 197.787,102.925 196,113.837 196,117  Z"/></g><g id="#404040,533,VISpm,posteromedial%20visual%20area" fill="none" stroke="#404040" stroke-width="0.4533333333333333"><path d=" M81 102 C81,104.849 80.739,117 78,117 78,113.498 72,100.221 72,97 72,97 74,97 74,97 74,98.4461 80.1242,102 81,102  Z"/><path d=" M192 102 C192,104.74 193.115,117 196,117 196,113.837 197.787,102.925 199,100.5 199,100.5 201,97 201,97 201,97 199,97 199,97 199,97 192,102 192,102  Z"/></g><g id="#808080,312782574,VISli,Laterointermediate%20area" fill="none" stroke="#808080" stroke-width="0.4533333333333333"><path d=" M39 103 C39,104.745 38.3018,109 41,109 41,109 47,99 47,99 47,99 45,98 45,98 41.9954,98 41.8289,103 39,103  Z"/><path d=" M234 102 C234,103.745 234.698,108 232,108 230.067,108 226,99.7998 226,98 226,98 228,98 228,98 230.33,98 231.227,102 234,102  Z"/></g><g id="#800040,409,VISl,Lateral%20visual%20area" fill="none" stroke="#800040" stroke-width="0.4533333333333333"><path d=" M232 110 C230.053,110 229.364,113 227,113 227,110.017 218,103.619 218,100 218,100 226,98 226,98 226,99.7998 230.067,108 232,108 232,108 232,110 232,110  Z"/><path d=" M41 110 L45,114 C47.2924,114 51.1414,106.217 52,104.5 52,104.5 55,101 55,101 55,99.0693 48.7752,99 47,99 47,99 41,109 41,109 41,109 41,110 41,110  Z"/></g><g id="#c08080,312782628,VISpor,Postrhinal%20area" fill="none" stroke="#c08080" stroke-width="0.4533333333333333"><path d=" M41 110 L37,115 C32.9871,115 23,103.805 23,100 23,100 25,100 25,100 25,100 39,103 39,103 39,104.745 38.3018,109 41,109 41,109 41,110 41,110  Z"/><path d=" M232 110 L236,114 C240.099,114 249,104.331 249,100 249,100 247,100 247,100 242.244,100 238.504,102 234,102 234,103.745 234.698,108 232,108 232,108 232,110 232,110  Z"/></g><g id="#004040,425,VISpl,Posterolateral%20visual%20area" fill="none" stroke="#004040" stroke-width="0.4533333333333333"><path d=" M60 129 L60,130 C56.8787,130 37,117.906 37,115 37,115 41,110 41,110 41,110 45,114 45,114 45,120.173 51.9683,126 58,126 58,126 60,129 60,129  Z"/><path d=" M214 128 L214,129 C217.112,129 236,117.299 236,114 236,114 232,110 232,110 230.053,110 229.364,113 227,113 227,119.9 221.903,125 215,125 215,125 214,128 214,128  Z"/></g><g id="area_labels" style="fill:#000; text-anchor: middle; dominant-baseline: middle; font-size:2.2666666666666666px; font-family: sans-serif">
<g><text stroke-width="0.22666666666666666" stroke="#666" x="80.28125" y="13.96875">ORBl</text>
<text x="80.28125" y="13.96875">ORBl</text></g>
<g><text stroke-width="0.22666666666666666" stroke="#666" x="95.76562499340878" y="19.453124992655493">ORBvl</text>
<text x="95.76562499340878" y="19.453124992655493">ORBvl</text></g>
<g><text stroke-width="0.22666666666666666" stroke="#666" x="62.48418694978288" y="16.73433022613878">AIv</text>
<text x="62.48418694978288" y="16.73433022613878">AIv</text></g>
<g><text stroke-width="0.22666666666666666" stroke="#666" x="71.3765026672482" y="21.625">AId</text>
<text x="71.3765026672482" y="21.625">AId</text></g>
<g><text stroke-width="0.22666666666666666" stroke="#666" x="108.0625" y="28.06250089318834">ORBm</text>
<text x="108.0625" y="28.06250089318834">ORBm</text></g>
<g><text stroke-width="0.22666666666666666" stroke="#666" x="92.71605267216202" y="47.46655051295441">MOs</text>
<text x="92.71605267216202" y="47.46655051295441">MOs</text></g>
<g><text stroke-width="0.22666666666666666" stroke="#666" x="96.29459951739798" y="29.537276111690694">FRP</text>
<text x="96.29459951739798" y="29.537276111690694">FRP</text></g>
<g><text stroke-width="0.22666666666666666" stroke="#666" x="107.9220833590105" y="37.85924547953401">PL</text>
<text x="107.9220833590105" y="37.85924547953401">PL</text></g>
<g><text stroke-width="0.22666666666666666" stroke="#666" x="67.1171875" y="42.4609375">MOp</text>
<text x="67.1171875" y="42.4609375">MOp</text></g>
<g><text stroke-width="0.22666666666666666" stroke="#666" x="121.03125" y="41.03125">ILA</text>
<text x="121.03125" y="41.03125">ILA</text></g>
<g><text stroke-width="0.22666666666666666" stroke="#666" x="39.453125" y="42.921875">GU</text>
<text x="39.453125" y="42.921875">GU</text></g>
<g><text stroke-width="0.22666666666666666" stroke="#666" x="24.562500006779544" y="48.43749999322045">AIp</text>
<text x="24.562500006779544" y="48.43749999322045">AIp</text></g>
<g><text stroke-width="0.22666666666666666" stroke="#666" x="56.40625" y="52.65625">SSp-m</text>
<text x="56.40625" y="52.65625">SSp-m</text></g>
<g><text stroke-width="0.22666666666666666" stroke="#666" x="109.03357838061835" y="52.944036032302755">ACAd</text>
<text x="109.03357838061835" y="52.944036032302755">ACAd</text></g>
<g><text stroke-width="0.22666666666666666" stroke="#666" x="38.62457686868279" y="64.5422778563471">SSs</text>
<text x="38.62457686868279" y="64.5422778563471">SSs</text></g>
<g><text stroke-width="0.22666666666666666" stroke="#666" x="25.34375" y="63.53125">VISC</text>
<text x="25.34375" y="63.53125">VISC</text></g>
<g><text stroke-width="0.22666666666666666" stroke="#666" x="113.765625" y="71.2979507249654">ACAv</text>
<text x="113.765625" y="71.2979507249654">ACAv</text></g>
<g><text stroke-width="0.22666666666666666" stroke="#666" x="74.0" y="70.0">SSp-ul</text>
<text x="74.0" y="70.0">SSp-ul</text></g>
<g><text stroke-width="0.22666666666666666" stroke="#666" x="53.00621981798235" y="66.00621981798234">SSp-n</text>
<text x="53.00621981798235" y="66.00621981798234">SSp-n</text></g>
<g><text stroke-width="0.22666666666666666" stroke="#666" x="14.025337849266926" y="85.30307607294318">PERI</text>
<text x="14.025337849266926" y="85.30307607294318">PERI</text></g>
<g><text stroke-width="0.22666666666666666" stroke="#666" x="66.71875" y="67.90625">SSp-un</text>
<text x="66.71875" y="67.90625">SSp-un</text></g>
<g><text stroke-width="0.22666666666666666" stroke="#666" x="17.915331518570596" y="76.91853587400117">ECT</text>
<text x="17.915331518570596" y="76.91853587400117">ECT</text></g>
<g><text stroke-width="0.22666666666666666" stroke="#666" x="24.296875" y="73.48446791349045">TEa</text>
<text x="24.296875" y="73.48446791349045">TEa</text></g>
<g><text stroke-width="0.22666666666666666" stroke="#666" x="81.46980358355546" y="78.0490081032863">SSp-ll</text>
<text x="81.46980358355546" y="78.0490081032863">SSp-ll</text></g>
<g><text stroke-width="0.22666666666666666" stroke="#666" x="61.5" y="81.5">SSp-bfd</text>
<text x="61.5" y="81.5">SSp-bfd</text></g>
<g><text stroke-width="0.22666666666666666" stroke="#666" x="26.767808112439905" y="91.15033427173574">AUDv</text>
<text x="26.767808112439905" y="91.15033427173574">AUDv</text></g>
<g><text stroke-width="0.22666666666666666" stroke="#666" x="45.29797569459167" y="87.17004050901389">AUDd</text>
<text x="45.29797569459167" y="87.17004050901389">AUDd</text></g>
<g><text stroke-width="0.22666666666666666" stroke="#666" x="35.253465944706605" y="85.51685573212711">AUDp</text>
<text x="35.253465944706605" y="85.51685573212711">AUDp</text></g>
<g><text stroke-width="0.22666666666666666" stroke="#666" x="105.74044293142074" y="105.55413876887704">RSPv</text>
<text x="105.74044293142074" y="105.55413876887704">RSPv</text></g>
<g><text stroke-width="0.22666666666666666" stroke="#666" x="84.0771783163496" y="86.03125">SSp-tr</text>
<text x="84.0771783163496" y="86.03125">SSp-tr</text></g>
<g><text stroke-width="0.22666666666666666" stroke="#666" x="82.703125" y="119.609375">RSPagl</text>
<text x="82.703125" y="119.609375">RSPagl</text></g>
<g><text stroke-width="0.22666666666666666" stroke="#666" x="90.6640625" y="110.9453125">RSPd</text>
<text x="90.6640625" y="110.9453125">RSPd</text></g>
<g><text stroke-width="0.22666666666666666" stroke="#666" x="73.0" y="93.0">VISa</text>
<text x="73.0" y="93.0">VISa</text></g>
<g><text stroke-width="0.22666666666666666" stroke="#666" x="64.43594779172598" y="93.31108495902491">VISrl</text>
<text x="64.43594779172598" y="93.31108495902491">VISrl</text></g>
<g><text stroke-width="0.22666666666666666" stroke="#666" x="43.50077185055949" y="94.5">AUDpo</text>
<text x="43.50077185055949" y="94.5">AUDpo</text></g>
<g><text stroke-width="0.22666666666666666" stroke="#666" x="50.6875" y="95.3125">VISal</text>
<text x="50.6875" y="95.3125">VISal</text></g>
<g><text stroke-width="0.22666666666666666" stroke="#666" x="79.61701678384395" y="97.37107065321774">VISam</text>
<text x="79.61701678384395" y="97.37107065321774">VISam</text></g>
<g><text stroke-width="0.22666666666666666" stroke="#666" x="63.10388364715196" y="113.10473920166409">VISp</text>
<text x="63.10388364715196" y="113.10473920166409">VISp</text></g>
<g><text stroke-width="0.22666666666666666" stroke="#666" x="77.6875" y="105.0625">VISpm</text>
<text x="77.6875" y="105.0625">VISpm</text></g>
<g><text stroke-width="0.22666666666666666" stroke="#666" x="42.129153066599415" y="103.2421991350533">VISli</text>
<text x="42.129153066599415" y="103.2421991350533">VISli</text></g>
<g><text stroke-width="0.22666666666666666" stroke="#666" x="46.125" y="107.875">VISl</text>
<text x="46.125" y="107.875">VISl</text></g>
<g><text stroke-width="0.22666666666666666" stroke="#666" x="34.015625" y="107.890625">VISpor</text>
<text x="34.015625" y="107.890625">VISpor</text></g>
<g><text stroke-width="0.22666666666666666" stroke="#666" x="40.906224390904455" y="115.78130526173251">VISpl</text>
<text x="40.906224390904455" y="115.78130526173251">VISpl</text></g>
</g></svg>